{"glyphs":{"0":{"ha":1164,"x_min":129,"x_max":1229,"o":"m 510 -26 q 315 21 401 -26 q 179 168 229 68 q 129 424 129 268 q 151 647 129 533 q 217 869 174 760 q 324 1072 261 978 q 466 1240 386 1167 q 644 1353 546 1313 q 853 1393 742 1393 q 1046 1344 961 1393 q 1180 1198 1131 1296 q 1229 950 1229 1100 q 1207 725 1229 840 q 1142 500 1185 610 q 1038 295 1100 390 q 896 128 976 200 q 718 15 815 56 q 510 -26 621 -26 m 535 93 q 690 128 617 93 q 826 225 763 163 q 939 369 889 288 q 1025 543 989 450 q 1080 733 1061 636 q 1099 921 1099 829 q 1065 1126 1099 1050 q 970 1238 1031 1203 q 826 1274 910 1274 q 671 1239 744 1274 q 534 1142 597 1204 q 420 999 471 1081 q 334 826 369 918 q 280 639 299 735 q 261 453 261 543 q 295 240 261 319 q 391 127 329 161 q 535 93 453 93 z "},"1":{"ha":686,"x_min":217,"x_max":732,"o":"m 274 -19 q 231 -9 244 -19 q 222 22 217 1 l 561 1208 q 483 1154 522 1181 q 406 1106 443 1128 q 335 1065 368 1083 q 284 1051 304 1050 q 249 1083 264 1051 q 244 1129 235 1113 q 288 1164 254 1146 q 376 1217 329 1188 q 470 1278 424 1246 q 557 1346 517 1311 q 597 1375 581 1365 q 630 1389 613 1385 q 676 1393 647 1393 q 718 1383 704 1393 q 725 1351 732 1372 l 349 19 q 324 -11 343 -3 q 274 -19 306 -19 z "},"2":{"ha":1013,"x_min":-26,"x_max":1099,"o":"m 15 0 q -15 15 -4 0 q -24 51 -26 31 q -4 88 -22 72 l 410 421 q 591 570 510 501 q 735 700 672 639 q 843 815 797 761 q 918 917 889 869 q 962 1010 947 965 q 976 1097 976 1056 q 949 1199 976 1158 q 871 1258 922 1239 q 744 1278 819 1278 q 573 1243 649 1278 q 418 1150 497 1208 q 371 1129 390 1129 q 329 1156 351 1129 q 315 1194 310 1176 q 349 1236 319 1211 q 465 1316 399 1281 q 608 1372 531 1351 q 769 1393 686 1393 q 901 1374 840 1393 q 1006 1317 961 1354 q 1074 1228 1050 1281 q 1099 1111 1099 1176 q 1083 1002 1099 1057 q 1035 890 1068 947 q 952 771 1003 832 q 833 642 901 710 q 674 496 764 574 q 474 329 585 418 l 204 111 l 813 111 q 834 103 828 111 q 840 81 840 96 q 824 22 840 44 q 788 0 808 0 l 15 0 z "},"3":{"ha":1038,"x_min":49,"x_max":1085,"o":"m 460 -26 q 285 10 365 -26 q 148 110 206 47 q 61 254 90 174 q 50 313 49 294 q 85 344 51 332 q 131 351 117 357 q 156 313 144 344 q 228 189 185 240 q 333 111 272 138 q 475 85 394 85 q 629 111 563 85 q 742 184 696 138 q 813 294 789 231 q 838 429 838 357 q 805 561 838 504 q 711 649 772 618 q 563 681 650 681 l 472 681 q 451 694 457 681 q 451 738 446 708 q 472 778 458 765 q 501 792 485 792 l 583 792 q 733 811 665 792 q 852 867 801 831 q 931 960 903 904 q 958 1086 958 1015 q 942 1171 958 1135 q 895 1232 926 1207 q 822 1269 864 1257 q 729 1282 781 1282 q 622 1266 674 1282 q 522 1220 569 1250 q 432 1147 474 1190 q 391 1124 407 1124 q 350 1147 375 1124 q 332 1187 326 1168 q 361 1233 338 1206 q 465 1315 404 1279 q 598 1372 525 1351 q 749 1393 671 1393 q 878 1373 818 1393 q 985 1314 939 1353 q 1058 1219 1032 1275 q 1085 1094 1085 1164 q 1065 965 1085 1025 q 1006 857 1044 904 q 907 776 967 810 q 768 724 847 742 q 874 663 831 704 q 942 564 918 621 q 965 438 965 507 q 929 256 965 340 q 826 108 893 172 q 665 9 758 44 q 460 -26 572 -26 z "},"4":{"ha":1057,"x_min":65,"x_max":1053,"o":"m 682 -19 q 635 -10 651 -19 q 626 22 619 0 l 726 364 l 111 364 q 73 391 81 364 q 86 444 65 418 l 826 1356 q 863 1385 843 1376 q 915 1393 882 1394 q 952 1385 936 1392 q 971 1365 968 1378 q 956 1329 974 1351 l 254 475 l 758 475 l 889 922 q 958 961 900 961 q 1005 951 990 961 q 1013 919 1019 942 l 883 475 l 1025 475 q 1046 467 1039 475 q 1053 444 1053 458 q 1036 385 1053 407 q 999 364 1019 364 l 851 364 l 751 19 q 682 -19 740 -19 z "},"5":{"ha":1038,"x_min":38,"x_max":1168,"o":"m 468 -26 q 358 -13 413 -26 q 251 25 303 0 q 154 89 200 50 q 69 179 108 128 q 42 229 47 210 q 64 269 38 249 q 106 290 90 292 q 144 263 122 289 q 242 165 192 204 q 351 106 292 125 q 489 86 411 86 q 652 120 581 86 q 772 214 724 154 q 847 351 821 274 q 872 517 872 429 q 858 618 872 572 q 816 697 844 664 q 742 748 788 731 q 633 765 697 765 q 519 751 574 765 q 418 711 465 736 q 329 654 371 686 q 279 633 307 638 q 235 642 251 628 q 231 693 218 656 l 433 1339 q 449 1360 436 1350 q 479 1369 461 1369 l 1140 1369 q 1161 1362 1154 1369 q 1168 1339 1168 1354 q 1152 1280 1168 1301 q 1115 1258 1136 1258 l 522 1258 l 376 792 q 456 835 414 817 q 545 865 499 854 q 639 876 592 876 q 836 831 756 876 q 958 708 917 786 q 999 531 999 629 q 959 294 999 397 q 848 119 919 190 q 680 10 776 47 q 468 -26 583 -26 z "},"6":{"ha":1115,"x_min":176,"x_max":1144,"o":"m 560 -26 q 360 26 446 -26 q 225 183 274 79 q 176 440 176 288 q 220 722 176 589 q 343 968 264 856 q 533 1167 422 1081 q 780 1309 644 1253 q 1068 1388 915 1365 q 1123 1385 1107 1393 q 1142 1344 1139 1378 q 1131 1299 1144 1310 q 1085 1283 1117 1289 q 815 1208 938 1261 q 598 1075 693 1154 q 438 896 503 996 q 338 682 372 796 q 303 446 303 568 q 324 279 303 349 q 383 167 346 210 q 470 105 421 125 q 575 85 519 85 q 729 116 660 85 q 849 203 799 147 q 925 334 899 260 q 951 494 951 408 q 919 630 951 574 q 833 716 888 686 q 711 746 778 746 q 608 727 660 746 q 510 676 557 708 q 420 603 463 644 q 344 517 378 563 q 288 428 311 471 l 244 510 q 335 649 283 585 q 451 759 388 713 q 587 831 515 806 q 733 857 658 857 q 871 832 808 857 q 980 762 933 807 q 1052 653 1026 717 q 1078 514 1078 590 q 1040 294 1078 393 q 934 123 1003 194 q 770 13 865 51 q 560 -26 675 -26 z "},"7":{"ha":842,"x_min":67,"x_max":1093,"o":"m 126 -18 q 73 2 79 -17 q 90 54 67 21 l 908 1258 l 294 1258 q 274 1266 281 1258 q 267 1289 267 1274 q 283 1347 267 1325 q 321 1369 299 1369 l 1042 1369 q 1078 1348 1063 1369 q 1072 1294 1093 1326 l 219 40 q 181 -5 201 10 q 126 -18 160 -19 z "},"8":{"ha":1038,"x_min":60,"x_max":1114,"o":"m 460 -26 q 297 -3 371 -26 q 171 64 224 21 q 89 168 118 107 q 60 306 60 229 q 92 447 60 381 q 183 567 124 513 q 322 667 242 622 q 499 744 403 713 q 391 840 432 789 q 331 943 350 890 q 311 1047 311 996 q 344 1193 311 1129 q 436 1302 376 1257 q 577 1370 496 1347 q 754 1393 658 1393 q 896 1374 831 1393 q 1010 1320 961 1356 q 1086 1234 1058 1285 q 1114 1121 1114 1183 q 1088 992 1114 1050 q 1014 885 1061 933 q 902 801 967 838 q 761 736 838 764 q 876 639 828 693 q 953 522 925 585 q 981 388 981 458 q 941 209 981 286 q 831 79 901 132 q 665 0 760 26 q 460 -26 571 -26 m 483 86 q 629 106 563 86 q 747 165 696 126 q 825 258 797 204 q 853 382 853 313 q 824 503 853 449 q 740 602 794 557 q 610 685 686 647 q 443 615 519 654 q 309 528 367 575 q 219 424 251 481 q 188 306 188 368 q 213 206 188 247 q 282 139 239 165 q 377 99 325 113 q 483 86 429 86 m 653 793 q 830 874 756 826 q 946 978 904 921 q 988 1096 988 1035 q 967 1178 988 1143 q 910 1235 946 1213 q 830 1269 875 1258 q 735 1281 785 1281 q 621 1267 675 1281 q 526 1226 567 1254 q 461 1156 485 1199 q 438 1056 438 1114 q 466 950 438 999 q 544 863 494 901 q 653 793 593 824 z "},"9":{"ha":1115,"x_min":168,"x_max":1135,"o":"m 751 1399 q 951 1346 865 1399 q 1086 1190 1038 1293 q 1135 932 1135 1086 q 1091 650 1135 783 q 968 404 1047 517 q 778 206 889 292 q 532 63 667 119 q 243 -15 397 7 q 188 -13 204 -21 q 169 28 172 -6 q 181 73 168 63 q 226 89 194 83 q 496 165 374 111 q 713 297 618 218 q 874 476 808 376 q 973 690 939 576 q 1007 926 1007 804 q 986 1093 1007 1024 q 928 1205 965 1163 q 841 1267 890 1247 q 736 1288 792 1288 q 582 1256 651 1288 q 463 1169 513 1225 q 386 1039 413 1113 q 360 878 360 965 q 392 743 360 799 q 478 657 424 688 q 600 626 533 626 q 703 645 651 626 q 801 696 754 664 q 891 769 849 728 q 967 856 933 810 q 1024 944 1000 901 l 1067 863 q 976 724 1029 788 q 860 613 924 660 q 724 541 796 567 q 578 515 653 515 q 441 540 504 515 q 331 610 378 565 q 259 719 285 656 q 233 858 233 782 q 271 1078 233 979 q 377 1249 308 1178 q 541 1360 446 1321 q 751 1399 636 1399 z "},"\r":{"ha":417,"x_min":0,"x_max":0,"o":""}," ":{"ha":417,"x_min":0,"x_max":0,"o":""}," ":{"ha":139,"x_min":0,"x_max":0,"o":""}," ":{"ha":417,"x_min":0,"x_max":0,"o":""},"A":{"ha":1146,"x_min":-68,"x_max":1024,"o":"m -10 -19 q -57 1 -46 -19 q -49 53 -68 22 l 758 1338 q 799 1381 779 1369 q 853 1393 818 1393 q 895 1380 879 1393 q 913 1324 911 1367 l 1019 43 q 1008 -2 1024 15 q 956 -19 992 -19 q 915 -8 925 -19 q 901 32 904 4 l 874 388 l 299 388 l 79 36 q 41 -10 56 0 q -10 -19 26 -19 m 371 499 l 864 499 l 806 1199 l 371 499 z "},"B":{"ha":1107,"x_min":96,"x_max":1188,"o":"m 157 0 q 107 39 96 0 l 482 1332 q 556 1369 493 1369 l 839 1369 q 1022 1342 944 1369 q 1144 1257 1100 1315 q 1188 1108 1188 1199 q 1151 960 1188 1026 q 1055 843 1115 893 q 920 763 994 793 q 769 728 846 733 l 767 722 q 881 699 826 718 q 976 647 935 679 q 1042 567 1018 614 q 1067 458 1067 519 q 1037 292 1067 365 q 953 163 1007 218 q 824 72 899 108 q 658 17 749 35 q 465 0 567 0 l 157 0 m 251 111 l 468 111 q 649 131 564 111 q 799 192 735 150 q 901 298 864 233 q 938 451 938 363 q 917 537 938 497 q 857 606 896 576 q 763 651 818 635 q 636 668 707 668 l 411 668 l 251 111 m 444 779 l 649 779 q 796 801 724 779 q 927 864 868 824 q 1020 960 986 904 q 1054 1086 1054 1017 q 1028 1184 1054 1146 q 948 1240 1003 1222 q 807 1258 893 1258 l 582 1258 l 444 779 z "},"C":{"ha":1185,"x_min":194,"x_max":1339,"o":"m 639 -26 q 453 8 535 -26 q 313 109 371 43 q 224 271 254 175 q 194 488 194 367 q 217 685 194 582 q 282 890 239 789 q 390 1082 325 992 q 539 1242 454 1172 q 730 1353 624 1313 q 961 1393 836 1393 q 1115 1375 1046 1393 q 1237 1319 1183 1357 q 1328 1226 1290 1282 q 1333 1199 1339 1210 q 1308 1172 1326 1188 q 1276 1156 1290 1158 q 1244 1169 1263 1153 q 1167 1228 1210 1204 q 1071 1263 1125 1251 q 943 1275 1017 1275 q 769 1242 850 1275 q 619 1151 688 1210 q 496 1017 550 1092 q 403 855 442 942 q 345 679 365 768 q 325 506 325 590 q 345 325 325 403 q 406 195 365 247 q 510 117 447 143 q 657 92 572 92 q 769 111 715 92 q 873 166 822 131 q 973 250 924 201 q 1072 357 1022 299 q 1103 367 1088 374 q 1135 346 1119 361 q 1156 315 1154 328 q 1143 281 1158 301 q 967 98 1056 165 q 794 2 878 31 q 639 -26 711 -26 z "},"D":{"ha":1328,"x_min":96,"x_max":1335,"o":"m 158 0 q 108 39 96 0 l 482 1332 q 506 1360 488 1351 q 553 1369 524 1369 l 796 1369 q 1033 1335 932 1369 q 1201 1239 1133 1300 q 1301 1097 1268 1178 q 1335 921 1335 1015 q 1290 619 1335 760 q 1162 364 1244 478 q 966 169 1079 250 q 715 44 853 88 q 426 0 578 0 l 158 0 m 253 118 l 426 118 q 666 154 551 118 q 878 259 781 190 q 1047 426 975 328 q 1158 649 1118 525 q 1197 921 1197 774 q 1169 1059 1197 997 q 1089 1163 1142 1121 q 962 1228 1036 1206 q 794 1251 888 1251 l 581 1251 l 253 118 z "},"E":{"ha":1013,"x_min":107,"x_max":1233,"o":"m 169 0 q 122 13 136 0 q 115 56 107 25 l 481 1332 q 501 1360 486 1350 q 546 1369 517 1369 l 1206 1369 q 1228 1356 1222 1369 q 1226 1314 1233 1343 q 1206 1272 1219 1286 q 1178 1258 1193 1258 l 582 1258 l 444 779 l 939 779 q 961 766 956 779 q 961 724 967 753 q 941 682 954 696 q 911 668 928 668 l 413 668 l 254 111 l 844 111 q 867 98 860 111 q 865 56 874 85 q 847 15 860 29 q 817 0 833 0 l 169 0 z "},"F":{"ha":954,"x_min":92,"x_max":1219,"o":"m 151 -19 q 103 19 92 -19 l 481 1332 q 505 1360 486 1351 q 554 1369 524 1369 l 1192 1369 q 1213 1356 1207 1369 q 1214 1314 1219 1343 q 1193 1272 1206 1286 q 1164 1258 1181 1258 l 582 1258 l 432 740 l 926 740 q 947 726 942 740 q 943 683 953 711 q 922 642 935 656 q 893 629 908 629 l 400 629 l 226 19 q 200 -10 219 0 q 151 -19 181 -19 z "},"H":{"ha":1356,"x_min":92,"x_max":1463,"o":"m 153 -19 q 103 19 92 -19 l 488 1356 q 511 1384 493 1375 q 558 1393 529 1393 q 608 1356 622 1393 l 442 774 l 1160 774 l 1328 1356 q 1351 1384 1333 1375 q 1399 1393 1369 1393 q 1449 1356 1463 1393 l 1064 19 q 1042 -10 1060 0 q 993 -19 1024 -19 q 943 19 932 -19 l 1128 663 l 410 663 l 224 19 q 201 -10 219 0 q 153 -19 183 -19 z "},"J":{"ha":992,"x_min":32,"x_max":1119,"o":"m 389 -26 q 242 6 315 -26 q 113 99 168 39 q 38 246 57 160 q 43 281 32 269 q 76 297 54 292 q 124 299 110 307 q 149 265 139 292 q 201 172 167 211 q 284 113 236 133 q 390 92 332 92 q 476 101 436 92 q 551 132 517 111 q 615 189 586 153 q 669 277 644 225 q 715 400 694 329 l 992 1356 q 1015 1384 997 1375 q 1063 1393 1033 1393 q 1106 1384 1093 1393 q 1113 1356 1119 1375 l 836 394 q 776 233 810 303 q 701 115 742 164 q 611 34 660 65 q 507 -12 563 3 q 389 -26 451 -26 z "},"K":{"ha":1050,"x_min":96,"x_max":1267,"o":"m 151 -22 q 108 -12 121 -22 q 101 18 96 -3 l 488 1354 q 560 1393 499 1393 q 610 1354 622 1393 l 447 792 l 1171 1372 q 1214 1389 1197 1392 q 1249 1363 1231 1386 q 1265 1322 1267 1338 q 1236 1286 1264 1307 l 511 713 q 647 471 579 582 q 785 261 714 360 q 939 65 857 163 q 953 24 958 42 q 921 -15 949 7 q 880 -26 899 -31 q 847 -6 861 -21 q 723 155 783 72 q 608 324 663 238 q 506 499 554 410 q 414 678 457 589 l 224 18 q 200 -12 218 -1 q 151 -22 182 -22 z "},"L":{"ha":954,"x_min":99,"x_max":843,"o":"m 161 0 q 115 56 99 0 l 488 1356 q 508 1384 493 1375 q 553 1393 522 1393 q 599 1383 585 1393 q 607 1351 614 1374 l 251 111 l 815 111 q 838 98 832 111 q 836 56 843 85 q 817 15 831 29 q 788 0 803 0 l 161 0 z "},"N":{"ha":1356,"x_min":92,"x_max":1463,"o":"m 153 -19 q 103 19 92 -19 l 488 1356 q 511 1384 493 1375 q 558 1393 529 1393 q 597 1384 583 1393 q 618 1356 610 1375 l 1000 224 l 1328 1356 q 1352 1384 1335 1375 q 1399 1393 1369 1393 q 1449 1356 1463 1393 l 1064 19 q 1042 -10 1060 0 q 994 -19 1024 -19 q 962 -12 972 -19 q 943 19 951 -6 l 556 1165 l 224 19 q 201 -10 218 0 q 153 -19 183 -19 z "},"O":{"ha":1413,"x_min":201,"x_max":1404,"o":"m 671 -26 q 477 11 564 -26 q 329 118 390 49 q 235 285 268 188 q 201 504 201 383 q 223 708 201 604 q 288 912 244 813 q 393 1098 331 1011 q 538 1251 456 1185 q 720 1356 619 1318 q 938 1393 821 1393 q 1131 1356 1044 1393 q 1278 1250 1217 1319 q 1372 1083 1339 1181 q 1404 865 1404 986 q 1381 652 1404 758 q 1315 446 1358 546 q 1208 260 1271 346 q 1063 110 1144 174 q 883 10 982 46 q 671 -26 785 -26 m 689 92 q 859 123 781 92 q 1003 210 938 154 q 1119 340 1068 267 q 1204 498 1169 413 q 1257 672 1239 583 q 1275 849 1275 761 q 1252 1031 1275 951 q 1183 1165 1229 1111 q 1072 1247 1138 1219 q 919 1275 1006 1275 q 751 1244 831 1275 q 607 1156 672 1213 q 490 1025 542 1099 q 403 867 439 951 q 349 695 368 783 q 331 521 331 607 q 354 338 331 418 q 423 203 378 258 q 535 120 468 149 q 689 92 601 92 z "},"P":{"ha":1069,"x_min":93,"x_max":1217,"o":"m 158 -19 q 104 22 93 -19 l 481 1332 q 503 1360 486 1351 q 550 1369 519 1369 l 797 1369 q 1029 1337 936 1369 q 1169 1237 1122 1304 q 1217 1067 1217 1169 q 1174 865 1217 951 q 1051 717 1131 778 q 861 617 971 656 q 621 563 751 579 q 498 551 561 556 q 378 547 435 547 l 226 19 q 205 -10 219 0 q 158 -19 190 -19 m 408 658 q 487 660 446 658 q 569 666 528 663 q 650 675 611 669 q 888 745 790 697 q 1039 869 986 793 q 1092 1054 1092 946 q 1058 1172 1092 1126 q 957 1238 1025 1217 q 781 1258 889 1258 l 582 1258 l 408 658 z "},"Q":{"ha":1413,"x_min":201,"x_max":1404,"o":"m 925 -290 q 884 -286 901 -296 q 857 -251 867 -276 l 686 226 q 687 274 676 254 q 726 300 697 293 q 767 297 750 307 q 792 261 785 286 l 964 -217 q 965 -262 975 -243 q 925 -290 954 -282 m 671 -26 q 477 11 564 -26 q 329 118 390 49 q 235 285 268 188 q 201 504 201 383 q 223 708 201 604 q 288 912 244 813 q 393 1098 331 1011 q 538 1251 456 1185 q 720 1356 619 1318 q 938 1393 821 1393 q 1131 1356 1044 1393 q 1278 1250 1217 1319 q 1372 1083 1339 1181 q 1404 865 1404 986 q 1381 652 1404 758 q 1315 446 1358 546 q 1208 260 1271 346 q 1063 110 1144 174 q 883 10 982 46 q 671 -26 785 -26 m 689 92 q 859 123 781 92 q 1003 210 938 154 q 1119 340 1068 267 q 1204 498 1169 413 q 1257 672 1239 583 q 1275 849 1275 761 q 1252 1031 1275 951 q 1183 1165 1229 1111 q 1072 1247 1138 1219 q 919 1275 1006 1275 q 751 1244 831 1275 q 607 1156 672 1213 q 490 1025 542 1099 q 403 867 439 951 q 349 695 368 783 q 331 521 331 607 q 354 338 331 418 q 423 203 378 258 q 535 120 468 149 q 689 92 601 92 z "},"R":{"ha":1060,"x_min":99,"x_max":1183,"o":"m 158 -19 q 113 -10 128 -19 q 104 22 99 0 l 481 1332 q 503 1360 486 1351 q 550 1369 519 1369 l 754 1369 q 998 1342 903 1369 q 1138 1253 1093 1315 q 1183 1083 1183 1190 q 1163 957 1183 1015 q 1103 848 1142 899 q 1007 758 1064 797 q 876 689 950 718 q 714 642 803 660 q 522 619 625 625 q 633 431 574 524 q 765 248 693 338 q 924 71 836 158 q 940 41 935 60 q 913 -6 944 22 q 873 -21 893 -24 q 835 -1 853 -18 q 671 183 751 82 q 520 392 590 283 q 393 607 450 501 l 226 19 q 205 -10 219 0 q 158 -19 190 -19 m 425 718 q 586 725 511 718 q 726 748 661 732 q 843 786 790 764 q 936 838 896 808 q 1003 903 976 867 q 1044 983 1031 940 q 1058 1075 1058 1026 q 1029 1186 1058 1146 q 930 1242 1000 1226 q 739 1258 860 1258 l 582 1258 l 425 718 z "},"S":{"ha":1050,"x_min":60,"x_max":1114,"o":"m 478 -26 q 347 -9 408 -26 q 235 38 286 8 q 144 106 185 68 q 72 186 103 144 q 67 217 60 203 q 88 246 74 232 q 123 265 108 261 q 151 254 138 269 q 236 176 188 213 q 346 115 285 139 q 478 92 407 92 q 617 110 553 92 q 728 165 681 129 q 801 253 775 200 q 826 374 826 306 q 812 457 826 419 q 769 527 797 494 q 701 588 742 560 q 606 644 660 617 q 513 699 557 671 q 433 760 469 728 q 369 833 396 793 q 326 922 342 872 q 311 1032 311 971 q 342 1178 311 1111 q 430 1292 372 1244 q 567 1367 488 1340 q 744 1393 647 1393 q 887 1371 824 1393 q 1003 1312 950 1349 q 1099 1231 1056 1275 q 1110 1201 1114 1217 q 1089 1168 1107 1185 q 1057 1150 1074 1153 q 1025 1158 1040 1147 q 950 1215 989 1189 q 863 1258 911 1242 q 744 1275 814 1275 q 622 1260 678 1275 q 526 1214 567 1244 q 463 1138 486 1183 q 440 1032 440 1092 q 453 944 440 982 q 494 874 467 906 q 565 813 521 842 q 669 751 608 783 q 787 681 735 718 q 877 598 839 643 q 935 498 915 553 q 956 375 956 443 q 920 213 956 286 q 820 85 885 139 q 668 3 756 32 q 478 -26 581 -26 z "},"T":{"ha":1054,"x_min":296,"x_max":1317,"o":"m 422 -21 q 372 18 363 -21 l 732 1258 l 328 1258 q 301 1271 307 1258 q 304 1314 296 1283 q 326 1358 314 1346 q 360 1369 339 1369 l 1286 1369 q 1312 1358 1307 1369 q 1307 1314 1317 1346 q 1287 1271 1299 1283 q 1254 1258 1275 1258 l 853 1258 l 493 18 q 470 -11 488 -1 q 422 -21 453 -21 z "},"U":{"ha":1318,"x_min":183,"x_max":1428,"o":"m 581 -26 q 383 6 467 -26 q 251 99 300 38 q 193 251 203 160 q 217 457 183 342 l 469 1356 q 492 1384 476 1375 q 540 1393 508 1393 q 588 1383 572 1393 q 597 1351 603 1374 l 336 443 q 322 244 301 322 q 411 129 342 167 q 590 92 481 92 q 799 132 710 92 q 949 251 889 172 q 1042 443 1010 329 l 1293 1356 q 1315 1384 1299 1375 q 1363 1393 1331 1393 q 1417 1351 1428 1393 l 1161 429 q 1040 179 1121 281 q 843 26 958 78 q 581 -26 728 -26 z "},"V":{"ha":1107,"x_min":311,"x_max":1379,"o":"m 454 -19 q 410 -6 426 -19 q 393 51 394 8 l 314 1331 q 327 1375 311 1358 q 379 1393 343 1392 q 420 1383 410 1393 q 432 1346 431 1374 l 501 176 l 1233 1342 q 1272 1384 1256 1375 q 1322 1393 1288 1393 q 1368 1371 1357 1392 q 1360 1322 1379 1350 l 547 36 q 507 -7 526 6 q 454 -19 488 -19 z "},"W":{"ha":1821,"x_min":311,"x_max":2092,"o":"m 435 -19 q 391 -6 407 -19 q 372 51 375 8 l 314 1331 q 327 1375 311 1358 q 378 1393 343 1392 q 420 1383 410 1393 q 432 1346 431 1374 l 481 188 l 1114 1338 q 1151 1384 1135 1375 q 1204 1393 1168 1393 q 1247 1382 1236 1393 q 1260 1343 1257 1371 l 1311 185 l 1949 1340 q 1986 1384 1969 1375 q 2036 1393 2003 1393 q 2082 1371 2072 1392 q 2075 1322 2092 1350 l 1358 36 q 1319 -7 1340 6 q 1265 -19 1299 -19 q 1222 -6 1238 -19 q 1204 51 1206 8 l 1149 1160 l 526 36 q 489 -7 510 6 q 435 -19 468 -19 z "},"X":{"ha":1049,"x_min":-39,"x_max":1279,"o":"m 850 -18 q 808 -12 824 -19 q 785 25 793 -4 l 603 588 l 100 25 q 54 -11 75 -3 q 7 -18 33 -19 q -25 -7 -11 -17 q -39 21 -39 3 q -18 63 -39 39 l 563 710 l 369 1311 q 373 1368 360 1347 q 415 1392 386 1389 q 458 1385 443 1393 q 483 1349 474 1378 l 657 810 l 1140 1349 q 1187 1385 1167 1376 q 1233 1392 1207 1393 q 1265 1381 1251 1390 q 1278 1353 1278 1371 q 1258 1311 1279 1336 l 696 689 l 896 63 q 894 6 907 28 q 850 -18 881 -15 z "},"Z":{"ha":936,"x_min":-69,"x_max":1182,"o":"m -35 0 q -60 13 -51 0 q -68 46 -69 26 q -54 81 -67 65 l 974 1258 l 363 1258 q 340 1272 346 1258 q 340 1314 335 1285 q 361 1356 347 1342 q 390 1369 375 1369 l 1142 1369 q 1174 1342 1167 1369 q 1160 1290 1182 1314 l 133 111 l 811 111 q 833 98 826 111 q 832 56 839 85 q 812 15 825 29 q 783 0 799 0 l -35 0 z "},"Æ":{"ha":1472,"x_min":-67,"x_max":1693,"o":"m 1276 0 l 707 0 q 659 13 674 0 q 653 56 644 25 l 817 629 l 526 629 l 58 3 q 25 -19 46 -15 q -24 -17 4 -24 q -58 9 -50 -8 q -53 46 -67 26 l 906 1325 q 940 1359 922 1349 q 983 1369 957 1369 l 1665 1369 q 1688 1356 1682 1369 q 1688 1314 1693 1343 q 1666 1272 1679 1286 q 1638 1258 1653 1258 l 1121 1258 l 972 740 l 1389 740 q 1411 727 1406 740 q 1410 685 1417 714 q 1390 643 1404 657 q 1361 629 1376 629 l 940 629 l 793 111 l 1306 111 q 1327 98 1321 111 q 1325 56 1333 85 q 1306 15 1319 29 q 1276 0 1293 0 m 608 740 l 850 740 l 999 1265 l 608 740 z "},"Ð":{"ha":1314,"x_min":96,"x_max":1335,"o":"m 158 0 q 108 39 96 0 l 482 1332 q 506 1360 488 1351 q 553 1369 524 1369 l 796 1369 q 1033 1335 932 1369 q 1201 1239 1133 1300 q 1301 1097 1268 1178 q 1335 921 1335 1015 q 1290 619 1335 760 q 1162 364 1244 478 q 966 169 1079 250 q 715 44 853 88 q 426 0 578 0 l 158 0 m 253 118 l 426 118 q 666 154 551 118 q 878 259 781 190 q 1047 426 975 328 q 1158 649 1118 525 q 1197 921 1197 774 q 1169 1059 1197 997 q 1089 1163 1142 1121 q 962 1228 1036 1206 q 794 1251 888 1251 l 581 1251 l 253 118 m 150 633 q 122 649 125 633 q 122 682 119 664 q 135 718 126 701 q 171 735 144 735 l 715 735 q 744 718 740 735 q 743 682 747 701 q 731 649 740 664 q 696 633 721 633 l 150 633 z "},"Ĳ":{"ha":1508,"x_min":97,"x_max":1635,"o":"m 158 -19 q 113 -10 128 -19 q 103 22 97 0 l 485 1356 q 508 1384 490 1375 q 556 1393 525 1393 q 601 1383 588 1393 q 608 1351 615 1374 l 228 19 q 206 -10 222 0 q 158 -19 190 -19 m 904 -26 q 757 6 831 -26 q 628 99 683 39 q 553 246 572 160 q 558 281 547 269 q 592 297 569 292 q 640 299 625 307 q 664 265 654 292 q 717 172 682 211 q 799 113 751 133 q 906 92 847 92 q 992 101 951 92 q 1067 132 1032 111 q 1131 189 1101 153 q 1185 277 1160 225 q 1231 400 1210 329 l 1507 1356 q 1531 1384 1513 1375 q 1578 1393 1549 1393 q 1622 1384 1608 1393 q 1628 1356 1635 1375 l 1351 394 q 1291 233 1325 303 q 1216 115 1257 164 q 1126 34 1175 65 q 1022 -12 1078 3 q 904 -26 967 -26 z "},"Ŋ":{"ha":1356,"x_min":92,"x_max":1463,"o":"m 1007 -178 q 949 -317 981 -269 q 878 -383 917 -365 q 792 -400 840 -400 q 702 -374 746 -400 q 625 -301 658 -347 q 611 -263 611 -281 q 636 -226 611 -246 q 675 -210 658 -210 q 706 -229 692 -211 q 739 -265 724 -250 q 769 -287 754 -281 q 800 -293 785 -293 q 839 -280 824 -293 q 866 -235 854 -267 q 893 -153 878 -204 l 943 21 l 556 1165 l 224 19 q 201 -10 218 0 q 153 -19 183 -19 q 103 19 92 -19 l 488 1356 q 511 1384 493 1375 q 558 1393 529 1393 q 597 1384 583 1393 q 618 1356 610 1375 l 1000 224 l 1328 1356 q 1352 1384 1335 1375 q 1399 1393 1369 1393 q 1449 1356 1463 1393 l 1007 -178 z "},"Œ":{"ha":1951,"x_min":203,"x_max":2172,"o":"m 653 -26 q 468 11 550 -26 q 326 118 386 49 q 235 285 267 188 q 203 504 203 383 q 224 708 203 604 q 288 912 246 813 q 390 1098 329 1011 q 531 1251 451 1185 q 708 1356 611 1318 q 921 1393 806 1393 q 1101 1354 1021 1393 q 1237 1244 1181 1315 q 1323 1077 1293 1174 q 1353 865 1353 981 q 1332 661 1353 765 q 1269 457 1311 557 q 1168 270 1228 357 q 1031 116 1108 183 q 858 11 953 49 q 653 -26 763 -26 m 675 92 q 841 123 765 92 q 981 210 917 154 q 1094 340 1044 267 q 1177 498 1143 413 q 1229 672 1211 583 q 1247 849 1247 761 q 1224 1031 1247 951 q 1158 1165 1201 1111 q 1051 1247 1114 1219 q 904 1275 988 1275 q 742 1244 818 1275 q 601 1156 665 1213 q 488 1025 538 1099 q 403 867 438 951 q 351 695 369 783 q 332 521 332 607 q 355 338 332 418 q 421 203 378 258 q 528 120 464 149 q 675 92 593 92 m 1110 0 q 1060 13 1075 0 q 1054 56 1046 25 l 1419 1332 q 1441 1360 1425 1350 q 1485 1369 1457 1369 l 2144 1369 q 2167 1356 2161 1369 q 2165 1314 2172 1343 q 2146 1272 2158 1286 q 2117 1258 2133 1258 l 1521 1258 l 1383 779 l 1879 779 q 1901 766 1894 779 q 1900 724 1907 753 q 1880 682 1893 696 q 1850 668 1867 668 l 1351 668 l 1193 111 l 1783 111 q 1806 98 1800 111 q 1806 56 1813 85 q 1785 15 1799 29 q 1757 0 1772 0 l 1110 0 z "},"Þ":{"ha":1104,"x_min":99,"x_max":1160,"o":"m 158 -19 q 113 -10 128 -19 q 104 22 99 0 l 489 1356 q 510 1384 494 1375 q 556 1393 525 1393 q 602 1383 588 1393 q 611 1351 617 1374 l 560 1179 l 742 1179 q 974 1147 881 1179 q 1113 1047 1067 1114 q 1160 876 1160 979 q 1117 674 1160 761 q 994 526 1074 588 q 805 427 914 465 q 565 371 696 389 q 442 360 506 364 q 322 357 379 357 l 226 19 q 205 -10 219 0 q 158 -19 190 -19 m 353 468 q 431 470 390 468 q 513 475 471 472 q 593 485 556 478 q 832 553 733 506 q 983 678 931 601 q 1035 863 1035 756 q 1001 981 1035 936 q 900 1047 968 1026 q 725 1068 832 1068 l 526 1068 l 353 468 z "},"ẞ":{"ha":1343,"x_min":89,"x_max":1256,"o":"m 731 -26 q 624 -17 676 -26 q 525 9 572 -8 q 438 51 478 26 q 410 81 415 65 q 418 124 404 96 q 446 156 431 149 q 486 150 461 163 q 563 118 525 131 q 645 99 601 106 q 740 92 689 92 q 869 111 808 92 q 975 167 929 131 q 1047 260 1021 204 q 1072 388 1074 315 q 1058 484 1072 439 q 1021 569 1044 529 q 969 645 997 608 q 910 715 940 682 q 850 783 879 749 q 798 853 821 817 q 762 928 775 889 q 749 1011 749 967 q 769 1116 749 1068 q 826 1202 789 1164 q 911 1267 864 1240 q 713 1194 793 1242 q 578 1082 632 1147 q 491 938 525 1017 q 432 771 457 858 l 215 19 q 194 -10 211 0 q 144 -19 176 -19 q 101 -10 114 -19 q 94 19 89 0 l 310 769 q 385 979 342 883 q 494 1151 429 1075 q 651 1282 558 1228 q 876 1365 744 1336 q 1189 1393 1008 1393 l 1225 1393 q 1251 1381 1246 1393 q 1246 1336 1256 1368 q 1226 1292 1239 1304 q 1192 1279 1213 1279 q 1070 1263 1128 1279 q 968 1215 1013 1246 q 898 1140 924 1185 q 874 1036 872 1094 q 889 962 875 997 q 926 894 903 926 q 979 828 950 861 q 1039 760 1008 796 q 1099 687 1069 725 q 1151 603 1128 649 q 1188 505 1174 558 q 1201 389 1201 451 q 1166 218 1201 294 q 1066 87 1131 142 q 915 3 1001 32 q 731 -26 829 -26 z "},"ŋ":{"ha":851,"x_min":29,"x_max":783,"o":"m 579 -151 q 523 -282 553 -239 q 458 -340 493 -325 q 378 -354 422 -354 q 298 -331 338 -354 q 231 -265 258 -307 q 216 -228 217 -244 q 240 -194 215 -212 q 279 -178 263 -178 q 310 -196 296 -179 q 351 -237 333 -225 q 388 -250 368 -250 q 430 -222 415 -250 q 465 -125 444 -194 l 644 481 q 657 544 654 515 q 646 592 660 574 q 594 610 632 610 q 492 570 547 610 q 381 458 438 531 q 269 286 324 386 q 168 68 215 186 l 156 15 q 137 -12 151 -3 q 90 -21 122 -21 q 48 -11 67 -21 q 38 24 29 -1 l 224 672 q 245 707 232 699 q 285 715 258 715 q 339 703 326 715 q 343 663 351 690 l 279 444 q 363 564 319 513 q 453 651 407 615 q 544 703 499 686 q 636 721 590 721 q 735 691 700 721 q 777 602 771 661 q 757 453 783 543 l 579 -151 z "},"$":{"ha":1028,"x_min":51,"x_max":1104,"o":"m 469 -26 q 339 -9 400 -26 q 226 38 278 8 q 134 106 175 68 q 63 186 93 144 q 58 217 51 203 q 79 246 65 232 q 113 265 99 261 q 143 254 128 269 q 228 176 179 213 q 338 115 276 139 q 469 92 399 92 q 608 110 544 92 q 719 165 672 129 q 792 253 767 200 q 818 374 818 306 q 803 457 818 419 q 761 527 789 494 q 692 588 733 560 q 597 644 651 617 q 504 699 549 671 q 423 760 460 728 q 359 833 386 793 q 317 922 332 872 q 303 1032 303 971 q 333 1178 303 1111 q 422 1292 364 1244 q 559 1367 479 1340 q 736 1393 639 1393 q 878 1371 815 1393 q 994 1312 942 1349 q 1090 1231 1047 1275 q 1101 1201 1104 1217 q 1081 1168 1099 1185 q 1048 1150 1064 1153 q 1017 1158 1032 1147 q 942 1215 981 1189 q 854 1258 903 1242 q 736 1275 806 1275 q 614 1260 669 1275 q 518 1214 558 1244 q 455 1138 478 1183 q 432 1032 432 1092 q 444 944 432 982 q 485 874 457 906 q 556 813 513 842 q 661 751 600 783 q 778 681 726 718 q 868 598 831 643 q 926 498 906 553 q 946 375 946 443 q 910 213 946 286 q 810 85 875 139 q 659 3 746 32 q 469 -26 572 -26 m 344 -208 q 299 -169 288 -208 l 799 1558 q 865 1596 810 1596 q 910 1558 921 1596 l 410 -169 q 344 -208 399 -208 z "},"€":{"ha":1183,"x_min":94,"x_max":1304,"o":"m 628 -26 q 458 13 531 -26 q 335 121 385 51 q 259 283 285 190 q 233 483 233 376 q 257 689 233 583 q 325 897 281 794 q 433 1088 369 999 q 578 1247 497 1178 q 756 1354 660 1315 q 960 1393 851 1393 q 1094 1373 1032 1393 q 1206 1313 1156 1353 q 1293 1214 1257 1274 q 1301 1185 1304 1199 q 1275 1157 1297 1172 q 1239 1144 1254 1143 q 1210 1160 1224 1144 q 1136 1224 1175 1197 q 1051 1263 1097 1250 q 949 1276 1006 1276 q 786 1242 863 1276 q 644 1146 710 1207 q 526 1006 578 1085 q 437 838 474 926 q 380 660 400 750 q 360 486 360 569 q 378 322 360 396 q 431 197 396 249 q 519 118 467 146 q 639 90 572 90 q 740 104 690 90 q 838 144 790 118 q 931 204 886 169 q 1017 281 975 239 q 1049 297 1035 297 q 1081 281 1064 296 q 1103 251 1100 267 q 1090 217 1106 235 q 941 79 1019 133 q 783 -1 863 25 q 628 -26 704 -26 m 186 750 q 160 762 165 750 q 163 804 154 774 q 185 847 174 836 q 217 858 196 858 l 1003 858 q 1030 847 1024 858 q 1025 804 1036 836 q 1005 762 1017 774 q 972 750 993 750 l 186 750 m 125 533 q 99 544 104 533 q 103 586 94 556 q 124 629 113 618 q 157 640 136 640 l 943 640 q 969 629 964 640 q 965 586 975 618 q 944 544 957 556 q 911 533 932 533 l 125 533 z "},"¢":{"ha":810,"x_min":92,"x_max":818,"o":"m 361 -26 q 210 12 271 -26 q 121 117 150 50 q 92 269 92 185 q 111 424 92 346 q 169 572 131 501 q 263 695 207 642 q 390 781 318 749 q 549 813 463 813 q 646 799 600 813 q 730 761 692 786 q 799 699 768 736 q 813 658 818 675 q 790 625 807 642 q 753 610 771 610 q 718 629 736 610 q 669 667 696 651 q 610 692 643 683 q 538 701 578 701 q 428 676 478 701 q 338 608 378 651 q 272 510 299 565 q 230 395 244 456 q 215 276 215 335 q 233 175 215 218 q 287 109 251 132 q 375 85 322 86 q 470 106 425 85 q 558 163 515 126 q 642 243 600 199 q 679 258 660 263 q 713 239 699 253 q 732 207 729 224 q 718 171 735 190 q 598 54 658 97 q 478 -8 538 11 q 361 -26 419 -26 m 272 -208 q 228 -169 217 -208 l 560 975 q 625 1013 571 1013 q 671 975 682 1013 l 339 -169 q 272 -208 328 -208 z "},"£":{"ha":1031,"x_min":-33,"x_max":1188,"o":"m -3 0 q -30 15 -26 0 q -24 60 -33 31 q -2 101 -14 92 q 29 111 10 111 l 218 111 l 342 538 l 185 538 q 158 550 163 538 q 163 592 153 563 q 184 634 172 624 q 217 644 196 644 l 372 644 l 500 1081 q 577 1251 531 1182 q 692 1357 624 1321 q 856 1393 760 1393 q 1033 1356 947 1393 q 1172 1261 1118 1318 q 1187 1226 1188 1244 q 1164 1188 1186 1208 q 1124 1169 1142 1168 q 1086 1188 1107 1169 q 969 1256 1033 1232 q 850 1281 904 1281 q 703 1228 757 1281 q 618 1071 650 1176 l 493 644 l 818 644 q 844 634 839 644 q 840 592 849 624 q 819 549 832 561 q 786 538 807 538 l 463 538 l 339 111 l 904 111 q 930 100 924 111 q 928 60 936 89 q 907 15 918 29 q 872 0 896 0 l -3 0 z "},"¥":{"ha":1024,"x_min":129,"x_max":1275,"o":"m 403 -19 q 353 19 342 -19 l 444 338 l 158 338 q 133 349 138 338 q 138 392 129 361 q 158 435 146 424 q 190 446 169 446 l 476 446 l 508 556 l 218 556 q 192 567 197 556 q 196 610 188 579 q 218 653 206 642 q 251 664 231 664 l 504 664 l 324 1329 q 332 1373 318 1356 q 381 1392 346 1390 q 424 1382 413 1393 q 442 1346 436 1371 l 611 729 l 1128 1350 q 1165 1383 1147 1374 q 1215 1392 1182 1393 q 1263 1369 1250 1390 q 1251 1321 1275 1347 l 700 664 l 960 664 q 985 653 981 664 q 981 610 990 642 q 960 567 974 579 q 926 556 947 556 l 632 556 l 601 446 l 900 446 q 926 435 921 446 q 922 392 931 424 q 901 349 914 361 q 868 338 889 338 l 569 338 l 478 19 q 403 -19 467 -19 z "},"%":{"ha":1258,"x_min":93,"x_max":1340,"o":"m 460 793 q 340 824 390 793 q 264 906 290 854 q 238 1022 238 958 q 252 1123 238 1071 q 294 1223 267 1175 q 359 1310 321 1271 q 446 1371 397 1349 q 553 1393 494 1393 q 673 1364 624 1393 q 749 1285 722 1335 q 775 1171 775 1236 q 760 1072 775 1124 q 719 970 746 1019 q 655 881 693 921 q 567 817 617 840 q 460 793 518 793 m 471 899 q 534 915 506 899 q 585 958 563 931 q 623 1021 607 986 q 647 1092 639 1056 q 656 1163 656 1129 q 625 1258 656 1228 q 544 1288 594 1288 q 478 1271 508 1288 q 426 1226 449 1254 q 388 1165 403 1199 q 364 1095 372 1131 q 356 1028 356 1060 q 387 931 356 964 q 471 899 418 899 m 183 -12 q 154 -28 169 -28 q 118 -12 139 -29 q 94 18 96 6 q 107 47 93 31 l 1250 1379 q 1279 1395 1265 1394 q 1314 1379 1293 1396 q 1338 1350 1336 1363 q 1326 1321 1340 1338 l 183 -12 m 897 -26 q 778 4 828 -26 q 701 87 728 35 q 675 203 675 139 q 690 303 675 251 q 731 403 704 356 q 797 490 758 451 q 885 551 836 529 q 990 574 933 574 q 1110 545 1061 574 q 1186 467 1160 517 q 1213 353 1213 417 q 1199 253 1213 306 q 1158 151 1185 200 q 1092 63 1131 103 q 1005 -2 1054 22 q 897 -26 956 -26 m 910 81 q 972 97 943 81 q 1023 140 1000 113 q 1062 202 1046 168 q 1085 273 1078 236 q 1093 343 1093 310 q 1063 438 1093 408 q 983 468 1032 468 q 917 451 946 468 q 864 408 888 435 q 825 347 840 381 q 801 276 810 313 q 793 208 793 240 q 825 113 793 144 q 910 81 857 81 z "},".":{"ha":435,"x_min":43,"x_max":218,"o":"m 122 -47 q 63 -27 82 -47 q 43 28 43 -7 q 66 106 43 79 q 135 133 89 133 q 198 114 178 133 q 218 60 218 94 q 194 -19 218 8 q 122 -47 171 -47 z "},",":{"ha":435,"x_min":-53,"x_max":206,"o":"m -7 -278 q -37 -264 -21 -278 q -53 -236 -53 -250 q -51 -222 -53 -229 q -43 -207 -49 -215 q 19 -112 -4 -156 q 55 -26 43 -69 q 68 64 67 17 q 88 107 69 90 q 140 124 106 124 q 190 108 174 124 q 206 68 206 93 q 183 -46 206 15 q 122 -163 161 -107 q 33 -260 83 -219 q 13 -274 24 -269 q -7 -278 3 -278 z "},":":{"ha":435,"x_min":43,"x_max":383,"o":"m 122 -47 q 63 -27 82 -47 q 43 28 43 -7 q 66 106 43 79 q 135 133 89 133 q 198 114 178 133 q 218 60 218 94 q 194 -19 218 8 q 122 -47 171 -47 m 288 558 q 228 578 247 558 q 208 633 208 599 q 231 712 208 685 q 300 739 254 739 q 363 719 343 739 q 383 665 383 700 q 360 586 383 614 q 288 558 336 558 z "},";":{"ha":435,"x_min":-37,"x_max":383,"o":"m 288 558 q 228 578 247 558 q 208 633 208 599 q 231 712 208 685 q 300 739 254 739 q 363 719 343 739 q 383 665 383 700 q 360 586 383 614 q 288 558 336 558 m 10 -278 q -20 -264 -4 -278 q -36 -236 -36 -250 q -34 -222 -36 -229 q -26 -207 -32 -215 q 36 -112 13 -156 q 72 -26 60 -69 q 85 64 83 17 q 104 107 86 90 q 157 124 122 124 q 206 108 190 124 q 222 68 222 93 q 200 -46 222 15 q 139 -163 178 -107 q 50 -260 100 -219 q 30 -274 40 -269 q 10 -278 19 -278 z "},"…":{"ha":1178,"x_min":43,"x_max":961,"o":"m 494 -47 q 435 -27 454 -47 q 415 28 415 -7 q 438 106 415 79 q 507 133 461 133 q 570 114 550 133 q 590 60 590 94 q 567 -19 590 8 q 494 -47 543 -47 m 865 -47 q 806 -27 825 -47 q 786 28 786 -7 q 809 106 786 79 q 878 133 832 133 q 941 114 921 133 q 961 60 961 94 q 938 -19 961 8 q 865 -47 914 -47 m 122 -47 q 63 -27 82 -47 q 43 28 43 -7 q 66 106 43 79 q 135 133 89 133 q 198 114 178 133 q 218 60 218 94 q 194 -19 218 8 q 122 -47 171 -47 z "},"!":{"ha":532,"x_min":108,"x_max":618,"o":"m 256 300 q 206 339 193 300 l 486 1356 q 509 1384 492 1375 q 557 1393 526 1393 q 607 1356 618 1393 l 326 339 q 303 310 322 319 q 256 300 285 300 m 178 -19 q 129 -1 149 -19 q 110 54 110 18 q 133 125 108 93 q 207 157 157 157 q 255 138 236 157 q 275 83 274 119 q 253 13 276 44 q 178 -19 229 -19 z "},"¡":{"ha":532,"x_min":-74,"x_max":438,"o":"m 290 396 q 340 357 351 396 l 60 -660 q 36 -687 54 -678 q -12 -697 18 -697 q -62 -660 -74 -697 l 218 357 q 242 386 225 376 q 290 396 260 396 m 367 715 q 416 697 396 715 q 436 642 436 678 q 414 571 438 603 q 339 539 390 539 q 290 558 310 539 q 271 613 271 578 q 293 683 269 651 q 367 715 317 715 z "},"?":{"ha":769,"x_min":140,"x_max":958,"o":"m 276 299 q 234 308 247 299 q 226 338 221 318 l 319 656 q 340 683 325 674 q 378 694 356 692 q 589 754 501 711 q 730 857 676 797 q 808 981 783 917 q 833 1100 833 1044 q 810 1197 833 1157 q 742 1260 786 1238 q 633 1282 697 1282 q 523 1263 576 1282 q 422 1216 469 1244 q 333 1156 375 1188 q 302 1151 319 1146 q 272 1176 285 1157 q 258 1213 258 1199 q 274 1240 257 1228 q 396 1325 335 1292 q 517 1376 457 1358 q 635 1393 578 1393 q 813 1355 740 1393 q 922 1250 885 1317 q 958 1100 958 1183 q 923 935 958 1015 q 819 787 888 856 q 651 667 750 718 q 421 589 551 615 l 349 338 q 325 308 343 318 q 276 299 307 299 m 208 -19 q 160 -1 179 -19 q 140 54 140 18 q 164 125 140 93 q 238 157 188 157 q 286 138 267 157 q 306 83 306 119 q 283 13 306 44 q 208 -19 260 -19 z "},"¿":{"ha":769,"x_min":-194,"x_max":624,"o":"m 488 397 q 530 388 517 397 q 538 358 543 378 l 444 40 q 424 14 439 22 q 386 1 410 6 q 175 -58 263 -14 q 34 -161 88 -101 q -44 -285 -19 -221 q -69 -404 -69 -349 q -46 -501 -69 -460 q 23 -564 -22 -542 q 131 -586 68 -586 q 242 -567 189 -586 q 342 -519 294 -549 q 431 -460 389 -490 q 463 -455 446 -449 q 492 -481 481 -461 q 506 -517 506 -501 q 490 -544 507 -532 q 369 -628 431 -594 q 248 -680 308 -662 q 129 -697 188 -697 q -49 -659 24 -697 q -158 -554 -121 -621 q -194 -404 -194 -487 q -159 -240 -194 -319 q -55 -91 -124 -160 q 113 29 14 -22 q 343 107 213 81 l 415 358 q 439 388 421 378 q 488 397 457 397 m 556 715 q 604 697 585 715 q 624 642 624 678 q 601 571 624 603 q 526 539 578 539 q 478 558 499 539 q 458 613 458 578 q 482 683 458 651 q 556 715 506 715 z "},"'":{"ha":235,"x_min":263,"x_max":471,"o":"m 297 979 q 265 992 267 979 q 267 1022 263 1006 l 335 1329 q 357 1368 339 1351 q 411 1385 375 1385 q 460 1368 449 1385 q 464 1329 471 1351 l 354 1022 q 335 992 347 1006 q 297 979 322 979 z "},"\"":{"ha":467,"x_min":263,"x_max":703,"o":"m 297 979 q 265 992 267 979 q 267 1022 263 1006 l 335 1329 q 357 1368 339 1351 q 411 1385 375 1385 q 460 1368 449 1385 q 464 1329 471 1351 l 354 1022 q 335 992 347 1006 q 297 979 322 979 m 529 979 q 497 992 499 979 q 499 1022 494 1006 l 567 1329 q 589 1368 571 1351 q 643 1385 607 1385 q 692 1368 681 1385 q 696 1329 703 1351 l 586 1022 q 567 992 579 1006 q 529 979 554 979 z "},"‘":{"ha":297,"x_min":271,"x_max":525,"o":"m 338 982 q 288 998 304 982 q 271 1038 271 1014 q 283 1121 271 1076 q 318 1211 296 1165 q 370 1297 340 1257 q 438 1367 400 1338 q 458 1380 447 1375 q 478 1385 468 1385 q 509 1372 493 1385 q 525 1343 525 1358 q 522 1330 525 1338 q 514 1314 519 1322 q 453 1219 476 1263 q 421 1135 431 1176 q 410 1042 411 1093 q 390 999 408 1015 q 338 982 371 982 z "},"’":{"ha":297,"x_min":251,"x_max":504,"o":"m 439 1385 q 488 1369 472 1385 q 504 1329 504 1353 q 492 1246 504 1290 q 458 1156 481 1201 q 406 1069 436 1110 q 339 999 375 1029 q 318 986 328 990 q 299 982 308 982 q 268 996 285 982 q 251 1024 251 1010 q 254 1037 251 1031 q 263 1051 257 1043 q 323 1147 301 1104 q 355 1231 344 1189 q 367 1325 365 1274 q 387 1368 368 1351 q 439 1385 406 1385 z "},"‚":{"ha":307,"x_min":-104,"x_max":154,"o":"m -58 -278 q -88 -264 -72 -278 q -104 -236 -104 -250 q -102 -222 -104 -229 q -94 -207 -100 -215 q -32 -112 -56 -156 q 3 -26 -8 -69 q 17 64 15 17 q 36 107 18 90 q 89 124 54 124 q 138 108 122 124 q 154 68 154 93 q 132 -46 154 15 q 71 -163 110 -107 q -18 -260 32 -219 q -38 -274 -28 -269 q -58 -278 -49 -278 z "},"“":{"ha":546,"x_min":271,"x_max":774,"o":"m 338 982 q 288 998 304 982 q 271 1038 271 1014 q 283 1121 271 1076 q 318 1211 296 1165 q 370 1297 340 1257 q 438 1367 400 1338 q 458 1380 447 1375 q 478 1385 468 1385 q 509 1372 493 1385 q 525 1343 525 1358 q 522 1330 525 1338 q 514 1314 519 1322 q 453 1219 476 1263 q 421 1135 431 1176 q 410 1042 411 1093 q 390 999 408 1015 q 338 982 371 982 m 586 982 q 536 998 553 982 q 519 1038 519 1014 q 532 1121 519 1076 q 567 1211 544 1165 q 619 1297 589 1257 q 686 1367 649 1338 q 706 1380 696 1375 q 726 1385 717 1385 q 758 1372 742 1385 q 774 1343 774 1358 q 771 1330 774 1338 q 763 1314 768 1322 q 702 1219 725 1263 q 669 1135 679 1176 q 658 1042 660 1093 q 638 999 657 1015 q 586 982 619 982 z "},"”":{"ha":546,"x_min":251,"x_max":753,"o":"m 688 1385 q 737 1369 721 1385 q 753 1329 753 1353 q 741 1246 753 1290 q 707 1156 729 1201 q 654 1069 685 1110 q 588 999 624 1029 q 567 986 576 990 q 547 982 557 982 q 517 996 533 982 q 500 1024 500 1010 q 503 1037 500 1031 q 511 1051 506 1043 q 572 1147 550 1104 q 603 1231 593 1189 q 615 1325 614 1274 q 635 1368 617 1351 q 688 1385 654 1385 m 439 1385 q 488 1369 472 1385 q 504 1329 504 1353 q 492 1246 504 1290 q 458 1156 481 1201 q 406 1069 436 1110 q 339 999 375 1029 q 318 986 328 990 q 299 982 308 982 q 268 996 285 982 q 251 1024 251 1010 q 254 1037 251 1031 q 263 1051 257 1043 q 323 1147 301 1104 q 355 1231 344 1189 q 367 1325 365 1274 q 387 1368 368 1351 q 439 1385 406 1385 z "},"„":{"ha":554,"x_min":-104,"x_max":401,"o":"m 189 -278 q 159 -264 175 -278 q 143 -236 143 -250 q 145 -222 143 -229 q 153 -207 147 -215 q 215 -112 192 -156 q 251 -26 239 -69 q 264 64 263 17 q 283 107 265 90 q 336 124 301 124 q 385 108 369 124 q 401 68 401 93 q 379 -46 401 15 q 318 -163 357 -107 q 229 -260 279 -219 q 209 -274 219 -269 q 189 -278 199 -278 m -58 -278 q -88 -264 -72 -278 q -104 -236 -104 -250 q -102 -222 -104 -229 q -94 -207 -100 -215 q -32 -112 -56 -156 q 3 -26 -8 -69 q 17 64 15 17 q 36 107 18 90 q 89 124 54 124 q 138 108 122 124 q 154 68 154 93 q 132 -46 154 15 q 71 -163 110 -107 q -18 -260 32 -219 q -38 -274 -28 -269 q -58 -278 -49 -278 z "},"«":{"ha":1007,"x_min":129,"x_max":982,"o":"m 353 -19 q 316 -11 332 -19 q 289 19 300 -3 l 147 297 q 133 326 138 315 q 129 343 129 336 q 141 365 129 353 q 179 401 153 378 l 479 678 q 524 707 504 699 q 564 715 543 715 q 608 703 590 715 q 631 675 626 692 q 615 640 635 658 l 271 325 l 407 56 q 406 3 422 25 q 353 -19 390 -19 m 700 -19 q 663 -11 679 -19 q 636 19 647 -3 l 494 297 q 481 326 485 315 q 476 343 476 336 q 488 365 476 353 q 526 401 500 378 l 826 678 q 871 707 851 699 q 911 715 890 715 q 956 703 938 715 q 978 675 974 692 q 963 640 982 658 l 618 325 l 754 56 q 753 3 769 25 q 700 -19 738 -19 z "},"»":{"ha":1007,"x_min":26,"x_max":879,"o":"m 96 -21 q 52 -9 71 -21 q 30 20 33 3 q 46 54 26 38 l 388 371 l 253 639 q 253 692 238 671 q 307 714 269 714 q 344 706 328 714 q 371 675 361 699 l 513 397 q 527 369 522 379 q 532 353 532 360 q 520 330 532 343 q 481 293 508 317 l 181 18 q 137 -12 157 -3 q 96 -21 117 -21 m 443 -21 q 399 -9 418 -21 q 377 20 381 3 q 393 54 374 38 l 735 371 l 600 639 q 601 692 585 671 q 654 714 617 714 q 692 706 675 714 q 718 675 708 699 l 860 397 q 874 369 869 379 q 879 353 879 360 q 867 330 879 343 q 828 293 856 317 l 528 18 q 484 -12 504 -3 q 443 -21 464 -21 z "},"‹":{"ha":660,"x_min":129,"x_max":635,"o":"m 353 -19 q 316 -11 332 -19 q 289 19 300 -3 l 147 297 q 133 326 138 315 q 129 343 129 336 q 141 365 129 353 q 179 401 153 378 l 479 678 q 524 707 504 699 q 564 715 543 715 q 608 703 590 715 q 631 675 626 692 q 615 640 635 658 l 271 325 l 407 56 q 406 3 422 25 q 353 -19 390 -19 z "},"›":{"ha":660,"x_min":26,"x_max":532,"o":"m 96 -21 q 52 -9 71 -21 q 30 20 33 3 q 46 54 26 38 l 388 371 l 253 639 q 253 692 238 671 q 307 714 269 714 q 344 706 328 714 q 371 675 361 699 l 513 397 q 527 369 522 379 q 532 353 532 360 q 520 330 532 343 q 481 293 508 317 l 181 18 q 137 -12 157 -3 q 96 -21 117 -21 z "},"Á":{"ha":1146,"x_min":-68,"x_max":1061,"o":"m -10 -19 q -57 1 -46 -19 q -49 53 -68 22 l 758 1338 q 799 1381 779 1369 q 853 1393 818 1393 q 895 1380 879 1393 q 913 1324 911 1367 l 1019 43 q 1008 -2 1024 15 q 956 -19 992 -19 q 915 -8 925 -19 q 901 32 904 4 l 874 388 l 299 388 l 79 36 q 41 -10 56 0 q -10 -19 26 -19 m 371 499 l 864 499 l 806 1199 l 371 499 m 783 1453 q 749 1472 768 1453 q 731 1504 731 1490 q 732 1515 731 1510 q 743 1529 733 1521 l 958 1731 q 972 1742 967 1738 q 986 1746 978 1746 q 1017 1733 1000 1746 q 1048 1704 1035 1721 q 1061 1672 1061 1688 q 1058 1656 1061 1663 q 1040 1638 1056 1649 l 810 1467 q 795 1457 801 1461 q 783 1453 789 1453 z "},"Ă":{"ha":1146,"x_min":-68,"x_max":1157,"o":"m -10 -19 q -57 1 -46 -19 q -49 53 -68 22 l 758 1338 q 799 1381 779 1369 q 853 1393 818 1393 q 895 1380 879 1393 q 913 1324 911 1367 l 1019 43 q 1008 -2 1024 15 q 956 -19 992 -19 q 915 -8 925 -19 q 901 32 904 4 l 874 388 l 299 388 l 79 36 q 41 -10 56 0 q -10 -19 26 -19 m 371 499 l 864 499 l 806 1199 l 371 499 m 856 1451 q 699 1514 753 1451 q 656 1703 644 1576 q 670 1733 657 1724 q 704 1742 683 1742 q 738 1731 725 1742 q 751 1703 750 1721 q 786 1603 751 1635 q 874 1572 821 1572 q 984 1608 939 1572 q 1053 1700 1029 1644 q 1076 1733 1064 1725 q 1107 1742 1088 1742 q 1145 1729 1132 1742 q 1151 1696 1158 1717 q 1083 1549 1122 1603 q 989 1474 1044 1496 q 856 1451 933 1451 z "},"Ǎ":{"ha":1146,"x_min":-68,"x_max":1154,"o":"m -10 -19 q -57 1 -46 -19 q -49 53 -68 22 l 758 1338 q 799 1381 779 1369 q 853 1393 818 1393 q 895 1380 879 1393 q 913 1324 911 1367 l 1019 43 q 1008 -2 1024 15 q 956 -19 992 -19 q 915 -8 925 -19 q 901 32 904 4 l 874 388 l 299 388 l 79 36 q 41 -10 56 0 q -10 -19 26 -19 m 371 499 l 864 499 l 806 1199 l 371 499 m 1113 1742 q 1142 1725 1128 1742 q 1156 1693 1156 1708 q 1151 1674 1156 1681 q 1140 1661 1147 1668 l 918 1485 q 881 1460 899 1468 q 840 1453 864 1453 q 808 1463 822 1453 q 782 1489 793 1472 l 646 1671 q 638 1689 639 1682 q 638 1701 638 1696 q 658 1730 638 1718 q 690 1742 678 1742 q 711 1735 704 1742 q 726 1721 718 1729 l 864 1594 l 1072 1722 q 1090 1735 1081 1728 q 1113 1742 1100 1742 z "},"Â":{"ha":1146,"x_min":-68,"x_max":1122,"o":"m -10 -19 q -57 1 -46 -19 q -49 53 -68 22 l 758 1338 q 799 1381 779 1369 q 853 1393 818 1393 q 895 1380 879 1393 q 913 1324 911 1367 l 1019 43 q 1008 -2 1024 15 q 956 -19 992 -19 q 915 -8 925 -19 q 901 32 904 4 l 874 388 l 299 388 l 79 36 q 41 -10 56 0 q -10 -19 26 -19 m 371 499 l 864 499 l 806 1199 l 371 499 m 646 1453 q 618 1469 631 1453 q 606 1501 606 1486 q 610 1521 606 1514 q 619 1533 614 1528 l 842 1711 q 879 1735 861 1728 q 919 1742 897 1742 q 953 1733 939 1742 q 979 1707 967 1724 l 1114 1525 q 1122 1508 1121 1515 q 1124 1494 1124 1500 q 1106 1465 1124 1478 q 1075 1453 1088 1453 q 1051 1459 1061 1453 q 1032 1475 1042 1465 l 897 1601 l 688 1468 q 667 1458 678 1463 q 646 1453 657 1453 z "},"Ä":{"ha":1146,"x_min":-68,"x_max":1132,"o":"m -10 -19 q -57 1 -46 -19 q -49 53 -68 22 l 758 1338 q 799 1381 779 1369 q 853 1393 818 1393 q 895 1380 879 1393 q 913 1324 911 1367 l 1019 43 q 1008 -2 1024 15 q 956 -19 992 -19 q 915 -8 925 -19 q 901 32 904 4 l 874 388 l 299 388 l 79 36 q 41 -10 56 0 q -10 -19 26 -19 m 371 499 l 864 499 l 806 1199 l 371 499 m 692 1500 q 642 1518 661 1500 q 622 1574 622 1536 q 647 1643 622 1611 q 721 1675 671 1675 q 769 1657 750 1675 q 789 1603 789 1639 q 766 1531 789 1563 q 692 1500 743 1500 m 1033 1500 q 984 1518 1004 1500 q 964 1574 964 1536 q 988 1643 964 1611 q 1063 1675 1013 1675 q 1112 1657 1092 1675 q 1132 1603 1132 1639 q 1108 1531 1132 1563 q 1033 1500 1083 1500 z "},"Ǽ":{"ha":1472,"x_min":-67,"x_max":1693,"o":"m 1276 0 l 707 0 q 659 13 674 0 q 653 56 644 25 l 817 629 l 526 629 l 58 3 q 25 -19 46 -15 q -24 -17 4 -24 q -58 9 -50 -8 q -53 46 -67 26 l 906 1325 q 940 1359 922 1349 q 983 1369 957 1369 l 1665 1369 q 1688 1356 1682 1369 q 1688 1314 1693 1343 q 1666 1272 1679 1286 q 1638 1258 1653 1258 l 1121 1258 l 972 740 l 1389 740 q 1411 727 1406 740 q 1410 685 1417 714 q 1390 643 1404 657 q 1361 629 1376 629 l 940 629 l 793 111 l 1306 111 q 1327 98 1321 111 q 1325 56 1333 85 q 1306 15 1319 29 q 1276 0 1293 0 m 608 740 l 850 740 l 999 1265 l 608 740 m 1269 1453 q 1235 1472 1254 1453 q 1217 1504 1217 1490 q 1218 1515 1217 1510 q 1229 1529 1219 1521 l 1444 1731 q 1458 1742 1453 1738 q 1472 1746 1464 1746 q 1503 1733 1486 1746 q 1534 1704 1521 1721 q 1547 1672 1547 1688 q 1544 1656 1547 1663 q 1526 1638 1542 1649 l 1296 1467 q 1281 1457 1288 1461 q 1269 1453 1275 1453 z "},"À":{"ha":1146,"x_min":-68,"x_max":1024,"o":"m -10 -19 q -57 1 -46 -19 q -49 53 -68 22 l 758 1338 q 799 1381 779 1369 q 853 1393 818 1393 q 895 1380 879 1393 q 913 1324 911 1367 l 1019 43 q 1008 -2 1024 15 q 956 -19 992 -19 q 915 -8 925 -19 q 901 32 904 4 l 874 388 l 299 388 l 79 36 q 41 -10 56 0 q -10 -19 26 -19 m 371 499 l 864 499 l 806 1199 l 371 499 m 924 1453 q 911 1457 918 1453 q 897 1467 904 1461 l 697 1639 q 680 1657 683 1650 q 676 1674 676 1664 q 690 1704 676 1688 q 722 1733 704 1721 q 753 1746 739 1746 q 767 1742 761 1746 q 781 1731 774 1738 l 964 1528 q 975 1513 974 1518 q 976 1504 976 1508 q 958 1472 976 1490 q 924 1453 939 1453 z "},"Ā":{"ha":1146,"x_min":-68,"x_max":1117,"o":"m -10 -19 q -57 1 -46 -19 q -49 53 -68 22 l 758 1338 q 799 1381 779 1369 q 853 1393 818 1393 q 895 1380 879 1393 q 913 1324 911 1367 l 1019 43 q 1008 -2 1024 15 q 956 -19 992 -19 q 915 -8 925 -19 q 901 32 904 4 l 874 388 l 299 388 l 79 36 q 41 -10 56 0 q -10 -19 26 -19 m 371 499 l 864 499 l 806 1199 l 371 499 m 683 1539 q 651 1555 657 1539 q 650 1596 644 1571 q 669 1642 657 1626 q 706 1657 681 1657 l 1078 1657 q 1112 1640 1106 1657 q 1111 1596 1118 1622 q 1094 1553 1106 1567 q 1057 1539 1082 1539 l 683 1539 z "},"Ą":{"ha":1146,"x_min":-68,"x_max":1024,"o":"m -10 -19 q -57 1 -46 -19 q -49 53 -68 22 l 758 1338 q 799 1381 779 1369 q 853 1393 818 1393 q 895 1380 879 1393 q 913 1324 911 1367 l 1019 43 q 1008 -2 1024 15 q 956 -19 992 -19 q 915 -8 925 -19 q 901 32 904 4 l 874 388 l 299 388 l 79 36 q 41 -10 56 0 q -10 -19 26 -19 m 371 499 l 864 499 l 806 1199 l 371 499 m 750 -357 q 686 -335 710 -357 q 663 -274 663 -312 q 681 -204 663 -239 q 733 -133 699 -169 q 817 -57 767 -96 q 931 28 868 -18 l 1014 25 l 1014 18 q 924 -57 965 -21 q 853 -125 883 -93 q 807 -182 824 -157 q 790 -226 790 -207 q 797 -245 790 -239 q 815 -251 804 -251 q 864 -234 839 -251 q 924 -185 889 -217 q 947 -175 932 -178 q 976 -187 961 -172 q 992 -212 989 -199 q 986 -239 994 -226 q 919 -301 960 -274 q 834 -342 878 -328 q 750 -357 790 -357 z "},"Å":{"ha":1146,"x_min":-68,"x_max":1083,"o":"m -10 -19 q -57 1 -46 -19 q -49 53 -68 22 l 758 1338 q 799 1381 779 1369 q 853 1393 818 1393 q 895 1380 879 1393 q 913 1324 911 1367 l 1019 43 q 1008 -2 1024 15 q 956 -19 992 -19 q 915 -8 925 -19 q 901 32 904 4 l 874 388 l 299 388 l 79 36 q 41 -10 56 0 q -10 -19 26 -19 m 371 499 l 864 499 l 806 1199 l 371 499 m 863 1442 q 768 1460 807 1442 q 709 1513 729 1479 q 689 1593 689 1547 q 718 1688 689 1646 q 797 1756 747 1731 q 906 1781 846 1781 q 1002 1762 963 1781 q 1063 1709 1042 1743 q 1083 1628 1083 1675 q 1054 1532 1083 1574 q 975 1466 1025 1490 q 863 1442 925 1442 m 868 1525 q 949 1554 917 1525 q 982 1625 982 1583 q 962 1677 982 1658 q 901 1696 942 1696 q 823 1667 856 1696 q 790 1597 790 1638 q 811 1544 790 1564 q 868 1525 832 1525 z "},"Ã":{"ha":1146,"x_min":-68,"x_max":1147,"o":"m -10 -19 q -57 1 -46 -19 q -49 53 -68 22 l 758 1338 q 799 1381 779 1369 q 853 1393 818 1393 q 895 1380 879 1393 q 913 1324 911 1367 l 1019 43 q 1008 -2 1024 15 q 956 -19 992 -19 q 915 -8 925 -19 q 901 32 904 4 l 874 388 l 299 388 l 79 36 q 41 -10 56 0 q -10 -19 26 -19 m 371 499 l 864 499 l 806 1199 l 371 499 m 660 1494 q 618 1532 617 1494 q 655 1666 622 1624 q 747 1708 688 1708 q 826 1694 789 1708 q 898 1659 864 1679 q 960 1624 932 1639 q 1010 1610 989 1610 q 1033 1625 1021 1610 q 1050 1674 1044 1640 q 1106 1710 1053 1710 q 1138 1701 1128 1710 q 1146 1672 1147 1692 q 1109 1539 1140 1582 q 1014 1496 1078 1496 q 933 1510 971 1496 q 864 1544 896 1525 q 804 1578 832 1564 q 753 1593 776 1593 q 726 1578 736 1593 q 711 1531 715 1563 q 696 1503 710 1513 q 660 1494 682 1494 z "},"Ắ":{"ha":1146,"x_min":-68,"x_max":1157,"o":"m -10 -19 q -57 1 -46 -19 q -49 53 -68 22 l 758 1338 q 799 1381 779 1369 q 853 1393 818 1393 q 895 1380 879 1393 q 913 1324 911 1367 l 1019 43 q 1008 -2 1024 15 q 956 -19 992 -19 q 915 -8 925 -19 q 901 32 904 4 l 874 388 l 299 388 l 79 36 q 41 -10 56 0 q -10 -19 26 -19 m 371 499 l 864 499 l 806 1199 l 371 499 m 856 1451 q 699 1514 753 1451 q 656 1703 644 1576 q 670 1733 657 1724 q 704 1742 683 1742 q 738 1731 725 1742 q 751 1703 750 1721 q 786 1603 751 1635 q 874 1572 821 1572 q 984 1608 939 1572 q 1053 1700 1029 1644 q 1076 1733 1064 1725 q 1108 1742 1088 1742 q 1145 1729 1132 1742 q 1151 1696 1158 1717 q 1083 1549 1122 1603 q 989 1474 1044 1496 q 856 1451 933 1451 m 844 1724 q 810 1742 829 1724 q 792 1775 792 1761 q 793 1786 792 1781 q 804 1800 794 1792 l 1019 2000 q 1033 2011 1028 2007 q 1047 2015 1039 2015 q 1078 2003 1061 2015 q 1109 1974 1096 1990 q 1122 1943 1122 1957 q 1119 1926 1122 1933 q 1101 1908 1117 1919 l 871 1736 q 856 1727 863 1731 q 844 1724 850 1724 z "},"Ặ":{"ha":1146,"x_min":-68,"x_max":1157,"o":"m -10 -19 q -57 1 -46 -19 q -49 53 -68 22 l 758 1338 q 799 1381 779 1369 q 853 1393 818 1393 q 895 1380 879 1393 q 913 1324 911 1367 l 1019 43 q 1008 -2 1024 15 q 956 -19 992 -19 q 915 -8 925 -19 q 901 32 904 4 l 874 388 l 299 388 l 79 36 q 41 -10 56 0 q -10 -19 26 -19 m 371 499 l 864 499 l 806 1199 l 371 499 m 389 -322 q 340 -304 360 -322 q 321 -250 321 -286 q 344 -179 321 -211 q 418 -147 368 -147 q 468 -166 449 -147 q 488 -221 488 -185 q 463 -291 488 -260 q 389 -322 439 -322 m 856 1451 q 699 1514 753 1451 q 656 1703 644 1576 q 670 1733 657 1724 q 704 1742 683 1742 q 738 1731 725 1742 q 751 1703 750 1721 q 786 1603 751 1635 q 874 1572 821 1572 q 984 1608 939 1572 q 1053 1700 1029 1644 q 1076 1733 1064 1725 q 1107 1742 1088 1742 q 1145 1729 1132 1742 q 1151 1696 1158 1717 q 1083 1549 1122 1603 q 989 1474 1044 1496 q 856 1451 933 1451 z "},"Ằ":{"ha":1146,"x_min":-68,"x_max":1157,"o":"m -10 -19 q -57 1 -46 -19 q -49 53 -68 22 l 758 1338 q 799 1381 779 1369 q 853 1393 818 1393 q 895 1380 879 1393 q 913 1324 911 1367 l 1019 43 q 1008 -2 1024 15 q 956 -19 992 -19 q 915 -8 925 -19 q 901 32 904 4 l 874 388 l 299 388 l 79 36 q 41 -10 56 0 q -10 -19 26 -19 m 371 499 l 864 499 l 806 1199 l 371 499 m 856 1451 q 699 1514 753 1451 q 656 1703 644 1576 q 670 1733 657 1724 q 704 1742 683 1742 q 738 1731 725 1742 q 751 1703 750 1721 q 786 1603 751 1635 q 874 1572 821 1572 q 984 1608 939 1572 q 1053 1700 1029 1644 q 1076 1733 1064 1725 q 1107 1742 1088 1742 q 1145 1729 1132 1742 q 1151 1696 1158 1717 q 1083 1549 1122 1603 q 989 1474 1044 1496 q 856 1451 933 1451 m 972 1719 q 960 1723 967 1719 q 946 1732 954 1726 l 747 1906 q 730 1924 733 1917 q 726 1940 726 1931 q 740 1971 726 1954 q 771 1999 753 1988 q 803 2011 789 2011 q 816 2007 810 2011 q 829 1996 822 2003 l 1014 1794 q 1024 1780 1022 1785 q 1025 1769 1025 1775 q 1006 1738 1025 1756 q 972 1719 988 1719 z "},"Ẳ":{"ha":1146,"x_min":-68,"x_max":1157,"o":"m -10 -19 q -57 1 -46 -19 q -49 53 -68 22 l 758 1338 q 799 1381 779 1369 q 853 1393 818 1393 q 895 1380 879 1393 q 913 1324 911 1367 l 1019 43 q 1008 -2 1024 15 q 956 -19 992 -19 q 915 -8 925 -19 q 901 32 904 4 l 874 388 l 299 388 l 79 36 q 41 -10 56 0 q -10 -19 26 -19 m 371 499 l 864 499 l 806 1199 l 371 499 m 856 1451 q 699 1514 753 1451 q 656 1703 644 1576 q 670 1733 657 1724 q 704 1742 683 1742 q 738 1731 725 1742 q 751 1703 750 1721 q 786 1603 751 1635 q 874 1572 821 1572 q 984 1608 939 1572 q 1053 1700 1029 1644 q 1076 1733 1064 1725 q 1107 1742 1088 1742 q 1145 1729 1132 1742 q 1151 1696 1158 1717 q 1083 1549 1122 1603 q 989 1474 1044 1496 q 856 1451 933 1451 m 951 2029 q 1051 2001 1015 2029 q 1086 1924 1086 1972 q 1066 1853 1086 1885 q 1004 1793 1046 1822 q 972 1766 982 1778 q 961 1739 963 1754 l 957 1719 q 940 1693 956 1701 q 907 1685 925 1685 q 875 1694 889 1685 q 860 1719 861 1703 l 857 1750 q 866 1807 853 1783 q 906 1850 879 1831 q 940 1881 929 1867 q 951 1904 951 1894 q 942 1922 951 1915 q 917 1928 933 1928 q 884 1923 903 1928 q 843 1911 865 1918 q 788 1936 807 1893 q 810 1996 772 1976 q 876 2020 842 2011 q 951 2029 911 2029 z "},"Ẵ":{"ha":1146,"x_min":-68,"x_max":1200,"o":"m -10 -19 q -57 1 -46 -19 q -49 53 -68 22 l 758 1338 q 799 1381 779 1369 q 853 1393 818 1393 q 895 1380 879 1393 q 913 1324 911 1367 l 1019 43 q 1008 -2 1024 15 q 956 -19 992 -19 q 915 -8 925 -19 q 901 32 904 4 l 874 388 l 299 388 l 79 36 q 41 -10 56 0 q -10 -19 26 -19 m 371 499 l 864 499 l 806 1199 l 371 499 m 856 1451 q 699 1514 753 1451 q 656 1703 644 1576 q 670 1733 657 1724 q 704 1742 683 1742 q 738 1731 725 1742 q 751 1703 750 1721 q 786 1603 751 1635 q 874 1572 821 1572 q 984 1608 939 1572 q 1053 1700 1029 1644 q 1076 1733 1064 1725 q 1107 1742 1088 1742 q 1145 1729 1132 1742 q 1151 1696 1158 1717 q 1083 1549 1122 1603 q 989 1474 1044 1496 q 856 1451 933 1451 m 714 1783 q 671 1822 669 1783 q 709 1955 676 1913 q 801 1997 742 1997 q 880 1983 842 1997 q 951 1948 918 1968 q 1013 1913 985 1928 q 1063 1899 1042 1899 q 1086 1914 1075 1899 q 1103 1964 1097 1929 q 1158 1999 1107 1999 q 1191 1990 1182 1999 q 1199 1963 1200 1981 q 1163 1828 1193 1872 q 1067 1785 1132 1785 q 987 1799 1024 1785 q 917 1833 950 1814 q 858 1867 885 1853 q 806 1882 831 1882 q 778 1867 789 1882 q 765 1819 768 1851 q 749 1792 763 1801 q 714 1783 736 1783 z "},"Ấ":{"ha":1146,"x_min":-68,"x_max":1361,"o":"m -10 -19 q -57 1 -46 -19 q -49 53 -68 22 l 758 1338 q 799 1381 779 1369 q 853 1393 818 1393 q 895 1380 879 1393 q 913 1324 911 1367 l 1019 43 q 1008 -2 1024 15 q 956 -19 992 -19 q 915 -8 925 -19 q 901 32 904 4 l 874 388 l 299 388 l 79 36 q 41 -10 56 0 q -10 -19 26 -19 m 371 499 l 864 499 l 806 1199 l 371 499 m 646 1453 q 618 1469 631 1453 q 606 1501 606 1486 q 610 1521 606 1514 q 619 1533 614 1528 l 842 1711 q 879 1735 861 1728 q 919 1742 897 1742 q 953 1733 939 1742 q 979 1707 967 1724 l 1114 1525 q 1122 1508 1121 1515 q 1124 1494 1124 1500 q 1106 1465 1124 1478 q 1075 1453 1088 1453 q 1051 1459 1061 1453 q 1032 1475 1042 1465 l 897 1601 l 688 1468 q 667 1458 678 1463 q 646 1453 657 1453 m 1118 1669 q 1084 1688 1103 1669 q 1065 1721 1065 1707 q 1067 1731 1065 1726 q 1078 1746 1068 1736 l 1258 1924 q 1272 1935 1267 1931 q 1288 1939 1278 1939 q 1319 1927 1301 1939 q 1349 1898 1336 1915 q 1361 1865 1361 1881 q 1358 1849 1361 1856 q 1340 1831 1356 1842 l 1144 1683 q 1130 1673 1136 1676 q 1118 1669 1124 1669 z "},"Ậ":{"ha":1146,"x_min":-68,"x_max":1122,"o":"m -10 -19 q -57 1 -46 -19 q -49 53 -68 22 l 758 1338 q 799 1381 779 1369 q 853 1393 818 1393 q 895 1380 879 1393 q 913 1324 911 1367 l 1019 43 q 1008 -2 1024 15 q 956 -19 992 -19 q 915 -8 925 -19 q 901 32 904 4 l 874 388 l 299 388 l 79 36 q 41 -10 56 0 q -10 -19 26 -19 m 371 499 l 864 499 l 806 1199 l 371 499 m 389 -322 q 340 -304 360 -322 q 321 -250 321 -286 q 344 -179 321 -211 q 418 -147 368 -147 q 468 -166 449 -147 q 488 -221 488 -185 q 463 -291 488 -260 q 389 -322 439 -322 m 646 1453 q 618 1469 631 1453 q 606 1501 606 1486 q 610 1521 606 1514 q 619 1533 614 1528 l 842 1711 q 879 1735 861 1728 q 919 1742 897 1742 q 953 1733 939 1742 q 979 1707 967 1724 l 1114 1525 q 1122 1508 1121 1515 q 1124 1494 1124 1500 q 1106 1465 1124 1478 q 1075 1453 1088 1453 q 1051 1459 1061 1453 q 1032 1475 1042 1465 l 897 1601 l 688 1468 q 667 1458 678 1463 q 646 1453 657 1453 z "},"Ầ":{"ha":1146,"x_min":-68,"x_max":1251,"o":"m -10 -19 q -57 1 -46 -19 q -49 53 -68 22 l 758 1338 q 799 1381 779 1369 q 853 1393 818 1393 q 895 1380 879 1393 q 913 1324 911 1367 l 1019 43 q 1008 -2 1024 15 q 956 -19 992 -19 q 915 -8 925 -19 q 901 32 904 4 l 874 388 l 299 388 l 79 36 q 41 -10 56 0 q -10 -19 26 -19 m 371 499 l 864 499 l 806 1199 l 371 499 m 646 1453 q 618 1469 631 1453 q 606 1501 606 1486 q 610 1521 606 1514 q 619 1533 614 1528 l 842 1711 q 879 1735 861 1728 q 919 1742 897 1742 q 953 1733 939 1742 q 979 1707 967 1724 l 1114 1525 q 1122 1508 1121 1515 q 1124 1494 1124 1500 q 1106 1465 1124 1478 q 1075 1453 1088 1453 q 1051 1459 1061 1453 q 1032 1475 1042 1465 l 897 1601 l 688 1468 q 667 1458 678 1463 q 646 1453 657 1453 m 1197 1646 q 1185 1649 1192 1646 q 1172 1660 1179 1653 l 997 1849 q 981 1868 986 1861 q 976 1885 976 1875 q 990 1917 976 1900 q 1022 1944 1003 1933 q 1057 1954 1042 1954 q 1073 1950 1065 1954 q 1086 1939 1081 1946 l 1240 1725 q 1249 1708 1247 1713 q 1251 1697 1251 1703 q 1233 1664 1251 1682 q 1197 1646 1215 1646 z "},"Ẩ":{"ha":1146,"x_min":-68,"x_max":1319,"o":"m -10 -19 q -57 1 -46 -19 q -49 53 -68 22 l 758 1338 q 799 1381 779 1369 q 853 1393 818 1393 q 895 1380 879 1393 q 913 1324 911 1367 l 1019 43 q 1008 -2 1024 15 q 956 -19 992 -19 q 915 -8 925 -19 q 901 32 904 4 l 874 388 l 299 388 l 79 36 q 41 -10 56 0 q -10 -19 26 -19 m 371 499 l 864 499 l 806 1199 l 371 499 m 646 1453 q 618 1469 631 1453 q 606 1501 606 1486 q 610 1521 606 1514 q 619 1533 614 1528 l 842 1711 q 879 1735 861 1728 q 919 1742 897 1742 q 953 1733 939 1742 q 979 1707 967 1724 l 1114 1525 q 1122 1508 1121 1515 q 1124 1494 1124 1500 q 1106 1465 1124 1478 q 1075 1453 1088 1453 q 1051 1459 1061 1453 q 1032 1475 1042 1465 l 897 1601 l 688 1468 q 667 1458 678 1463 q 646 1453 657 1453 m 1186 1978 q 1285 1949 1250 1978 q 1321 1872 1321 1921 q 1301 1802 1321 1833 q 1239 1742 1281 1771 q 1208 1715 1217 1726 q 1196 1688 1199 1703 l 1193 1668 q 1176 1642 1190 1650 q 1143 1633 1161 1633 q 1110 1642 1125 1633 q 1094 1668 1096 1651 l 1092 1699 q 1101 1756 1088 1732 q 1140 1799 1114 1779 q 1175 1829 1164 1815 q 1186 1853 1186 1843 q 1178 1870 1186 1864 q 1151 1876 1169 1876 q 1119 1872 1138 1876 q 1078 1860 1100 1867 q 1022 1885 1042 1842 q 1044 1944 1007 1925 q 1111 1969 1076 1960 q 1186 1978 1146 1978 z "},"Ẫ":{"ha":1146,"x_min":-68,"x_max":1204,"o":"m -10 -19 q -57 1 -46 -19 q -49 53 -68 22 l 758 1338 q 799 1381 779 1369 q 853 1393 818 1393 q 895 1380 879 1393 q 913 1324 911 1367 l 1019 43 q 1008 -2 1024 15 q 956 -19 992 -19 q 915 -8 925 -19 q 901 32 904 4 l 874 388 l 299 388 l 79 36 q 41 -10 56 0 q -10 -19 26 -19 m 371 499 l 864 499 l 806 1199 l 371 499 m 646 1453 q 618 1469 631 1453 q 606 1501 606 1486 q 610 1521 606 1514 q 619 1533 614 1528 l 842 1711 q 879 1735 861 1728 q 919 1742 897 1742 q 953 1733 939 1742 q 979 1707 967 1724 l 1114 1525 q 1122 1508 1121 1515 q 1124 1494 1124 1500 q 1106 1465 1124 1478 q 1075 1453 1088 1453 q 1051 1459 1061 1453 q 1032 1475 1042 1465 l 897 1601 l 688 1468 q 667 1458 678 1463 q 646 1453 657 1453 m 719 1763 q 676 1800 675 1763 q 715 1934 682 1892 q 807 1976 747 1976 q 885 1962 847 1976 q 956 1927 922 1947 q 1019 1892 990 1907 q 1068 1878 1047 1878 q 1091 1892 1079 1878 q 1108 1942 1103 1907 q 1164 1978 1113 1978 q 1197 1969 1188 1978 q 1204 1940 1206 1960 q 1168 1807 1199 1850 q 1072 1764 1138 1764 q 992 1778 1029 1764 q 923 1813 956 1793 q 863 1846 890 1832 q 811 1860 836 1860 q 784 1845 794 1860 q 771 1799 774 1831 q 755 1772 768 1781 q 719 1763 742 1763 z "},"Ạ":{"ha":1146,"x_min":-68,"x_max":1024,"o":"m -10 -19 q -57 1 -46 -19 q -49 53 -68 22 l 758 1338 q 799 1381 779 1369 q 853 1393 818 1393 q 895 1380 879 1393 q 913 1324 911 1367 l 1019 43 q 1008 -2 1024 15 q 956 -19 992 -19 q 915 -8 925 -19 q 901 32 904 4 l 874 388 l 299 388 l 79 36 q 41 -10 56 0 q -10 -19 26 -19 m 371 499 l 864 499 l 806 1199 l 371 499 m 389 -322 q 340 -304 360 -322 q 321 -250 321 -286 q 344 -179 321 -211 q 418 -147 368 -147 q 468 -166 449 -147 q 488 -221 488 -185 q 463 -291 488 -260 q 389 -322 439 -322 z "},"Ả":{"ha":1146,"x_min":-68,"x_max":1042,"o":"m -10 -19 q -57 1 -46 -19 q -49 53 -68 22 l 758 1338 q 799 1381 779 1369 q 853 1393 818 1393 q 895 1380 879 1393 q 913 1324 911 1367 l 1019 43 q 1008 -2 1024 15 q 956 -19 992 -19 q 915 -8 925 -19 q 901 32 904 4 l 874 388 l 299 388 l 79 36 q 41 -10 56 0 q -10 -19 26 -19 m 371 499 l 864 499 l 806 1199 l 371 499 m 907 1783 q 1005 1755 969 1783 q 1040 1678 1040 1726 q 1021 1608 1040 1639 q 958 1547 1001 1576 q 928 1520 938 1532 q 917 1493 918 1508 l 913 1474 q 896 1447 911 1456 q 863 1439 881 1439 q 831 1448 844 1439 q 814 1474 817 1457 l 811 1504 q 821 1561 808 1538 q 861 1604 833 1585 q 895 1635 883 1621 q 907 1658 907 1649 q 898 1676 907 1669 q 872 1682 889 1682 q 839 1677 857 1682 q 799 1665 821 1672 q 742 1689 763 1647 q 764 1750 726 1731 q 832 1774 797 1765 q 907 1783 867 1783 z "},"Ć":{"ha":1185,"x_min":194,"x_max":1339,"o":"m 639 -26 q 453 8 535 -26 q 313 109 371 43 q 224 271 254 175 q 194 488 194 367 q 217 685 194 582 q 282 890 239 789 q 390 1082 325 992 q 539 1242 454 1172 q 730 1353 624 1313 q 961 1393 836 1393 q 1115 1375 1046 1393 q 1237 1319 1183 1357 q 1328 1226 1290 1282 q 1333 1199 1339 1210 q 1308 1172 1326 1188 q 1276 1156 1290 1158 q 1244 1169 1263 1153 q 1167 1228 1210 1204 q 1071 1263 1125 1251 q 943 1275 1017 1275 q 769 1242 850 1275 q 619 1151 688 1210 q 496 1017 550 1092 q 403 855 442 942 q 345 679 365 768 q 325 506 325 590 q 345 325 325 403 q 406 195 365 247 q 510 117 447 143 q 657 92 572 92 q 769 111 715 92 q 873 166 822 131 q 973 250 924 201 q 1072 357 1022 299 q 1103 367 1088 374 q 1135 346 1119 361 q 1156 315 1154 328 q 1143 281 1158 301 q 967 98 1056 165 q 794 2 878 31 q 639 -26 711 -26 m 915 1453 q 881 1472 900 1453 q 863 1504 863 1490 q 864 1515 863 1510 q 875 1529 865 1521 l 1090 1731 q 1104 1742 1099 1738 q 1118 1746 1110 1746 q 1149 1733 1132 1746 q 1180 1704 1167 1721 q 1193 1672 1193 1688 q 1190 1656 1193 1663 q 1172 1638 1188 1649 l 942 1467 q 927 1457 933 1461 q 915 1453 921 1453 z "},"Č":{"ha":1185,"x_min":194,"x_max":1339,"o":"m 639 -26 q 453 8 535 -26 q 313 109 371 43 q 224 271 254 175 q 194 488 194 367 q 217 685 194 582 q 282 890 239 789 q 390 1082 325 992 q 539 1242 454 1172 q 730 1353 624 1313 q 961 1393 836 1393 q 1115 1375 1046 1393 q 1237 1319 1183 1357 q 1328 1226 1290 1282 q 1333 1199 1339 1210 q 1308 1172 1326 1188 q 1276 1156 1290 1158 q 1244 1169 1263 1153 q 1167 1228 1210 1204 q 1071 1263 1125 1251 q 943 1275 1017 1275 q 769 1242 850 1275 q 619 1151 688 1210 q 496 1017 550 1092 q 403 855 442 942 q 345 679 365 768 q 325 506 325 590 q 345 325 325 403 q 406 195 365 247 q 510 117 447 143 q 657 92 572 92 q 769 111 715 92 q 873 166 822 131 q 973 250 924 201 q 1072 357 1022 299 q 1103 367 1088 374 q 1135 346 1119 361 q 1156 315 1154 328 q 1143 281 1158 301 q 967 98 1056 165 q 794 2 878 31 q 639 -26 711 -26 m 1244 1742 q 1274 1725 1260 1742 q 1288 1693 1288 1708 q 1283 1674 1288 1681 q 1272 1661 1279 1668 l 1050 1485 q 1013 1460 1031 1468 q 972 1453 996 1453 q 940 1463 954 1453 q 914 1489 925 1472 l 778 1671 q 770 1689 771 1682 q 769 1701 769 1696 q 790 1730 769 1718 q 822 1742 810 1742 q 843 1735 836 1742 q 858 1721 850 1729 l 996 1594 l 1204 1722 q 1222 1735 1213 1728 q 1244 1742 1232 1742 z "},"Ç":{"ha":1185,"x_min":194,"x_max":1339,"o":"m 639 -26 q 453 8 535 -26 q 313 109 371 43 q 224 271 254 175 q 194 488 194 367 q 217 685 194 582 q 282 890 239 789 q 390 1082 325 992 q 539 1242 454 1172 q 730 1353 624 1313 q 961 1393 836 1393 q 1115 1375 1046 1393 q 1237 1319 1183 1357 q 1328 1226 1290 1282 q 1333 1199 1339 1210 q 1308 1172 1326 1188 q 1276 1156 1290 1158 q 1244 1169 1263 1153 q 1167 1228 1210 1204 q 1071 1263 1125 1251 q 943 1275 1017 1275 q 769 1242 850 1275 q 619 1151 688 1210 q 496 1017 550 1092 q 403 855 442 942 q 345 679 365 768 q 325 506 325 590 q 345 325 325 403 q 406 195 365 247 q 510 117 447 143 q 657 92 572 92 q 769 111 715 92 q 873 166 822 131 q 973 250 924 201 q 1072 357 1022 299 q 1103 367 1088 374 q 1135 346 1119 361 q 1156 315 1154 328 q 1143 281 1158 301 q 967 98 1056 165 q 794 2 878 31 q 639 -26 711 -26 m 493 -374 q 403 -363 444 -374 q 336 -335 361 -353 q 326 -306 325 -324 q 333 -276 326 -289 q 356 -252 343 -258 q 382 -251 368 -246 q 426 -269 400 -260 q 494 -278 453 -278 q 549 -267 529 -278 q 568 -229 568 -257 q 542 -192 568 -200 q 475 -187 515 -183 q 453 -185 460 -189 q 440 -172 447 -181 q 437 -153 435 -162 q 446 -135 439 -144 l 543 18 l 635 18 l 532 -146 l 490 -124 q 596 -112 553 -104 q 663 -147 639 -119 q 686 -217 686 -175 q 660 -303 686 -268 q 590 -356 633 -337 q 493 -374 546 -374 z "},"Ĉ":{"ha":1185,"x_min":194,"x_max":1339,"o":"m 639 -26 q 453 8 535 -26 q 313 109 371 43 q 224 271 254 175 q 194 488 194 367 q 217 685 194 582 q 282 890 239 789 q 390 1082 325 992 q 539 1242 454 1172 q 730 1353 624 1313 q 961 1393 836 1393 q 1115 1375 1046 1393 q 1237 1319 1183 1357 q 1328 1226 1290 1282 q 1333 1199 1339 1210 q 1308 1172 1326 1188 q 1276 1156 1290 1158 q 1244 1169 1263 1153 q 1167 1228 1210 1204 q 1071 1263 1125 1251 q 943 1275 1017 1275 q 769 1242 850 1275 q 619 1151 688 1210 q 496 1017 550 1092 q 403 855 442 942 q 345 679 365 768 q 325 506 325 590 q 345 325 325 403 q 406 195 365 247 q 510 117 447 143 q 657 92 572 92 q 769 111 715 92 q 873 166 822 131 q 973 250 924 201 q 1072 357 1022 299 q 1103 367 1088 374 q 1135 346 1119 361 q 1156 315 1154 328 q 1143 281 1158 301 q 967 98 1056 165 q 794 2 878 31 q 639 -26 711 -26 m 778 1453 q 750 1469 763 1453 q 738 1501 738 1486 q 742 1521 738 1514 q 751 1533 746 1528 l 974 1711 q 1011 1735 993 1728 q 1051 1742 1029 1742 q 1085 1733 1071 1742 q 1111 1707 1099 1724 l 1246 1525 q 1254 1508 1253 1515 q 1256 1494 1256 1500 q 1238 1465 1256 1478 q 1207 1453 1219 1453 q 1183 1459 1193 1453 q 1164 1475 1174 1465 l 1029 1601 l 819 1468 q 799 1458 810 1463 q 778 1453 789 1453 z "},"Ċ":{"ha":1185,"x_min":194,"x_max":1339,"o":"m 639 -26 q 453 8 535 -26 q 313 109 371 43 q 224 271 254 175 q 194 488 194 367 q 217 685 194 582 q 282 890 239 789 q 390 1082 325 992 q 539 1242 454 1172 q 730 1353 624 1313 q 961 1393 836 1393 q 1115 1375 1046 1393 q 1237 1319 1183 1357 q 1328 1226 1290 1282 q 1333 1199 1339 1210 q 1308 1172 1326 1188 q 1276 1156 1290 1158 q 1244 1169 1263 1153 q 1167 1228 1210 1204 q 1071 1263 1125 1251 q 943 1275 1017 1275 q 769 1242 850 1275 q 619 1151 688 1210 q 496 1017 550 1092 q 403 855 442 942 q 345 679 365 768 q 325 506 325 590 q 345 325 325 403 q 406 195 365 247 q 510 117 447 143 q 657 92 572 92 q 769 111 715 92 q 873 166 822 131 q 973 250 924 201 q 1072 357 1022 299 q 1103 367 1088 374 q 1135 346 1119 361 q 1156 315 1154 328 q 1143 281 1158 301 q 967 98 1056 165 q 794 2 878 31 q 639 -26 711 -26 m 996 1500 q 946 1518 965 1500 q 926 1574 926 1536 q 951 1643 926 1611 q 1025 1675 976 1675 q 1074 1657 1054 1675 q 1093 1601 1093 1639 q 1070 1531 1093 1563 q 996 1500 1047 1500 z "},"Ď":{"ha":1328,"x_min":96,"x_max":1335,"o":"m 158 0 q 108 39 96 0 l 482 1332 q 506 1360 488 1351 q 553 1369 524 1369 l 796 1369 q 1033 1335 932 1369 q 1201 1239 1133 1300 q 1301 1097 1268 1178 q 1335 921 1335 1015 q 1290 619 1335 760 q 1162 364 1244 478 q 966 169 1079 250 q 715 44 853 88 q 426 0 578 0 l 158 0 m 253 118 l 426 118 q 666 154 551 118 q 878 259 781 190 q 1047 426 975 328 q 1158 649 1118 525 q 1197 921 1197 774 q 1169 1059 1197 997 q 1089 1163 1142 1121 q 962 1228 1036 1206 q 794 1251 888 1251 l 581 1251 l 253 118 m 1189 1742 q 1218 1725 1204 1742 q 1232 1693 1232 1708 q 1228 1674 1232 1681 q 1217 1661 1224 1668 l 994 1485 q 958 1460 975 1468 q 917 1453 940 1453 q 884 1463 899 1453 q 858 1489 869 1472 l 722 1671 q 715 1689 715 1682 q 714 1701 714 1696 q 734 1730 714 1718 q 767 1742 754 1742 q 788 1735 781 1742 q 803 1721 794 1729 l 940 1594 l 1149 1722 q 1167 1735 1157 1728 q 1189 1742 1176 1742 z "},"Đ":{"ha":1314,"x_min":96,"x_max":1335,"o":"m 158 0 q 108 39 96 0 l 482 1332 q 506 1360 488 1351 q 553 1369 524 1369 l 796 1369 q 1033 1335 932 1369 q 1201 1239 1133 1300 q 1301 1097 1268 1178 q 1335 921 1335 1015 q 1290 619 1335 760 q 1162 364 1244 478 q 966 169 1079 250 q 715 44 853 88 q 426 0 578 0 l 158 0 m 253 118 l 426 118 q 666 154 551 118 q 878 259 781 190 q 1047 426 975 328 q 1158 649 1118 525 q 1197 921 1197 774 q 1169 1059 1197 997 q 1089 1163 1142 1121 q 962 1228 1036 1206 q 794 1251 888 1251 l 581 1251 l 253 118 m 150 633 q 122 649 125 633 q 122 682 119 664 q 135 718 126 701 q 171 735 144 735 l 715 735 q 744 718 740 735 q 743 682 747 701 q 731 649 740 664 q 696 633 721 633 l 150 633 z "},"É":{"ha":1013,"x_min":107,"x_max":1233,"o":"m 169 0 q 122 13 136 0 q 115 56 107 25 l 481 1332 q 501 1360 486 1350 q 546 1369 517 1369 l 1206 1369 q 1228 1356 1222 1369 q 1226 1314 1233 1343 q 1206 1272 1219 1286 q 1178 1258 1193 1258 l 582 1258 l 444 779 l 939 779 q 961 766 956 779 q 961 724 967 753 q 941 682 954 696 q 911 668 928 668 l 413 668 l 254 111 l 844 111 q 867 98 860 111 q 865 56 874 85 q 847 15 860 29 q 817 0 833 0 l 169 0 m 811 1453 q 777 1472 796 1453 q 758 1504 758 1490 q 760 1515 758 1510 q 771 1529 761 1521 l 986 1731 q 1000 1742 994 1738 q 1014 1746 1006 1746 q 1045 1733 1028 1746 q 1076 1704 1063 1721 q 1089 1672 1089 1688 q 1086 1656 1089 1663 q 1068 1638 1083 1649 l 838 1467 q 823 1457 829 1461 q 811 1453 817 1453 z "},"Ĕ":{"ha":1013,"x_min":107,"x_max":1233,"o":"m 169 0 q 122 13 136 0 q 115 56 107 25 l 481 1332 q 501 1360 486 1350 q 546 1369 517 1369 l 1206 1369 q 1228 1356 1222 1369 q 1226 1314 1233 1343 q 1206 1272 1219 1286 q 1178 1258 1193 1258 l 582 1258 l 444 779 l 939 779 q 961 766 956 779 q 961 724 967 753 q 941 682 954 696 q 911 668 928 668 l 413 668 l 254 111 l 844 111 q 867 98 860 111 q 865 56 874 85 q 847 15 860 29 q 817 0 833 0 l 169 0 m 882 1451 q 725 1514 779 1451 q 682 1703 671 1576 q 697 1733 683 1724 q 731 1742 710 1742 q 764 1731 751 1742 q 778 1703 776 1721 q 813 1603 778 1635 q 900 1572 847 1572 q 1010 1608 965 1572 q 1079 1700 1056 1644 q 1102 1733 1090 1725 q 1133 1742 1114 1742 q 1172 1729 1158 1742 q 1178 1696 1185 1717 q 1110 1549 1149 1603 q 1015 1474 1071 1496 q 882 1451 960 1451 z "},"Ě":{"ha":1013,"x_min":107,"x_max":1233,"o":"m 169 0 q 122 13 136 0 q 115 56 107 25 l 481 1332 q 501 1360 486 1350 q 546 1369 517 1369 l 1206 1369 q 1228 1356 1222 1369 q 1226 1314 1233 1343 q 1206 1272 1219 1286 q 1178 1258 1193 1258 l 582 1258 l 444 779 l 939 779 q 961 766 956 779 q 961 724 967 753 q 941 682 954 696 q 911 668 928 668 l 413 668 l 254 111 l 844 111 q 867 98 860 111 q 865 56 874 85 q 847 15 860 29 q 817 0 833 0 l 169 0 m 1139 1742 q 1168 1725 1154 1742 q 1182 1693 1182 1708 q 1178 1674 1182 1681 q 1167 1661 1174 1668 l 944 1485 q 908 1460 925 1468 q 867 1453 890 1453 q 834 1463 849 1453 q 808 1489 819 1472 l 672 1671 q 665 1689 665 1682 q 664 1701 664 1696 q 684 1730 664 1718 q 717 1742 704 1742 q 738 1735 731 1742 q 753 1721 744 1729 l 890 1594 l 1099 1722 q 1117 1735 1107 1728 q 1139 1742 1126 1742 z "},"Ê":{"ha":1013,"x_min":107,"x_max":1233,"o":"m 169 0 q 122 13 136 0 q 115 56 107 25 l 481 1332 q 501 1360 486 1350 q 546 1369 517 1369 l 1206 1369 q 1228 1356 1222 1369 q 1226 1314 1233 1343 q 1206 1272 1219 1286 q 1178 1258 1193 1258 l 582 1258 l 444 779 l 939 779 q 961 766 956 779 q 961 724 967 753 q 941 682 954 696 q 911 668 928 668 l 413 668 l 254 111 l 844 111 q 867 98 860 111 q 865 56 874 85 q 847 15 860 29 q 817 0 833 0 l 169 0 m 672 1453 q 644 1469 657 1453 q 632 1501 632 1486 q 636 1521 632 1514 q 646 1533 640 1528 l 868 1711 q 906 1735 888 1728 q 946 1742 924 1742 q 979 1733 965 1742 q 1006 1707 993 1724 l 1140 1525 q 1149 1508 1147 1515 q 1150 1494 1150 1500 q 1132 1465 1150 1478 q 1101 1453 1114 1453 q 1078 1459 1088 1453 q 1058 1475 1068 1465 l 924 1601 l 714 1468 q 694 1458 704 1463 q 672 1453 683 1453 z "},"Ë":{"ha":1013,"x_min":107,"x_max":1233,"o":"m 169 0 q 122 13 136 0 q 115 56 107 25 l 481 1332 q 501 1360 486 1350 q 546 1369 517 1369 l 1206 1369 q 1228 1356 1222 1369 q 1226 1314 1233 1343 q 1206 1272 1219 1286 q 1178 1258 1193 1258 l 582 1258 l 444 779 l 939 779 q 961 766 956 779 q 961 724 967 753 q 941 682 954 696 q 911 668 928 668 l 413 668 l 254 111 l 844 111 q 867 98 860 111 q 865 56 874 85 q 847 15 860 29 q 817 0 833 0 l 169 0 m 719 1500 q 669 1518 689 1500 q 650 1574 650 1536 q 674 1643 650 1611 q 749 1675 699 1675 q 797 1657 778 1675 q 817 1603 817 1639 q 794 1531 817 1563 q 719 1500 771 1500 m 1061 1500 q 1012 1518 1032 1500 q 992 1574 992 1536 q 1016 1643 992 1611 q 1090 1675 1040 1675 q 1140 1657 1119 1675 q 1160 1603 1160 1639 q 1135 1531 1160 1563 q 1061 1500 1111 1500 z "},"Ė":{"ha":1013,"x_min":107,"x_max":1233,"o":"m 169 0 q 122 13 136 0 q 115 56 107 25 l 481 1332 q 501 1360 486 1350 q 546 1369 517 1369 l 1206 1369 q 1228 1356 1222 1369 q 1226 1314 1233 1343 q 1206 1272 1219 1286 q 1178 1258 1193 1258 l 582 1258 l 444 779 l 939 779 q 961 766 956 779 q 961 724 967 753 q 941 682 954 696 q 911 668 928 668 l 413 668 l 254 111 l 844 111 q 867 98 860 111 q 865 56 874 85 q 847 15 860 29 q 817 0 833 0 l 169 0 m 890 1500 q 840 1518 860 1500 q 821 1574 821 1536 q 846 1643 821 1611 q 919 1675 871 1675 q 968 1657 949 1675 q 988 1601 988 1639 q 965 1531 988 1563 q 890 1500 942 1500 z "},"È":{"ha":1013,"x_min":107,"x_max":1233,"o":"m 169 0 q 122 13 136 0 q 115 56 107 25 l 481 1332 q 501 1360 486 1350 q 546 1369 517 1369 l 1206 1369 q 1228 1356 1222 1369 q 1226 1314 1233 1343 q 1206 1272 1219 1286 q 1178 1258 1193 1258 l 582 1258 l 444 779 l 939 779 q 961 766 956 779 q 961 724 967 753 q 941 682 954 696 q 911 668 928 668 l 413 668 l 254 111 l 844 111 q 867 98 860 111 q 865 56 874 85 q 847 15 860 29 q 817 0 833 0 l 169 0 m 951 1453 q 939 1457 946 1453 q 925 1467 932 1461 l 725 1639 q 708 1657 711 1650 q 704 1674 704 1664 q 718 1704 704 1688 q 749 1733 732 1721 q 781 1746 767 1746 q 795 1742 789 1746 q 808 1731 801 1738 l 992 1528 q 1003 1513 1001 1518 q 1004 1504 1004 1508 q 985 1472 1004 1490 q 951 1453 967 1453 z "},"Ē":{"ha":1013,"x_min":107,"x_max":1233,"o":"m 169 0 q 122 13 136 0 q 115 56 107 25 l 481 1332 q 501 1360 486 1350 q 546 1369 517 1369 l 1206 1369 q 1228 1356 1222 1369 q 1226 1314 1233 1343 q 1206 1272 1219 1286 q 1178 1258 1193 1258 l 582 1258 l 444 779 l 939 779 q 961 766 956 779 q 961 724 967 753 q 941 682 954 696 q 911 668 928 668 l 413 668 l 254 111 l 844 111 q 867 98 860 111 q 865 56 874 85 q 847 15 860 29 q 817 0 833 0 l 169 0 m 710 1539 q 677 1555 683 1539 q 676 1596 671 1571 q 695 1642 683 1626 q 732 1657 707 1657 l 1104 1657 q 1138 1640 1132 1657 q 1138 1596 1144 1622 q 1120 1553 1132 1567 q 1083 1539 1108 1539 l 710 1539 z "},"Ę":{"ha":1013,"x_min":107,"x_max":1233,"o":"m 169 0 q 122 13 136 0 q 115 56 107 25 l 481 1332 q 501 1360 486 1350 q 546 1369 517 1369 l 1206 1369 q 1228 1356 1222 1369 q 1226 1314 1233 1343 q 1206 1272 1219 1286 q 1178 1258 1193 1258 l 582 1258 l 444 779 l 939 779 q 961 766 956 779 q 961 724 967 753 q 941 682 954 696 q 911 668 928 668 l 413 668 l 254 111 l 844 111 q 867 98 860 111 q 865 56 874 85 q 847 15 860 29 q 817 0 833 0 l 169 0 m 583 -350 q 519 -328 543 -350 q 496 -267 496 -306 q 514 -197 496 -232 q 566 -126 532 -162 q 651 -50 600 -89 q 764 35 701 -11 l 847 32 l 847 25 q 758 -50 799 -14 q 687 -118 717 -86 q 640 -175 657 -150 q 624 -219 624 -200 q 631 -238 624 -232 q 649 -244 638 -244 q 697 -227 672 -244 q 757 -178 722 -210 q 780 -168 765 -171 q 810 -181 794 -165 q 825 -206 822 -192 q 819 -232 828 -219 q 752 -294 793 -267 q 667 -335 711 -321 q 583 -350 624 -350 z "},"Ế":{"ha":1013,"x_min":107,"x_max":1389,"o":"m 169 0 q 122 13 136 0 q 115 56 107 25 l 481 1332 q 501 1360 486 1350 q 546 1369 517 1369 l 1206 1369 q 1228 1356 1222 1369 q 1226 1314 1233 1343 q 1206 1272 1219 1286 q 1178 1258 1193 1258 l 582 1258 l 444 779 l 939 779 q 961 766 956 779 q 961 724 967 753 q 941 682 954 696 q 911 668 928 668 l 413 668 l 254 111 l 844 111 q 867 98 860 111 q 865 56 874 85 q 847 15 860 29 q 817 0 833 0 l 169 0 m 672 1453 q 644 1469 657 1453 q 632 1501 632 1486 q 636 1521 632 1514 q 646 1533 640 1528 l 868 1711 q 906 1735 888 1728 q 946 1742 924 1742 q 979 1733 965 1742 q 1006 1707 993 1724 l 1140 1525 q 1149 1508 1147 1515 q 1150 1494 1150 1500 q 1132 1465 1150 1478 q 1101 1453 1114 1453 q 1078 1459 1088 1453 q 1058 1475 1068 1465 l 924 1601 l 714 1468 q 694 1458 704 1463 q 672 1453 683 1453 m 1144 1669 q 1110 1688 1129 1669 q 1092 1721 1092 1707 q 1093 1731 1092 1726 q 1104 1746 1094 1736 l 1285 1924 q 1299 1935 1293 1931 q 1314 1939 1304 1939 q 1345 1927 1328 1939 q 1375 1898 1363 1915 q 1388 1865 1388 1881 q 1385 1849 1388 1856 q 1367 1831 1382 1842 l 1171 1683 q 1156 1673 1163 1676 q 1144 1669 1150 1669 z "},"Ệ":{"ha":1013,"x_min":107,"x_max":1233,"o":"m 169 0 q 122 13 136 0 q 115 56 107 25 l 481 1332 q 501 1360 486 1350 q 546 1369 517 1369 l 1206 1369 q 1228 1356 1222 1369 q 1226 1314 1233 1343 q 1206 1272 1219 1286 q 1178 1258 1193 1258 l 582 1258 l 444 779 l 939 779 q 961 766 956 779 q 961 724 967 753 q 941 682 954 696 q 911 668 928 668 l 413 668 l 254 111 l 844 111 q 867 98 860 111 q 865 56 874 85 q 847 15 860 29 q 817 0 833 0 l 169 0 m 418 -322 q 369 -304 389 -322 q 350 -250 350 -286 q 374 -179 350 -211 q 447 -147 397 -147 q 497 -166 478 -147 q 517 -221 517 -185 q 492 -291 517 -260 q 418 -322 468 -322 m 672 1453 q 644 1469 657 1453 q 632 1501 632 1486 q 636 1521 632 1514 q 646 1533 640 1528 l 868 1711 q 906 1735 888 1728 q 946 1742 924 1742 q 979 1733 965 1742 q 1006 1707 993 1724 l 1140 1525 q 1149 1508 1147 1515 q 1150 1494 1150 1500 q 1132 1465 1150 1478 q 1101 1453 1114 1453 q 1078 1459 1088 1453 q 1058 1475 1068 1465 l 924 1601 l 714 1468 q 694 1458 704 1463 q 672 1453 683 1453 z "},"Ề":{"ha":1013,"x_min":107,"x_max":1279,"o":"m 169 0 q 122 13 136 0 q 115 56 107 25 l 481 1332 q 501 1360 486 1350 q 546 1369 517 1369 l 1206 1369 q 1228 1356 1222 1369 q 1226 1314 1233 1343 q 1206 1272 1219 1286 q 1178 1258 1193 1258 l 582 1258 l 444 779 l 939 779 q 961 766 956 779 q 961 724 967 753 q 941 682 954 696 q 911 668 928 668 l 413 668 l 254 111 l 844 111 q 867 98 860 111 q 865 56 874 85 q 847 15 860 29 q 817 0 833 0 l 169 0 m 672 1453 q 644 1469 657 1453 q 632 1501 632 1486 q 636 1521 632 1514 q 646 1533 640 1528 l 868 1711 q 906 1735 888 1728 q 946 1742 924 1742 q 979 1733 965 1742 q 1006 1707 993 1724 l 1140 1525 q 1149 1508 1147 1515 q 1150 1494 1150 1500 q 1132 1465 1150 1478 q 1101 1453 1114 1453 q 1078 1459 1088 1453 q 1058 1475 1068 1465 l 924 1601 l 714 1468 q 694 1458 704 1463 q 672 1453 683 1453 m 1224 1646 q 1212 1649 1218 1646 q 1199 1660 1206 1653 l 1024 1849 q 1008 1868 1013 1861 q 1003 1885 1003 1875 q 1016 1917 1003 1900 q 1049 1944 1029 1933 q 1083 1954 1068 1954 q 1099 1950 1092 1954 q 1113 1939 1107 1946 l 1267 1725 q 1276 1708 1274 1713 q 1278 1697 1278 1703 q 1260 1664 1278 1682 q 1224 1646 1242 1646 z "},"Ể":{"ha":1013,"x_min":107,"x_max":1347,"o":"m 169 0 q 122 13 136 0 q 115 56 107 25 l 481 1332 q 501 1360 486 1350 q 546 1369 517 1369 l 1206 1369 q 1228 1356 1222 1369 q 1226 1314 1233 1343 q 1206 1272 1219 1286 q 1178 1258 1193 1258 l 582 1258 l 444 779 l 939 779 q 961 766 956 779 q 961 724 967 753 q 941 682 954 696 q 911 668 928 668 l 413 668 l 254 111 l 844 111 q 867 98 860 111 q 865 56 874 85 q 847 15 860 29 q 817 0 833 0 l 169 0 m 672 1453 q 644 1469 657 1453 q 632 1501 632 1486 q 636 1521 632 1514 q 646 1533 640 1528 l 868 1711 q 906 1735 888 1728 q 946 1742 924 1742 q 979 1733 965 1742 q 1006 1707 993 1724 l 1140 1525 q 1149 1508 1147 1515 q 1150 1494 1150 1500 q 1132 1465 1150 1478 q 1101 1453 1114 1453 q 1078 1459 1088 1453 q 1058 1475 1068 1465 l 924 1601 l 714 1468 q 694 1458 704 1463 q 672 1453 683 1453 m 1213 1978 q 1312 1949 1276 1978 q 1347 1872 1347 1921 q 1327 1802 1347 1833 q 1265 1742 1307 1771 q 1234 1715 1243 1726 q 1222 1688 1225 1703 l 1219 1668 q 1202 1642 1217 1650 q 1169 1633 1188 1633 q 1137 1642 1151 1633 q 1121 1668 1122 1651 l 1118 1699 q 1127 1756 1114 1732 q 1167 1799 1140 1779 q 1201 1829 1190 1815 q 1213 1853 1213 1843 q 1204 1870 1213 1864 q 1178 1876 1196 1876 q 1145 1872 1164 1876 q 1104 1860 1126 1867 q 1049 1885 1068 1842 q 1071 1944 1033 1925 q 1138 1969 1103 1960 q 1213 1978 1172 1978 z "},"Ễ":{"ha":1013,"x_min":107,"x_max":1233,"o":"m 169 0 q 122 13 136 0 q 115 56 107 25 l 481 1332 q 501 1360 486 1350 q 546 1369 517 1369 l 1206 1369 q 1228 1356 1222 1369 q 1226 1314 1233 1343 q 1206 1272 1219 1286 q 1178 1258 1193 1258 l 582 1258 l 444 779 l 939 779 q 961 766 956 779 q 961 724 967 753 q 941 682 954 696 q 911 668 928 668 l 413 668 l 254 111 l 844 111 q 867 98 860 111 q 865 56 874 85 q 847 15 860 29 q 817 0 833 0 l 169 0 m 672 1453 q 644 1469 657 1453 q 632 1501 632 1486 q 636 1521 632 1514 q 646 1533 640 1528 l 868 1711 q 906 1735 888 1728 q 946 1742 924 1742 q 979 1733 965 1742 q 1006 1707 993 1724 l 1140 1525 q 1149 1508 1147 1515 q 1150 1494 1150 1500 q 1132 1465 1150 1478 q 1101 1453 1114 1453 q 1078 1459 1088 1453 q 1058 1475 1068 1465 l 924 1601 l 714 1468 q 694 1458 704 1463 q 672 1453 683 1453 m 746 1763 q 703 1800 701 1763 q 741 1934 708 1892 q 833 1976 774 1976 q 911 1962 874 1976 q 983 1927 949 1947 q 1045 1892 1017 1907 q 1094 1878 1074 1878 q 1117 1892 1106 1878 q 1135 1942 1129 1907 q 1190 1978 1139 1978 q 1223 1969 1214 1978 q 1231 1940 1232 1960 q 1194 1807 1225 1850 q 1099 1764 1164 1764 q 1019 1778 1056 1764 q 949 1813 982 1793 q 890 1846 917 1832 q 838 1860 863 1860 q 810 1845 821 1860 q 797 1799 800 1831 q 781 1772 794 1781 q 746 1763 768 1763 z "},"Ẹ":{"ha":1013,"x_min":107,"x_max":1233,"o":"m 169 0 q 122 13 136 0 q 115 56 107 25 l 481 1332 q 501 1360 486 1350 q 546 1369 517 1369 l 1206 1369 q 1228 1356 1222 1369 q 1226 1314 1233 1343 q 1206 1272 1219 1286 q 1178 1258 1193 1258 l 582 1258 l 444 779 l 939 779 q 961 766 956 779 q 961 724 967 753 q 941 682 954 696 q 911 668 928 668 l 413 668 l 254 111 l 844 111 q 867 98 860 111 q 865 56 874 85 q 847 15 860 29 q 817 0 833 0 l 169 0 m 418 -322 q 369 -304 389 -322 q 350 -250 350 -286 q 374 -179 350 -211 q 447 -147 397 -147 q 497 -166 478 -147 q 517 -221 517 -185 q 492 -291 517 -260 q 418 -322 468 -322 z "},"Ẻ":{"ha":1013,"x_min":107,"x_max":1233,"o":"m 169 0 q 122 13 136 0 q 115 56 107 25 l 481 1332 q 501 1360 486 1350 q 546 1369 517 1369 l 1206 1369 q 1228 1356 1222 1369 q 1226 1314 1233 1343 q 1206 1272 1219 1286 q 1178 1258 1193 1258 l 582 1258 l 444 779 l 939 779 q 961 766 956 779 q 961 724 967 753 q 941 682 954 696 q 911 668 928 668 l 413 668 l 254 111 l 844 111 q 867 98 860 111 q 865 56 874 85 q 847 15 860 29 q 817 0 833 0 l 169 0 m 935 1783 q 1033 1755 997 1783 q 1068 1678 1068 1726 q 1049 1608 1068 1639 q 986 1547 1029 1576 q 956 1520 965 1532 q 944 1493 946 1508 l 940 1474 q 924 1447 939 1456 q 890 1439 908 1439 q 858 1448 872 1439 q 842 1474 844 1457 l 839 1504 q 849 1561 836 1538 q 889 1604 861 1585 q 923 1635 911 1621 q 935 1658 935 1649 q 926 1676 935 1669 q 900 1682 917 1682 q 867 1677 885 1682 q 826 1665 849 1672 q 769 1689 790 1647 q 792 1750 754 1731 q 860 1774 825 1765 q 935 1783 894 1783 z "},"Ẽ":{"ha":1013,"x_min":107,"x_max":1233,"o":"m 169 0 q 122 13 136 0 q 115 56 107 25 l 481 1332 q 501 1360 486 1350 q 546 1369 517 1369 l 1206 1369 q 1228 1356 1222 1369 q 1226 1314 1233 1343 q 1206 1272 1219 1286 q 1178 1258 1193 1258 l 582 1258 l 444 779 l 939 779 q 961 766 956 779 q 961 724 967 753 q 941 682 954 696 q 911 668 928 668 l 413 668 l 254 111 l 844 111 q 867 98 860 111 q 865 56 874 85 q 847 15 860 29 q 817 0 833 0 l 169 0 m 688 1494 q 646 1532 644 1494 q 683 1666 650 1624 q 775 1708 715 1708 q 854 1694 817 1708 q 926 1659 892 1679 q 988 1624 960 1639 q 1038 1610 1017 1610 q 1060 1625 1049 1610 q 1078 1674 1072 1640 q 1133 1710 1081 1710 q 1165 1701 1156 1710 q 1174 1672 1175 1692 q 1137 1539 1168 1582 q 1042 1496 1106 1496 q 961 1510 999 1496 q 892 1544 924 1525 q 832 1578 860 1564 q 781 1593 804 1593 q 753 1578 764 1593 q 739 1531 743 1563 q 724 1503 738 1513 q 688 1494 710 1494 z "},"Ğ":{"ha":1338,"x_min":194,"x_max":1338,"o":"m 639 -26 q 453 10 535 -25 q 313 110 371 44 q 224 271 254 176 q 194 485 194 365 q 216 684 194 581 q 281 889 238 788 q 390 1081 325 990 q 540 1242 454 1172 q 731 1353 625 1313 q 963 1393 838 1393 q 1113 1374 1046 1393 q 1234 1319 1181 1356 q 1326 1225 1288 1282 q 1331 1198 1338 1210 q 1306 1171 1325 1186 q 1274 1155 1288 1157 q 1242 1169 1261 1153 q 1166 1228 1207 1204 q 1072 1263 1125 1251 q 944 1275 1018 1275 q 770 1242 851 1275 q 619 1150 689 1208 q 496 1016 550 1092 q 403 854 442 940 q 345 678 365 768 q 325 503 325 588 q 345 324 325 401 q 406 195 365 247 q 510 117 447 143 q 657 92 572 92 q 774 112 715 92 q 887 172 832 132 q 992 276 942 213 q 1084 424 1042 339 q 1160 618 1126 510 l 806 618 q 781 631 785 618 q 786 674 776 643 q 807 717 796 706 q 839 729 818 729 l 1278 729 q 1303 717 1299 729 q 1300 674 1308 706 q 1178 343 1253 478 q 1015 126 1104 208 q 828 9 925 44 q 639 -26 732 -26 m 993 1451 q 836 1514 890 1451 q 793 1703 782 1576 q 808 1733 794 1724 q 842 1742 821 1742 q 875 1731 863 1742 q 889 1703 888 1721 q 924 1603 889 1635 q 1011 1572 958 1572 q 1122 1608 1076 1572 q 1190 1700 1167 1644 q 1213 1733 1201 1725 q 1244 1742 1225 1742 q 1283 1729 1269 1742 q 1289 1696 1296 1717 q 1221 1549 1260 1603 q 1126 1474 1182 1496 q 993 1451 1071 1451 z "},"Ĝ":{"ha":1338,"x_min":194,"x_max":1338,"o":"m 639 -26 q 453 10 535 -25 q 313 110 371 44 q 224 271 254 176 q 194 485 194 365 q 216 684 194 581 q 281 889 238 788 q 390 1081 325 990 q 540 1242 454 1172 q 731 1353 625 1313 q 963 1393 838 1393 q 1113 1374 1046 1393 q 1234 1319 1181 1356 q 1326 1225 1288 1282 q 1331 1198 1338 1210 q 1306 1171 1325 1186 q 1274 1155 1288 1157 q 1242 1169 1261 1153 q 1166 1228 1207 1204 q 1072 1263 1125 1251 q 944 1275 1018 1275 q 770 1242 851 1275 q 619 1150 689 1208 q 496 1016 550 1092 q 403 854 442 940 q 345 678 365 768 q 325 503 325 588 q 345 324 325 401 q 406 195 365 247 q 510 117 447 143 q 657 92 572 92 q 774 112 715 92 q 887 172 832 132 q 992 276 942 213 q 1084 424 1042 339 q 1160 618 1126 510 l 806 618 q 781 631 785 618 q 786 674 776 643 q 807 717 796 706 q 839 729 818 729 l 1278 729 q 1303 717 1299 729 q 1300 674 1308 706 q 1178 343 1253 478 q 1015 126 1104 208 q 828 9 925 44 q 639 -26 732 -26 m 783 1453 q 756 1469 768 1453 q 743 1501 743 1486 q 747 1521 743 1514 q 757 1533 751 1528 l 979 1711 q 1017 1735 999 1728 q 1057 1742 1035 1742 q 1090 1733 1076 1742 q 1117 1707 1104 1724 l 1251 1525 q 1260 1508 1258 1515 q 1261 1494 1261 1500 q 1243 1465 1261 1478 q 1213 1453 1225 1453 q 1189 1459 1199 1453 q 1169 1475 1179 1465 l 1035 1601 l 825 1468 q 805 1458 815 1463 q 783 1453 794 1453 z "},"Ģ":{"ha":1338,"x_min":194,"x_max":1338,"o":"m 639 -26 q 453 10 535 -25 q 313 110 371 44 q 224 271 254 176 q 194 485 194 365 q 216 684 194 581 q 281 889 238 788 q 390 1081 325 990 q 540 1242 454 1172 q 731 1353 625 1313 q 963 1393 838 1393 q 1113 1374 1046 1393 q 1234 1319 1181 1356 q 1326 1225 1288 1282 q 1331 1198 1338 1210 q 1306 1171 1325 1186 q 1274 1155 1288 1157 q 1242 1169 1261 1153 q 1166 1228 1207 1204 q 1072 1263 1125 1251 q 944 1275 1018 1275 q 770 1242 851 1275 q 619 1150 689 1208 q 496 1016 550 1092 q 403 854 442 940 q 345 678 365 768 q 325 503 325 588 q 345 324 325 401 q 406 195 365 247 q 510 117 447 143 q 657 92 572 92 q 774 112 715 92 q 887 172 832 132 q 992 276 942 213 q 1084 424 1042 339 q 1160 618 1126 510 l 806 618 q 781 631 785 618 q 786 674 776 643 q 807 717 796 706 q 839 729 818 729 l 1278 729 q 1303 717 1299 729 q 1300 674 1308 706 q 1178 343 1253 478 q 1015 126 1104 208 q 828 9 925 44 q 639 -26 732 -26 m 436 -399 q 417 -373 419 -387 q 426 -342 414 -358 q 466 -274 450 -304 q 490 -212 482 -244 q 501 -140 499 -181 q 520 -107 504 -117 q 563 -97 536 -97 q 610 -112 594 -97 q 622 -154 625 -128 q 603 -227 619 -187 q 560 -304 586 -267 q 503 -376 533 -342 q 469 -401 486 -394 q 436 -399 453 -407 z "},"Ġ":{"ha":1338,"x_min":194,"x_max":1338,"o":"m 639 -26 q 453 10 535 -25 q 313 110 371 44 q 224 271 254 176 q 194 485 194 365 q 216 684 194 581 q 281 889 238 788 q 390 1081 325 990 q 540 1242 454 1172 q 731 1353 625 1313 q 963 1393 838 1393 q 1113 1374 1046 1393 q 1234 1319 1181 1356 q 1326 1225 1288 1282 q 1331 1198 1338 1210 q 1306 1171 1325 1186 q 1274 1155 1288 1157 q 1242 1169 1261 1153 q 1166 1228 1207 1204 q 1072 1263 1125 1251 q 944 1275 1018 1275 q 770 1242 851 1275 q 619 1150 689 1208 q 496 1016 550 1092 q 403 854 442 940 q 345 678 365 768 q 325 503 325 588 q 345 324 325 401 q 406 195 365 247 q 510 117 447 143 q 657 92 572 92 q 774 112 715 92 q 887 172 832 132 q 992 276 942 213 q 1084 424 1042 339 q 1160 618 1126 510 l 806 618 q 781 631 785 618 q 786 674 776 643 q 807 717 796 706 q 839 729 818 729 l 1278 729 q 1303 717 1299 729 q 1300 674 1308 706 q 1178 343 1253 478 q 1015 126 1104 208 q 828 9 925 44 q 639 -26 732 -26 m 1001 1500 q 951 1518 971 1500 q 932 1574 932 1536 q 957 1643 932 1611 q 1031 1675 982 1675 q 1079 1657 1060 1675 q 1099 1601 1099 1639 q 1076 1531 1099 1563 q 1001 1500 1053 1500 z "},"Ħ":{"ha":1356,"x_min":92,"x_max":1508,"o":"m 153 -19 q 103 19 92 -19 l 488 1356 q 511 1384 493 1375 q 558 1393 529 1393 q 608 1356 622 1393 l 442 774 l 1160 774 l 1328 1356 q 1351 1384 1333 1375 q 1399 1393 1369 1393 q 1449 1356 1463 1393 l 1064 19 q 1042 -10 1060 0 q 993 -19 1024 -19 q 943 19 932 -19 l 1128 663 l 410 663 l 224 19 q 201 -10 219 0 q 153 -19 183 -19 m 290 1007 q 263 1022 265 1007 q 263 1056 260 1038 q 276 1092 267 1076 q 311 1108 286 1108 l 1476 1108 q 1506 1092 1503 1108 q 1506 1056 1510 1076 q 1493 1022 1503 1038 q 1458 1007 1483 1007 l 290 1007 z "},"Ĥ":{"ha":1356,"x_min":92,"x_max":1463,"o":"m 153 -19 q 103 19 92 -19 l 488 1356 q 511 1384 493 1375 q 558 1393 529 1393 q 608 1356 622 1393 l 442 774 l 1160 774 l 1328 1356 q 1351 1384 1333 1375 q 1399 1393 1369 1393 q 1449 1356 1463 1393 l 1064 19 q 1042 -10 1060 0 q 993 -19 1024 -19 q 943 19 932 -19 l 1128 663 l 410 663 l 224 19 q 201 -10 219 0 q 153 -19 183 -19 m 779 1453 q 751 1469 764 1453 q 739 1501 739 1486 q 743 1521 739 1514 q 753 1533 747 1528 l 975 1711 q 1013 1735 994 1728 q 1053 1742 1031 1742 q 1086 1733 1072 1742 q 1113 1707 1100 1724 l 1247 1525 q 1256 1508 1254 1515 q 1257 1494 1257 1500 q 1239 1465 1257 1478 q 1208 1453 1221 1453 q 1185 1459 1194 1453 q 1165 1475 1175 1465 l 1031 1601 l 821 1468 q 801 1458 811 1463 q 779 1453 790 1453 z "},"Í":{"ha":515,"x_min":97,"x_max":789,"o":"m 158 -19 q 113 -10 128 -19 q 103 22 97 0 l 485 1356 q 508 1384 490 1375 q 556 1393 525 1393 q 601 1383 588 1393 q 608 1351 615 1374 l 228 19 q 206 -10 222 0 q 158 -19 190 -19 m 511 1453 q 477 1472 496 1453 q 458 1504 458 1490 q 460 1515 458 1510 q 471 1529 461 1521 l 686 1731 q 700 1742 694 1738 q 714 1746 706 1746 q 745 1733 728 1746 q 776 1704 763 1721 q 789 1672 789 1688 q 786 1656 789 1663 q 768 1638 783 1649 l 538 1467 q 523 1457 529 1461 q 511 1453 517 1453 z "},"Ĭ":{"ha":515,"x_min":97,"x_max":885,"o":"m 158 -19 q 113 -10 128 -19 q 103 22 97 0 l 485 1356 q 508 1384 490 1375 q 556 1393 525 1393 q 601 1383 588 1393 q 608 1351 615 1374 l 228 19 q 206 -10 222 0 q 158 -19 190 -19 m 583 1451 q 426 1514 481 1451 q 383 1703 372 1576 q 398 1733 385 1724 q 432 1742 411 1742 q 465 1731 453 1742 q 479 1703 478 1721 q 514 1603 479 1635 q 601 1572 549 1572 q 712 1608 667 1572 q 781 1700 757 1644 q 803 1733 792 1725 q 835 1742 815 1742 q 873 1729 860 1742 q 879 1696 886 1717 q 811 1549 850 1603 q 717 1474 772 1496 q 583 1451 661 1451 z "},"Ǐ":{"ha":515,"x_min":97,"x_max":882,"o":"m 158 -19 q 113 -10 128 -19 q 103 22 97 0 l 485 1356 q 508 1384 490 1375 q 556 1393 525 1393 q 601 1383 588 1393 q 608 1351 615 1374 l 228 19 q 206 -10 222 0 q 158 -19 190 -19 m 840 1742 q 869 1725 856 1742 q 883 1693 883 1708 q 879 1674 883 1681 q 868 1661 875 1668 l 646 1485 q 609 1460 626 1468 q 568 1453 592 1453 q 535 1463 550 1453 q 510 1489 521 1472 l 374 1671 q 366 1689 367 1682 q 365 1701 365 1696 q 385 1730 365 1718 q 418 1742 406 1742 q 439 1735 432 1742 q 454 1721 446 1729 l 592 1594 l 800 1722 q 818 1735 808 1728 q 840 1742 828 1742 z "},"Î":{"ha":515,"x_min":97,"x_max":850,"o":"m 158 -19 q 113 -10 128 -19 q 103 22 97 0 l 485 1356 q 508 1384 490 1375 q 556 1393 525 1393 q 601 1383 588 1393 q 608 1351 615 1374 l 228 19 q 206 -10 222 0 q 158 -19 190 -19 m 374 1453 q 346 1469 358 1453 q 333 1501 333 1486 q 338 1521 333 1514 q 347 1533 342 1528 l 569 1711 q 607 1735 589 1728 q 647 1742 625 1742 q 681 1733 667 1742 q 707 1707 694 1724 l 842 1525 q 850 1508 849 1515 q 851 1494 851 1500 q 833 1465 851 1478 q 803 1453 815 1453 q 779 1459 789 1453 q 760 1475 769 1465 l 625 1601 l 415 1468 q 395 1458 406 1463 q 374 1453 385 1453 z "},"Ï":{"ha":515,"x_min":97,"x_max":860,"o":"m 158 -19 q 113 -10 128 -19 q 103 22 97 0 l 485 1356 q 508 1384 490 1375 q 556 1393 525 1393 q 601 1383 588 1393 q 608 1351 615 1374 l 228 19 q 206 -10 222 0 q 158 -19 190 -19 m 419 1500 q 369 1518 389 1500 q 350 1574 350 1536 q 374 1643 350 1611 q 449 1675 399 1675 q 497 1657 478 1675 q 517 1603 517 1639 q 494 1531 517 1563 q 419 1500 471 1500 m 761 1500 q 712 1518 732 1500 q 692 1574 692 1536 q 716 1643 692 1611 q 790 1675 740 1675 q 840 1657 819 1675 q 860 1603 860 1639 q 835 1531 860 1563 q 761 1500 811 1500 z "},"İ":{"ha":515,"x_min":97,"x_max":689,"o":"m 158 -19 q 113 -10 128 -19 q 103 22 97 0 l 485 1356 q 508 1384 490 1375 q 556 1393 525 1393 q 601 1383 588 1393 q 608 1351 615 1374 l 228 19 q 206 -10 222 0 q 158 -19 190 -19 m 592 1500 q 542 1518 561 1500 q 522 1574 522 1536 q 547 1643 522 1611 q 621 1675 572 1675 q 669 1657 650 1675 q 689 1601 689 1639 q 666 1531 689 1563 q 592 1500 643 1500 z "},"Ì":{"ha":515,"x_min":97,"x_max":703,"o":"m 158 -19 q 113 -10 128 -19 q 103 22 97 0 l 485 1356 q 508 1384 490 1375 q 556 1393 525 1393 q 601 1383 588 1393 q 608 1351 615 1374 l 228 19 q 206 -10 222 0 q 158 -19 190 -19 m 651 1453 q 639 1457 646 1453 q 625 1467 632 1461 l 425 1639 q 408 1657 411 1650 q 404 1674 404 1664 q 418 1704 404 1688 q 449 1733 432 1721 q 481 1746 467 1746 q 495 1742 489 1746 q 508 1731 501 1738 l 692 1528 q 703 1513 701 1518 q 704 1504 704 1508 q 685 1472 704 1490 q 651 1453 667 1453 z "},"Ī":{"ha":515,"x_min":97,"x_max":844,"o":"m 158 -19 q 113 -10 128 -19 q 103 22 97 0 l 485 1356 q 508 1384 490 1375 q 556 1393 525 1393 q 601 1383 588 1393 q 608 1351 615 1374 l 228 19 q 206 -10 222 0 q 158 -19 190 -19 m 411 1539 q 378 1555 385 1539 q 378 1596 372 1571 q 397 1642 385 1626 q 433 1657 408 1657 l 806 1657 q 840 1640 833 1657 q 839 1596 846 1622 q 822 1553 833 1567 q 785 1539 810 1539 l 411 1539 z "},"Į":{"ha":515,"x_min":-140,"x_max":615,"o":"m 158 -19 q 113 -10 128 -19 q 103 22 97 0 l 485 1356 q 508 1384 490 1375 q 556 1393 525 1393 q 601 1383 588 1393 q 608 1351 615 1374 l 228 19 q 206 -10 222 0 q 158 -19 190 -19 m -53 -365 q -117 -343 -93 -365 q -140 -282 -140 -321 q -122 -212 -140 -247 q -70 -141 -104 -178 q 15 -65 -36 -104 q 128 19 65 -26 l 211 17 l 211 10 q 122 -65 163 -29 q 51 -133 81 -101 q 4 -190 21 -165 q -12 -235 -12 -215 q -6 -253 -12 -247 q 13 -260 1 -260 q 61 -242 36 -260 q 121 -193 86 -225 q 144 -183 129 -186 q 174 -196 158 -181 q 189 -221 186 -207 q 183 -247 192 -235 q 116 -309 157 -282 q 31 -351 75 -336 q -53 -365 -12 -365 z "},"Ĩ":{"ha":515,"x_min":97,"x_max":875,"o":"m 158 -19 q 113 -10 128 -19 q 103 22 97 0 l 485 1356 q 508 1384 490 1375 q 556 1393 525 1393 q 601 1383 588 1393 q 608 1351 615 1374 l 228 19 q 206 -10 222 0 q 158 -19 190 -19 m 388 1494 q 346 1532 344 1494 q 383 1666 350 1624 q 475 1708 415 1708 q 554 1694 517 1708 q 626 1659 592 1679 q 688 1624 660 1639 q 738 1610 717 1610 q 760 1625 749 1610 q 778 1674 772 1640 q 833 1710 781 1710 q 865 1701 856 1710 q 874 1672 875 1692 q 837 1539 868 1582 q 742 1496 806 1496 q 661 1510 699 1496 q 592 1544 624 1525 q 532 1578 560 1564 q 481 1593 504 1593 q 453 1578 464 1593 q 439 1531 443 1563 q 424 1503 438 1513 q 388 1494 410 1494 z "},"Ị":{"ha":515,"x_min":6,"x_max":615,"o":"m 158 -19 q 113 -10 128 -19 q 103 22 97 0 l 485 1356 q 508 1384 490 1375 q 556 1393 525 1393 q 601 1383 588 1393 q 608 1351 615 1374 l 228 19 q 206 -10 222 0 q 158 -19 190 -19 m 75 -322 q 26 -304 46 -322 q 7 -250 7 -286 q 31 -179 7 -211 q 104 -147 54 -147 q 154 -166 135 -147 q 174 -221 174 -185 q 149 -291 174 -260 q 75 -322 125 -322 z "},"Ỉ":{"ha":515,"x_min":97,"x_max":769,"o":"m 158 -19 q 113 -10 128 -19 q 103 22 97 0 l 485 1356 q 508 1384 490 1375 q 556 1393 525 1393 q 601 1383 588 1393 q 608 1351 615 1374 l 228 19 q 206 -10 222 0 q 158 -19 190 -19 m 635 1783 q 733 1755 697 1783 q 768 1678 768 1726 q 749 1608 768 1639 q 686 1547 729 1576 q 656 1520 665 1532 q 644 1493 646 1508 l 640 1474 q 624 1447 639 1456 q 590 1439 608 1439 q 558 1448 572 1439 q 542 1474 544 1457 l 539 1504 q 549 1561 536 1538 q 589 1604 561 1585 q 623 1635 611 1621 q 635 1658 635 1649 q 626 1676 635 1669 q 600 1682 617 1682 q 567 1677 585 1682 q 526 1665 549 1672 q 469 1689 490 1647 q 492 1750 454 1731 q 560 1774 525 1765 q 635 1783 594 1783 z "},"Ĵ":{"ha":992,"x_min":32,"x_max":1354,"o":"m 389 -26 q 242 6 315 -26 q 113 99 168 39 q 38 246 57 160 q 43 281 32 269 q 76 297 54 292 q 124 299 110 307 q 149 265 139 292 q 201 172 167 211 q 284 113 236 133 q 390 92 332 92 q 476 101 436 92 q 551 132 517 111 q 615 189 586 153 q 669 277 644 225 q 715 400 694 329 l 992 1356 q 1015 1384 997 1375 q 1063 1393 1033 1393 q 1106 1384 1093 1393 q 1113 1356 1119 1375 l 836 394 q 776 233 810 303 q 701 115 742 164 q 611 34 660 65 q 507 -12 563 3 q 389 -26 451 -26 m 876 1453 q 849 1469 861 1453 q 836 1501 836 1486 q 840 1521 836 1514 q 850 1533 844 1528 l 1072 1711 q 1110 1735 1092 1728 q 1150 1742 1128 1742 q 1183 1733 1169 1742 q 1210 1707 1197 1724 l 1344 1525 q 1353 1508 1351 1515 q 1354 1494 1354 1500 q 1336 1465 1354 1478 q 1306 1453 1318 1453 q 1282 1459 1292 1453 q 1263 1475 1272 1465 l 1128 1601 l 918 1468 q 898 1458 908 1463 q 876 1453 888 1453 z "},"Ķ":{"ha":1050,"x_min":96,"x_max":1267,"o":"m 151 -22 q 108 -12 121 -22 q 101 18 96 -3 l 488 1354 q 560 1393 499 1393 q 610 1354 622 1393 l 447 792 l 1171 1372 q 1214 1389 1197 1392 q 1249 1363 1231 1386 q 1265 1322 1267 1338 q 1236 1286 1264 1307 l 511 713 q 647 471 579 582 q 785 261 714 360 q 939 65 857 163 q 953 24 958 42 q 921 -15 949 7 q 880 -26 899 -31 q 847 -6 861 -21 q 723 155 783 72 q 608 324 663 238 q 506 499 554 410 q 414 678 457 589 l 224 18 q 200 -12 218 -1 q 151 -22 182 -22 m 332 -399 q 313 -373 315 -387 q 322 -342 310 -358 q 362 -274 346 -304 q 386 -212 378 -244 q 397 -140 394 -181 q 416 -107 400 -117 q 458 -97 432 -97 q 506 -112 490 -97 q 518 -154 521 -128 q 499 -227 515 -187 q 456 -304 482 -267 q 399 -376 429 -342 q 365 -401 382 -394 q 332 -399 349 -407 z "},"Ĺ":{"ha":954,"x_min":99,"x_max":843,"o":"m 161 0 q 115 56 99 0 l 488 1356 q 508 1384 493 1375 q 553 1393 522 1393 q 599 1383 585 1393 q 607 1351 614 1374 l 251 111 l 815 111 q 838 98 832 111 q 836 56 843 85 q 817 15 831 29 q 788 0 803 0 l 161 0 m 519 1453 q 485 1472 504 1453 q 467 1504 467 1490 q 468 1515 467 1510 q 479 1529 469 1521 l 694 1731 q 708 1742 703 1738 q 722 1746 714 1746 q 753 1733 736 1746 q 784 1704 771 1721 q 797 1672 797 1688 q 794 1656 797 1663 q 776 1638 792 1649 l 546 1467 q 531 1457 538 1461 q 519 1453 525 1453 z "},"Ľ":{"ha":954,"x_min":99,"x_max":886,"o":"m 161 0 q 115 56 99 0 l 488 1356 q 508 1384 493 1375 q 553 1393 522 1393 q 599 1383 585 1393 q 607 1351 614 1374 l 251 111 l 815 111 q 838 98 832 111 q 836 56 843 85 q 817 15 831 29 q 788 0 803 0 l 161 0 m 700 1056 q 674 1078 679 1065 q 682 1117 669 1092 q 711 1182 696 1142 q 740 1267 726 1222 q 758 1351 753 1313 q 774 1385 761 1374 q 821 1396 786 1396 q 870 1385 854 1396 q 883 1351 886 1374 q 858 1259 878 1310 q 814 1158 839 1208 q 763 1069 789 1108 q 740 1052 756 1060 q 700 1056 725 1044 z "},"Ļ":{"ha":954,"x_min":99,"x_max":843,"o":"m 161 0 q 115 56 99 0 l 488 1356 q 508 1384 493 1375 q 553 1393 522 1393 q 599 1383 585 1393 q 607 1351 614 1374 l 251 111 l 815 111 q 838 98 832 111 q 836 56 843 85 q 817 15 831 29 q 788 0 803 0 l 161 0 m 322 -399 q 303 -373 306 -387 q 313 -342 300 -358 q 352 -274 336 -304 q 376 -212 368 -244 q 388 -140 385 -181 q 406 -107 390 -117 q 449 -97 422 -97 q 496 -112 481 -97 q 508 -154 511 -128 q 489 -227 506 -187 q 446 -304 472 -267 q 389 -376 419 -342 q 356 -401 372 -394 q 322 -399 339 -407 z "},"Ŀ":{"ha":954,"x_min":99,"x_max":901,"o":"m 161 0 q 115 56 99 0 l 488 1356 q 508 1384 493 1375 q 553 1393 522 1393 q 599 1383 585 1393 q 607 1351 614 1374 l 251 111 l 815 111 q 838 98 832 111 q 836 56 843 85 q 817 15 831 29 q 788 0 803 0 l 161 0 m 803 619 q 753 638 774 619 q 733 692 733 656 q 758 763 733 732 q 832 794 782 794 q 881 776 861 794 q 900 722 900 758 q 877 651 901 683 q 803 619 853 619 z "},"Ł":{"ha":954,"x_min":99,"x_max":843,"o":"m 161 0 q 115 56 99 0 l 488 1356 q 508 1384 493 1375 q 553 1393 522 1393 q 599 1383 585 1393 q 607 1351 614 1374 l 251 111 l 815 111 q 838 98 832 111 q 836 56 843 85 q 817 15 831 29 q 788 0 803 0 l 161 0 m 183 579 q 149 579 163 572 q 124 610 135 586 q 119 647 117 628 q 142 672 122 665 l 663 872 q 694 874 682 879 q 717 850 707 869 q 708 785 743 800 l 183 579 z "},"Ń":{"ha":1356,"x_min":92,"x_max":1463,"o":"m 153 -19 q 103 19 92 -19 l 488 1356 q 511 1384 493 1375 q 558 1393 529 1393 q 597 1384 583 1393 q 618 1356 610 1375 l 1000 224 l 1328 1356 q 1352 1384 1335 1375 q 1399 1393 1369 1393 q 1449 1356 1463 1393 l 1064 19 q 1042 -10 1060 0 q 994 -19 1024 -19 q 962 -12 972 -19 q 943 19 951 -6 l 556 1165 l 224 19 q 201 -10 218 0 q 153 -19 183 -19 m 942 1453 q 908 1472 926 1453 q 889 1504 889 1490 q 890 1515 889 1510 q 901 1529 892 1521 l 1117 1731 q 1131 1742 1125 1738 q 1144 1746 1136 1746 q 1176 1733 1158 1746 q 1206 1704 1193 1721 q 1219 1672 1219 1688 q 1217 1656 1219 1663 q 1199 1638 1214 1649 l 968 1467 q 953 1457 960 1461 q 942 1453 947 1453 z "},"Ň":{"ha":1356,"x_min":92,"x_max":1463,"o":"m 153 -19 q 103 19 92 -19 l 488 1356 q 511 1384 493 1375 q 558 1393 529 1393 q 597 1384 583 1393 q 618 1356 610 1375 l 1000 224 l 1328 1356 q 1352 1384 1335 1375 q 1399 1393 1369 1393 q 1449 1356 1463 1393 l 1064 19 q 1042 -10 1060 0 q 994 -19 1024 -19 q 962 -12 972 -19 q 943 19 951 -6 l 556 1165 l 224 19 q 201 -10 218 0 q 153 -19 183 -19 m 1271 1742 q 1300 1725 1286 1742 q 1314 1693 1314 1708 q 1310 1674 1314 1681 q 1299 1661 1306 1668 l 1076 1485 q 1040 1460 1057 1468 q 999 1453 1022 1453 q 966 1463 981 1453 q 940 1489 951 1472 l 804 1671 q 797 1689 797 1682 q 796 1701 796 1696 q 816 1730 796 1718 q 849 1742 836 1742 q 869 1735 863 1742 q 885 1721 876 1729 l 1022 1594 l 1231 1722 q 1249 1735 1239 1728 q 1271 1742 1258 1742 z "},"Ņ":{"ha":1356,"x_min":92,"x_max":1463,"o":"m 153 -19 q 103 19 92 -19 l 488 1356 q 511 1384 493 1375 q 558 1393 529 1393 q 597 1384 583 1393 q 618 1356 610 1375 l 1000 224 l 1328 1356 q 1352 1384 1335 1375 q 1399 1393 1369 1393 q 1449 1356 1463 1393 l 1064 19 q 1042 -10 1060 0 q 994 -19 1024 -19 q 962 -12 972 -19 q 943 19 951 -6 l 556 1165 l 224 19 q 201 -10 218 0 q 153 -19 183 -19 m 428 -399 q 408 -373 411 -387 q 418 -342 406 -358 q 458 -274 442 -304 q 482 -212 474 -244 q 493 -140 490 -181 q 512 -107 496 -117 q 554 -97 528 -97 q 601 -112 586 -97 q 614 -154 617 -128 q 594 -227 611 -187 q 551 -304 578 -267 q 494 -376 525 -342 q 461 -401 478 -394 q 428 -399 444 -407 z "},"Ñ":{"ha":1356,"x_min":92,"x_max":1463,"o":"m 153 -19 q 103 19 92 -19 l 488 1356 q 511 1384 493 1375 q 558 1393 529 1393 q 597 1384 583 1393 q 618 1356 610 1375 l 1000 224 l 1328 1356 q 1352 1384 1335 1375 q 1399 1393 1369 1393 q 1449 1356 1463 1393 l 1064 19 q 1042 -10 1060 0 q 994 -19 1024 -19 q 962 -12 972 -19 q 943 19 951 -6 l 556 1165 l 224 19 q 201 -10 218 0 q 153 -19 183 -19 m 818 1494 q 776 1532 775 1494 q 813 1666 781 1624 q 906 1708 846 1708 q 985 1694 947 1708 q 1056 1659 1022 1679 q 1119 1624 1090 1639 q 1168 1610 1147 1610 q 1191 1625 1179 1610 q 1208 1674 1203 1640 q 1264 1710 1211 1710 q 1296 1701 1286 1710 q 1304 1672 1306 1692 q 1267 1539 1299 1582 q 1172 1496 1236 1496 q 1092 1510 1129 1496 q 1022 1544 1054 1525 q 963 1578 990 1564 q 911 1593 935 1593 q 884 1578 894 1593 q 869 1531 874 1563 q 854 1503 868 1513 q 818 1494 840 1494 z "},"Ó":{"ha":1413,"x_min":201,"x_max":1404,"o":"m 671 -26 q 477 11 564 -26 q 329 118 390 49 q 235 285 268 188 q 201 504 201 383 q 223 708 201 604 q 288 912 244 813 q 393 1098 331 1011 q 538 1251 456 1185 q 720 1356 619 1318 q 938 1393 821 1393 q 1131 1356 1044 1393 q 1278 1250 1217 1319 q 1372 1083 1339 1181 q 1404 865 1404 986 q 1381 652 1404 758 q 1315 446 1358 546 q 1208 260 1271 346 q 1063 110 1144 174 q 883 10 982 46 q 671 -26 785 -26 m 689 92 q 859 123 781 92 q 1003 210 938 154 q 1119 340 1068 267 q 1204 498 1169 413 q 1257 672 1239 583 q 1275 849 1275 761 q 1252 1031 1275 951 q 1183 1165 1229 1111 q 1072 1247 1138 1219 q 919 1275 1006 1275 q 751 1244 831 1275 q 607 1156 672 1213 q 490 1025 542 1099 q 403 867 439 951 q 349 695 368 783 q 331 521 331 607 q 354 338 331 418 q 423 203 378 258 q 535 120 468 149 q 689 92 601 92 m 936 1453 q 902 1472 921 1453 q 883 1504 883 1490 q 885 1515 883 1510 q 896 1529 886 1521 l 1111 1731 q 1125 1742 1119 1738 q 1139 1746 1131 1746 q 1170 1733 1153 1746 q 1201 1704 1188 1721 q 1214 1672 1214 1688 q 1211 1656 1214 1663 q 1193 1638 1208 1649 l 963 1467 q 948 1457 954 1461 q 936 1453 942 1453 z "},"Ŏ":{"ha":1413,"x_min":201,"x_max":1404,"o":"m 671 -26 q 477 11 564 -26 q 329 118 390 49 q 235 285 268 188 q 201 504 201 383 q 223 708 201 604 q 288 912 244 813 q 393 1098 331 1011 q 538 1251 456 1185 q 720 1356 619 1318 q 938 1393 821 1393 q 1131 1356 1044 1393 q 1278 1250 1217 1319 q 1372 1083 1339 1181 q 1404 865 1404 986 q 1381 652 1404 758 q 1315 446 1358 546 q 1208 260 1271 346 q 1063 110 1144 174 q 883 10 982 46 q 671 -26 785 -26 m 689 92 q 859 123 781 92 q 1003 210 938 154 q 1119 340 1068 267 q 1204 498 1169 413 q 1257 672 1239 583 q 1275 849 1275 761 q 1252 1031 1275 951 q 1183 1165 1229 1111 q 1072 1247 1138 1219 q 919 1275 1006 1275 q 751 1244 831 1275 q 607 1156 672 1213 q 490 1025 542 1099 q 403 867 439 951 q 349 695 368 783 q 331 521 331 607 q 354 338 331 418 q 423 203 378 258 q 535 120 468 149 q 689 92 601 92 m 1008 1451 q 851 1514 906 1451 q 808 1703 797 1576 q 823 1733 810 1724 q 857 1742 836 1742 q 890 1731 878 1742 q 904 1703 903 1721 q 939 1603 904 1635 q 1026 1572 974 1572 q 1137 1608 1092 1572 q 1206 1700 1182 1644 q 1228 1733 1217 1725 q 1260 1742 1240 1742 q 1298 1729 1285 1742 q 1304 1696 1311 1717 q 1236 1549 1275 1603 q 1142 1474 1197 1496 q 1008 1451 1086 1451 z "},"Ǒ":{"ha":1413,"x_min":201,"x_max":1404,"o":"m 671 -26 q 477 11 564 -26 q 329 118 390 49 q 235 285 268 188 q 201 504 201 383 q 223 708 201 604 q 288 912 244 813 q 393 1098 331 1011 q 538 1251 456 1185 q 720 1356 619 1318 q 938 1393 821 1393 q 1131 1356 1044 1393 q 1278 1250 1217 1319 q 1372 1083 1339 1181 q 1404 865 1404 986 q 1381 652 1404 758 q 1315 446 1358 546 q 1208 260 1271 346 q 1063 110 1144 174 q 883 10 982 46 q 671 -26 785 -26 m 689 92 q 859 123 781 92 q 1003 210 938 154 q 1119 340 1068 267 q 1204 498 1169 413 q 1257 672 1239 583 q 1275 849 1275 761 q 1252 1031 1275 951 q 1183 1165 1229 1111 q 1072 1247 1138 1219 q 919 1275 1006 1275 q 751 1244 831 1275 q 607 1156 672 1213 q 490 1025 542 1099 q 403 867 439 951 q 349 695 368 783 q 331 521 331 607 q 354 338 331 418 q 423 203 378 258 q 535 120 468 149 q 689 92 601 92 m 1265 1742 q 1294 1725 1281 1742 q 1308 1693 1308 1708 q 1304 1674 1308 1681 q 1293 1661 1300 1668 l 1071 1485 q 1034 1460 1051 1468 q 993 1453 1017 1453 q 960 1463 975 1453 q 935 1489 946 1472 l 799 1671 q 791 1689 792 1682 q 790 1701 790 1696 q 810 1730 790 1718 q 843 1742 831 1742 q 864 1735 857 1742 q 879 1721 871 1729 l 1017 1594 l 1225 1722 q 1243 1735 1233 1728 q 1265 1742 1253 1742 z "},"Ô":{"ha":1413,"x_min":201,"x_max":1404,"o":"m 671 -26 q 477 11 564 -26 q 329 118 390 49 q 235 285 268 188 q 201 504 201 383 q 223 708 201 604 q 288 912 244 813 q 393 1098 331 1011 q 538 1251 456 1185 q 720 1356 619 1318 q 938 1393 821 1393 q 1131 1356 1044 1393 q 1278 1250 1217 1319 q 1372 1083 1339 1181 q 1404 865 1404 986 q 1381 652 1404 758 q 1315 446 1358 546 q 1208 260 1271 346 q 1063 110 1144 174 q 883 10 982 46 q 671 -26 785 -26 m 689 92 q 859 123 781 92 q 1003 210 938 154 q 1119 340 1068 267 q 1204 498 1169 413 q 1257 672 1239 583 q 1275 849 1275 761 q 1252 1031 1275 951 q 1183 1165 1229 1111 q 1072 1247 1138 1219 q 919 1275 1006 1275 q 751 1244 831 1275 q 607 1156 672 1213 q 490 1025 542 1099 q 403 867 439 951 q 349 695 368 783 q 331 521 331 607 q 354 338 331 418 q 423 203 378 258 q 535 120 468 149 q 689 92 601 92 m 799 1453 q 771 1469 783 1453 q 758 1501 758 1486 q 763 1521 758 1514 q 772 1533 767 1528 l 994 1711 q 1032 1735 1014 1728 q 1072 1742 1050 1742 q 1106 1733 1092 1742 q 1132 1707 1119 1724 l 1267 1525 q 1275 1508 1274 1515 q 1276 1494 1276 1500 q 1258 1465 1276 1478 q 1228 1453 1240 1453 q 1204 1459 1214 1453 q 1185 1475 1194 1465 l 1050 1601 l 840 1468 q 820 1458 831 1463 q 799 1453 810 1453 z "},"Ö":{"ha":1413,"x_min":201,"x_max":1404,"o":"m 671 -26 q 477 11 564 -26 q 329 118 390 49 q 235 285 268 188 q 201 504 201 383 q 223 708 201 604 q 288 912 244 813 q 393 1098 331 1011 q 538 1251 456 1185 q 720 1356 619 1318 q 938 1393 821 1393 q 1131 1356 1044 1393 q 1278 1250 1217 1319 q 1372 1083 1339 1181 q 1404 865 1404 986 q 1381 652 1404 758 q 1315 446 1358 546 q 1208 260 1271 346 q 1063 110 1144 174 q 883 10 982 46 q 671 -26 785 -26 m 689 92 q 859 123 781 92 q 1003 210 938 154 q 1119 340 1068 267 q 1204 498 1169 413 q 1257 672 1239 583 q 1275 849 1275 761 q 1252 1031 1275 951 q 1183 1165 1229 1111 q 1072 1247 1138 1219 q 919 1275 1006 1275 q 751 1244 831 1275 q 607 1156 672 1213 q 490 1025 542 1099 q 403 867 439 951 q 349 695 368 783 q 331 521 331 607 q 354 338 331 418 q 423 203 378 258 q 535 120 468 149 q 689 92 601 92 m 846 1500 q 796 1518 815 1500 q 776 1574 776 1536 q 801 1643 776 1611 q 875 1675 825 1675 q 924 1657 904 1675 q 943 1603 943 1639 q 920 1531 943 1563 q 846 1500 897 1500 m 1188 1500 q 1138 1518 1158 1500 q 1118 1574 1118 1536 q 1142 1643 1118 1611 q 1217 1675 1167 1675 q 1266 1657 1246 1675 q 1286 1603 1286 1639 q 1262 1531 1286 1563 q 1188 1500 1238 1500 z "},"Ò":{"ha":1413,"x_min":201,"x_max":1404,"o":"m 671 -26 q 477 11 564 -26 q 329 118 390 49 q 235 285 268 188 q 201 504 201 383 q 223 708 201 604 q 288 912 244 813 q 393 1098 331 1011 q 538 1251 456 1185 q 720 1356 619 1318 q 938 1393 821 1393 q 1131 1356 1044 1393 q 1278 1250 1217 1319 q 1372 1083 1339 1181 q 1404 865 1404 986 q 1381 652 1404 758 q 1315 446 1358 546 q 1208 260 1271 346 q 1063 110 1144 174 q 883 10 982 46 q 671 -26 785 -26 m 689 92 q 859 123 781 92 q 1003 210 938 154 q 1119 340 1068 267 q 1204 498 1169 413 q 1257 672 1239 583 q 1275 849 1275 761 q 1252 1031 1275 951 q 1183 1165 1229 1111 q 1072 1247 1138 1219 q 919 1275 1006 1275 q 751 1244 831 1275 q 607 1156 672 1213 q 490 1025 542 1099 q 403 867 439 951 q 349 695 368 783 q 331 521 331 607 q 354 338 331 418 q 423 203 378 258 q 535 120 468 149 q 689 92 601 92 m 1076 1453 q 1064 1457 1071 1453 q 1050 1467 1057 1461 l 850 1639 q 833 1657 836 1650 q 829 1674 829 1664 q 843 1704 829 1688 q 874 1733 857 1721 q 906 1746 892 1746 q 920 1742 914 1746 q 933 1731 926 1738 l 1117 1528 q 1128 1513 1126 1518 q 1129 1504 1129 1508 q 1110 1472 1129 1490 q 1076 1453 1092 1453 z "},"Ő":{"ha":1413,"x_min":201,"x_max":1404,"o":"m 671 -26 q 477 11 564 -26 q 329 118 390 49 q 235 285 268 188 q 201 504 201 383 q 223 708 201 604 q 288 912 244 813 q 393 1098 331 1011 q 538 1251 456 1185 q 720 1356 619 1318 q 938 1393 821 1393 q 1131 1356 1044 1393 q 1278 1250 1217 1319 q 1372 1083 1339 1181 q 1404 865 1404 986 q 1381 652 1404 758 q 1315 446 1358 546 q 1208 260 1271 346 q 1063 110 1144 174 q 883 10 982 46 q 671 -26 785 -26 m 689 92 q 859 123 781 92 q 1003 210 938 154 q 1119 340 1068 267 q 1204 498 1169 413 q 1257 672 1239 583 q 1275 849 1275 761 q 1252 1031 1275 951 q 1183 1165 1229 1111 q 1072 1247 1138 1219 q 919 1275 1006 1275 q 751 1244 831 1275 q 607 1156 672 1213 q 490 1025 542 1099 q 403 867 439 951 q 349 695 368 783 q 331 521 331 607 q 354 338 331 418 q 423 203 378 258 q 535 120 468 149 q 689 92 601 92 m 857 1453 q 823 1472 842 1453 q 804 1504 804 1490 q 806 1515 804 1510 q 817 1529 807 1521 l 1010 1731 q 1023 1742 1017 1738 q 1038 1746 1029 1746 q 1069 1733 1051 1746 q 1099 1704 1086 1721 q 1113 1672 1113 1688 q 1109 1656 1113 1663 q 1090 1638 1106 1649 l 883 1467 q 869 1457 875 1461 q 857 1453 863 1453 m 1126 1453 q 1092 1472 1111 1453 q 1074 1504 1074 1490 q 1075 1515 1074 1510 q 1086 1529 1076 1521 l 1279 1731 q 1294 1742 1288 1738 q 1308 1746 1300 1746 q 1340 1733 1322 1746 q 1370 1704 1357 1721 q 1383 1672 1383 1688 q 1380 1656 1383 1663 q 1363 1638 1376 1649 l 1153 1467 q 1138 1457 1144 1461 q 1126 1453 1132 1453 z "},"Ō":{"ha":1413,"x_min":201,"x_max":1404,"o":"m 671 -26 q 477 11 564 -26 q 329 118 390 49 q 235 285 268 188 q 201 504 201 383 q 223 708 201 604 q 288 912 244 813 q 393 1098 331 1011 q 538 1251 456 1185 q 720 1356 619 1318 q 938 1393 821 1393 q 1131 1356 1044 1393 q 1278 1250 1217 1319 q 1372 1083 1339 1181 q 1404 865 1404 986 q 1381 652 1404 758 q 1315 446 1358 546 q 1208 260 1271 346 q 1063 110 1144 174 q 883 10 982 46 q 671 -26 785 -26 m 689 92 q 859 123 781 92 q 1003 210 938 154 q 1119 340 1068 267 q 1204 498 1169 413 q 1257 672 1239 583 q 1275 849 1275 761 q 1252 1031 1275 951 q 1183 1165 1229 1111 q 1072 1247 1138 1219 q 919 1275 1006 1275 q 751 1244 831 1275 q 607 1156 672 1213 q 490 1025 542 1099 q 403 867 439 951 q 349 695 368 783 q 331 521 331 607 q 354 338 331 418 q 423 203 378 258 q 535 120 468 149 q 689 92 601 92 m 836 1539 q 803 1555 810 1539 q 803 1596 797 1571 q 822 1642 810 1626 q 858 1657 833 1657 l 1231 1657 q 1265 1640 1258 1657 q 1264 1596 1271 1622 q 1247 1553 1258 1567 q 1210 1539 1235 1539 l 836 1539 z "},"Ø":{"ha":1413,"x_min":153,"x_max":1438,"o":"m 671 -26 q 477 11 564 -26 q 329 118 390 49 q 235 285 268 188 q 201 504 201 383 q 223 708 201 604 q 288 912 244 813 q 393 1098 331 1011 q 538 1251 456 1185 q 720 1356 619 1318 q 938 1393 821 1393 q 1131 1356 1044 1393 q 1278 1250 1217 1319 q 1372 1083 1339 1181 q 1404 865 1404 986 q 1381 652 1404 758 q 1315 446 1358 546 q 1208 260 1271 346 q 1063 110 1144 174 q 883 10 982 46 q 671 -26 785 -26 m 689 92 q 859 123 781 92 q 1003 210 938 154 q 1119 340 1068 267 q 1204 498 1169 413 q 1257 672 1239 583 q 1275 849 1275 761 q 1252 1031 1275 951 q 1183 1165 1229 1111 q 1072 1247 1138 1219 q 919 1275 1006 1275 q 751 1244 831 1275 q 607 1156 672 1213 q 490 1025 542 1099 q 403 867 439 951 q 349 695 368 783 q 331 521 331 607 q 354 338 331 418 q 423 203 378 258 q 535 120 468 149 q 689 92 601 92 m 272 -49 q 242 -67 263 -62 q 196 -51 222 -72 q 181 19 153 -17 l 1332 1403 q 1366 1420 1344 1418 q 1410 1404 1388 1422 q 1433 1371 1429 1390 q 1422 1332 1438 1351 l 272 -49 z "},"Õ":{"ha":1413,"x_min":201,"x_max":1404,"o":"m 671 -26 q 477 11 564 -26 q 329 118 390 49 q 235 285 268 188 q 201 504 201 383 q 223 708 201 604 q 288 912 244 813 q 393 1098 331 1011 q 538 1251 456 1185 q 720 1356 619 1318 q 938 1393 821 1393 q 1131 1356 1044 1393 q 1278 1250 1217 1319 q 1372 1083 1339 1181 q 1404 865 1404 986 q 1381 652 1404 758 q 1315 446 1358 546 q 1208 260 1271 346 q 1063 110 1144 174 q 883 10 982 46 q 671 -26 785 -26 m 689 92 q 859 123 781 92 q 1003 210 938 154 q 1119 340 1068 267 q 1204 498 1169 413 q 1257 672 1239 583 q 1275 849 1275 761 q 1252 1031 1275 951 q 1183 1165 1229 1111 q 1072 1247 1138 1219 q 919 1275 1006 1275 q 751 1244 831 1275 q 607 1156 672 1213 q 490 1025 542 1099 q 403 867 439 951 q 349 695 368 783 q 331 521 331 607 q 354 338 331 418 q 423 203 378 258 q 535 120 468 149 q 689 92 601 92 m 814 1494 q 772 1532 771 1494 q 809 1666 776 1624 q 901 1708 842 1708 q 981 1694 943 1708 q 1052 1659 1018 1679 q 1115 1624 1086 1639 q 1164 1610 1143 1610 q 1187 1625 1175 1610 q 1204 1674 1199 1640 q 1260 1710 1207 1710 q 1292 1701 1282 1710 q 1300 1672 1301 1692 q 1263 1539 1294 1582 q 1168 1496 1232 1496 q 1088 1510 1125 1496 q 1018 1544 1050 1525 q 958 1578 986 1564 q 907 1593 931 1593 q 880 1578 890 1593 q 865 1531 869 1563 q 850 1503 864 1513 q 814 1494 836 1494 z "},"Ố":{"ha":1413,"x_min":201,"x_max":1514,"o":"m 671 -26 q 477 11 564 -26 q 329 118 390 49 q 235 285 268 188 q 201 504 201 383 q 223 708 201 604 q 288 912 244 813 q 393 1098 331 1011 q 538 1251 456 1185 q 720 1356 619 1318 q 938 1393 821 1393 q 1131 1356 1044 1393 q 1278 1250 1217 1319 q 1372 1083 1339 1181 q 1404 865 1404 986 q 1381 652 1404 758 q 1315 446 1358 546 q 1208 260 1271 346 q 1063 110 1144 174 q 883 10 982 46 q 671 -26 785 -26 m 689 92 q 859 123 781 92 q 1003 210 938 154 q 1119 340 1068 267 q 1204 498 1169 413 q 1257 672 1239 583 q 1275 849 1275 761 q 1252 1031 1275 951 q 1183 1165 1229 1111 q 1072 1247 1138 1219 q 919 1275 1006 1275 q 751 1244 831 1275 q 607 1156 672 1213 q 490 1025 542 1099 q 403 867 439 951 q 349 695 368 783 q 331 521 331 607 q 354 338 331 418 q 423 203 378 258 q 535 120 468 149 q 689 92 601 92 m 799 1453 q 771 1469 783 1453 q 758 1501 758 1486 q 763 1521 758 1514 q 772 1533 767 1528 l 994 1711 q 1032 1735 1014 1728 q 1072 1742 1050 1742 q 1106 1733 1092 1742 q 1132 1707 1119 1724 l 1267 1525 q 1275 1508 1274 1515 q 1276 1494 1276 1500 q 1258 1465 1276 1478 q 1228 1453 1240 1453 q 1204 1459 1214 1453 q 1185 1475 1194 1465 l 1050 1601 l 840 1468 q 820 1458 831 1463 q 799 1453 810 1453 m 1271 1669 q 1237 1688 1256 1669 q 1218 1721 1218 1707 q 1219 1731 1218 1726 q 1231 1746 1221 1736 l 1411 1924 q 1425 1935 1419 1931 q 1440 1939 1431 1939 q 1472 1927 1454 1939 q 1501 1898 1489 1915 q 1514 1865 1514 1881 q 1511 1849 1514 1856 q 1493 1831 1508 1842 l 1297 1683 q 1283 1673 1289 1676 q 1271 1669 1276 1669 z "},"Ộ":{"ha":1413,"x_min":201,"x_max":1404,"o":"m 671 -26 q 477 11 564 -26 q 329 118 390 49 q 235 285 268 188 q 201 504 201 383 q 223 708 201 604 q 288 912 244 813 q 393 1098 331 1011 q 538 1251 456 1185 q 720 1356 619 1318 q 938 1393 821 1393 q 1131 1356 1044 1393 q 1278 1250 1217 1319 q 1372 1083 1339 1181 q 1404 865 1404 986 q 1381 652 1404 758 q 1315 446 1358 546 q 1208 260 1271 346 q 1063 110 1144 174 q 883 10 982 46 q 671 -26 785 -26 m 689 92 q 859 123 781 92 q 1003 210 938 154 q 1119 340 1068 267 q 1204 498 1169 413 q 1257 672 1239 583 q 1275 849 1275 761 q 1252 1031 1275 951 q 1183 1165 1229 1111 q 1072 1247 1138 1219 q 919 1275 1006 1275 q 751 1244 831 1275 q 607 1156 672 1213 q 490 1025 542 1099 q 403 867 439 951 q 349 695 368 783 q 331 521 331 607 q 354 338 331 418 q 423 203 378 258 q 535 120 468 149 q 689 92 601 92 m 522 -322 q 474 -304 493 -322 q 454 -250 454 -286 q 478 -179 454 -211 q 551 -147 501 -147 q 601 -166 582 -147 q 621 -221 621 -185 q 597 -291 621 -260 q 522 -322 572 -322 m 799 1453 q 771 1469 783 1453 q 758 1501 758 1486 q 763 1521 758 1514 q 772 1533 767 1528 l 994 1711 q 1032 1735 1014 1728 q 1072 1742 1050 1742 q 1106 1733 1092 1742 q 1132 1707 1119 1724 l 1267 1525 q 1275 1508 1274 1515 q 1276 1494 1276 1500 q 1258 1465 1276 1478 q 1228 1453 1240 1453 q 1204 1459 1214 1453 q 1185 1475 1194 1465 l 1050 1601 l 840 1468 q 820 1458 831 1463 q 799 1453 810 1453 z "},"Ồ":{"ha":1413,"x_min":201,"x_max":1406,"o":"m 671 -26 q 477 11 564 -26 q 329 118 390 49 q 235 285 268 188 q 201 504 201 383 q 223 708 201 604 q 288 912 244 813 q 393 1098 331 1011 q 538 1251 456 1185 q 720 1356 619 1318 q 938 1393 821 1393 q 1131 1356 1044 1393 q 1278 1250 1217 1319 q 1372 1083 1339 1181 q 1404 865 1404 986 q 1381 652 1404 758 q 1315 446 1358 546 q 1208 260 1271 346 q 1063 110 1144 174 q 883 10 982 46 q 671 -26 785 -26 m 689 92 q 859 123 781 92 q 1003 210 938 154 q 1119 340 1068 267 q 1204 498 1169 413 q 1257 672 1239 583 q 1275 849 1275 761 q 1252 1031 1275 951 q 1183 1165 1229 1111 q 1072 1247 1138 1219 q 919 1275 1006 1275 q 751 1244 831 1275 q 607 1156 672 1213 q 490 1025 542 1099 q 403 867 439 951 q 349 695 368 783 q 331 521 331 607 q 354 338 331 418 q 423 203 378 258 q 535 120 468 149 q 689 92 601 92 m 799 1453 q 771 1469 783 1453 q 758 1501 758 1486 q 763 1521 758 1514 q 772 1533 767 1528 l 994 1711 q 1032 1735 1014 1728 q 1072 1742 1050 1742 q 1106 1733 1092 1742 q 1132 1707 1119 1724 l 1267 1525 q 1275 1508 1274 1515 q 1276 1494 1276 1500 q 1258 1465 1276 1478 q 1228 1453 1240 1453 q 1204 1459 1214 1453 q 1185 1475 1194 1465 l 1050 1601 l 840 1468 q 820 1458 831 1463 q 799 1453 810 1453 m 1350 1646 q 1338 1649 1344 1646 q 1325 1660 1332 1653 l 1150 1849 q 1134 1868 1139 1861 q 1129 1885 1129 1875 q 1142 1917 1129 1900 q 1175 1944 1156 1933 q 1210 1954 1194 1954 q 1226 1950 1218 1954 q 1239 1939 1233 1946 l 1393 1725 q 1402 1708 1400 1713 q 1404 1697 1404 1703 q 1386 1664 1404 1682 q 1350 1646 1368 1646 z "},"Ổ":{"ha":1413,"x_min":201,"x_max":1474,"o":"m 671 -26 q 477 11 564 -26 q 329 118 390 49 q 235 285 268 188 q 201 504 201 383 q 223 708 201 604 q 288 912 244 813 q 393 1098 331 1011 q 538 1251 456 1185 q 720 1356 619 1318 q 938 1393 821 1393 q 1131 1356 1044 1393 q 1278 1250 1217 1319 q 1372 1083 1339 1181 q 1404 865 1404 986 q 1381 652 1404 758 q 1315 446 1358 546 q 1208 260 1271 346 q 1063 110 1144 174 q 883 10 982 46 q 671 -26 785 -26 m 689 92 q 859 123 781 92 q 1003 210 938 154 q 1119 340 1068 267 q 1204 498 1169 413 q 1257 672 1239 583 q 1275 849 1275 761 q 1252 1031 1275 951 q 1183 1165 1229 1111 q 1072 1247 1138 1219 q 919 1275 1006 1275 q 751 1244 831 1275 q 607 1156 672 1213 q 490 1025 542 1099 q 403 867 439 951 q 349 695 368 783 q 331 521 331 607 q 354 338 331 418 q 423 203 378 258 q 535 120 468 149 q 689 92 601 92 m 799 1453 q 771 1469 783 1453 q 758 1501 758 1486 q 763 1521 758 1514 q 772 1533 767 1528 l 994 1711 q 1032 1735 1014 1728 q 1072 1742 1050 1742 q 1106 1733 1092 1742 q 1132 1707 1119 1724 l 1267 1525 q 1275 1508 1274 1515 q 1276 1494 1276 1500 q 1258 1465 1276 1478 q 1228 1453 1240 1453 q 1204 1459 1214 1453 q 1185 1475 1194 1465 l 1050 1601 l 840 1468 q 820 1458 831 1463 q 799 1453 810 1453 m 1339 1978 q 1438 1949 1403 1978 q 1474 1872 1474 1921 q 1453 1802 1474 1833 q 1392 1742 1433 1771 q 1360 1715 1369 1726 q 1349 1688 1351 1703 l 1346 1668 q 1328 1642 1343 1650 q 1296 1633 1314 1633 q 1263 1642 1278 1633 q 1247 1668 1249 1651 l 1244 1699 q 1253 1756 1240 1732 q 1293 1799 1267 1779 q 1328 1829 1317 1815 q 1339 1853 1339 1843 q 1331 1870 1339 1864 q 1304 1876 1322 1876 q 1272 1872 1290 1876 q 1231 1860 1253 1867 q 1175 1885 1194 1842 q 1197 1944 1160 1925 q 1264 1969 1229 1960 q 1339 1978 1299 1978 z "},"Ỗ":{"ha":1413,"x_min":201,"x_max":1404,"o":"m 671 -26 q 477 11 564 -26 q 329 118 390 49 q 235 285 268 188 q 201 504 201 383 q 223 708 201 604 q 288 912 244 813 q 393 1098 331 1011 q 538 1251 456 1185 q 720 1356 619 1318 q 938 1393 821 1393 q 1131 1356 1044 1393 q 1278 1250 1217 1319 q 1372 1083 1339 1181 q 1404 865 1404 986 q 1381 652 1404 758 q 1315 446 1358 546 q 1208 260 1271 346 q 1063 110 1144 174 q 883 10 982 46 q 671 -26 785 -26 m 689 92 q 859 123 781 92 q 1003 210 938 154 q 1119 340 1068 267 q 1204 498 1169 413 q 1257 672 1239 583 q 1275 849 1275 761 q 1252 1031 1275 951 q 1183 1165 1229 1111 q 1072 1247 1138 1219 q 919 1275 1006 1275 q 751 1244 831 1275 q 607 1156 672 1213 q 490 1025 542 1099 q 403 867 439 951 q 349 695 368 783 q 331 521 331 607 q 354 338 331 418 q 423 203 378 258 q 535 120 468 149 q 689 92 601 92 m 799 1453 q 771 1469 783 1453 q 758 1501 758 1486 q 763 1521 758 1514 q 772 1533 767 1528 l 994 1711 q 1032 1735 1014 1728 q 1072 1742 1050 1742 q 1106 1733 1092 1742 q 1132 1707 1119 1724 l 1267 1525 q 1275 1508 1274 1515 q 1276 1494 1276 1500 q 1258 1465 1276 1478 q 1228 1453 1240 1453 q 1204 1459 1214 1453 q 1185 1475 1194 1465 l 1050 1601 l 840 1468 q 820 1458 831 1463 q 799 1453 810 1453 m 872 1763 q 829 1800 828 1763 q 867 1934 835 1892 q 960 1976 900 1976 q 1038 1962 1000 1976 q 1109 1927 1075 1947 q 1172 1892 1143 1907 q 1221 1878 1200 1878 q 1244 1892 1232 1878 q 1261 1942 1256 1907 q 1317 1978 1265 1978 q 1349 1969 1340 1978 q 1357 1940 1358 1960 q 1321 1807 1351 1850 q 1225 1764 1290 1764 q 1145 1778 1182 1764 q 1076 1813 1108 1793 q 1016 1846 1043 1832 q 964 1860 989 1860 q 937 1845 947 1860 q 924 1799 926 1831 q 908 1772 921 1781 q 872 1763 894 1763 z "},"Ọ":{"ha":1413,"x_min":201,"x_max":1404,"o":"m 671 -26 q 477 11 564 -26 q 329 118 390 49 q 235 285 268 188 q 201 504 201 383 q 223 708 201 604 q 288 912 244 813 q 393 1098 331 1011 q 538 1251 456 1185 q 720 1356 619 1318 q 938 1393 821 1393 q 1131 1356 1044 1393 q 1278 1250 1217 1319 q 1372 1083 1339 1181 q 1404 865 1404 986 q 1381 652 1404 758 q 1315 446 1358 546 q 1208 260 1271 346 q 1063 110 1144 174 q 883 10 982 46 q 671 -26 785 -26 m 689 92 q 859 123 781 92 q 1003 210 938 154 q 1119 340 1068 267 q 1204 498 1169 413 q 1257 672 1239 583 q 1275 849 1275 761 q 1252 1031 1275 951 q 1183 1165 1229 1111 q 1072 1247 1138 1219 q 919 1275 1006 1275 q 751 1244 831 1275 q 607 1156 672 1213 q 490 1025 542 1099 q 403 867 439 951 q 349 695 368 783 q 331 521 331 607 q 354 338 331 418 q 423 203 378 258 q 535 120 468 149 q 689 92 601 92 m 522 -322 q 474 -304 493 -322 q 454 -250 454 -286 q 478 -179 454 -211 q 551 -147 501 -147 q 601 -166 582 -147 q 621 -221 621 -185 q 597 -291 621 -260 q 522 -322 572 -322 z "},"Ỏ":{"ha":1413,"x_min":201,"x_max":1404,"o":"m 671 -26 q 477 11 564 -26 q 329 118 390 49 q 235 285 268 188 q 201 504 201 383 q 223 708 201 604 q 288 912 244 813 q 393 1098 331 1011 q 538 1251 456 1185 q 720 1356 619 1318 q 938 1393 821 1393 q 1131 1356 1044 1393 q 1278 1250 1217 1319 q 1372 1083 1339 1181 q 1404 865 1404 986 q 1381 652 1404 758 q 1315 446 1358 546 q 1208 260 1271 346 q 1063 110 1144 174 q 883 10 982 46 q 671 -26 785 -26 m 689 92 q 859 123 781 92 q 1003 210 938 154 q 1119 340 1068 267 q 1204 498 1169 413 q 1257 672 1239 583 q 1275 849 1275 761 q 1252 1031 1275 951 q 1183 1165 1229 1111 q 1072 1247 1138 1219 q 919 1275 1006 1275 q 751 1244 831 1275 q 607 1156 672 1213 q 490 1025 542 1099 q 403 867 439 951 q 349 695 368 783 q 331 521 331 607 q 354 338 331 418 q 423 203 378 258 q 535 120 468 149 q 689 92 601 92 m 1061 1783 q 1159 1755 1124 1783 q 1194 1678 1194 1726 q 1175 1608 1194 1639 q 1113 1547 1156 1576 q 1082 1520 1092 1532 q 1071 1493 1072 1508 l 1067 1474 q 1050 1447 1065 1456 q 1017 1439 1035 1439 q 985 1448 999 1439 q 968 1474 971 1457 l 965 1504 q 975 1561 963 1538 q 1015 1604 988 1585 q 1049 1635 1038 1621 q 1061 1658 1061 1649 q 1052 1676 1061 1669 q 1026 1682 1043 1682 q 993 1677 1011 1682 q 953 1665 975 1672 q 896 1689 917 1647 q 918 1750 881 1731 q 986 1774 951 1765 q 1061 1783 1021 1783 z "},"Ơ":{"ha":1413,"x_min":201,"x_max":1474,"o":"m 671 -26 q 477 11 564 -26 q 329 118 390 49 q 235 285 268 188 q 201 504 201 383 q 223 708 201 604 q 288 912 244 813 q 393 1098 331 1011 q 538 1251 456 1185 q 720 1356 619 1318 q 938 1393 821 1393 q 1037 1383 990 1393 q 1124 1353 1083 1374 q 1248 1372 1200 1357 q 1322 1419 1296 1388 q 1355 1501 1347 1450 q 1358 1625 1363 1551 q 1374 1655 1358 1644 q 1410 1667 1389 1665 q 1448 1660 1431 1668 q 1467 1631 1465 1651 q 1468 1509 1474 1565 q 1438 1408 1463 1453 q 1366 1333 1414 1364 q 1238 1288 1318 1301 q 1360 1111 1317 1219 q 1404 865 1404 1003 q 1381 652 1404 758 q 1315 446 1358 546 q 1208 260 1271 346 q 1063 110 1144 174 q 883 10 982 46 q 671 -26 785 -26 m 689 92 q 859 123 781 92 q 1003 210 938 154 q 1119 340 1068 267 q 1204 498 1169 413 q 1257 672 1239 583 q 1275 849 1275 761 q 1252 1031 1275 951 q 1183 1165 1229 1111 q 1072 1247 1138 1219 q 919 1275 1006 1275 q 751 1244 831 1275 q 607 1156 672 1213 q 490 1025 542 1099 q 403 867 439 951 q 349 695 368 783 q 331 521 331 607 q 354 338 331 418 q 423 203 378 258 q 535 120 468 149 q 689 92 601 92 z "},"Ớ":{"ha":1413,"x_min":201,"x_max":1474,"o":"m 671 -26 q 477 11 564 -26 q 329 118 390 49 q 235 285 268 188 q 201 504 201 383 q 223 708 201 604 q 288 912 244 813 q 393 1098 331 1011 q 538 1251 456 1185 q 720 1356 619 1318 q 938 1393 821 1393 q 1037 1383 990 1393 q 1124 1353 1083 1374 q 1248 1372 1200 1357 q 1322 1419 1296 1388 q 1355 1501 1347 1450 q 1358 1625 1363 1551 q 1374 1655 1358 1644 q 1410 1667 1389 1665 q 1448 1660 1431 1668 q 1467 1631 1465 1651 q 1468 1509 1474 1565 q 1438 1408 1463 1453 q 1366 1333 1414 1364 q 1238 1288 1318 1301 q 1360 1111 1317 1219 q 1404 865 1404 1003 q 1381 652 1404 758 q 1315 446 1358 546 q 1208 260 1271 346 q 1063 110 1144 174 q 883 10 982 46 q 671 -26 785 -26 m 689 92 q 859 123 781 92 q 1003 210 938 154 q 1119 340 1068 267 q 1204 498 1169 413 q 1257 672 1239 583 q 1275 849 1275 761 q 1252 1031 1275 951 q 1183 1165 1229 1111 q 1072 1247 1138 1219 q 919 1275 1006 1275 q 751 1244 831 1275 q 607 1156 672 1213 q 490 1025 542 1099 q 403 867 439 951 q 349 695 368 783 q 331 521 331 607 q 354 338 331 418 q 423 203 378 258 q 535 120 468 149 q 689 92 601 92 m 936 1453 q 902 1472 921 1453 q 883 1504 883 1490 q 885 1515 883 1510 q 896 1529 886 1521 l 1111 1731 q 1125 1742 1119 1738 q 1139 1746 1131 1746 q 1170 1733 1153 1746 q 1201 1704 1188 1721 q 1214 1672 1214 1688 q 1211 1656 1214 1663 q 1193 1638 1208 1649 l 963 1467 q 948 1457 954 1461 q 936 1453 942 1453 z "},"Ợ":{"ha":1413,"x_min":201,"x_max":1474,"o":"m 671 -26 q 477 11 564 -26 q 329 118 390 49 q 235 285 268 188 q 201 504 201 383 q 223 708 201 604 q 288 912 244 813 q 393 1098 331 1011 q 538 1251 456 1185 q 720 1356 619 1318 q 938 1393 821 1393 q 1037 1383 990 1393 q 1124 1353 1083 1374 q 1248 1372 1200 1357 q 1322 1419 1296 1388 q 1355 1501 1347 1450 q 1358 1625 1363 1551 q 1374 1655 1358 1644 q 1410 1667 1389 1665 q 1448 1660 1431 1668 q 1467 1631 1465 1651 q 1468 1509 1474 1565 q 1438 1408 1463 1453 q 1366 1333 1414 1364 q 1238 1288 1318 1301 q 1360 1111 1317 1219 q 1404 865 1404 1003 q 1381 652 1404 758 q 1315 446 1358 546 q 1208 260 1271 346 q 1063 110 1144 174 q 883 10 982 46 q 671 -26 785 -26 m 689 92 q 859 123 781 92 q 1003 210 938 154 q 1119 340 1068 267 q 1204 498 1169 413 q 1257 672 1239 583 q 1275 849 1275 761 q 1252 1031 1275 951 q 1183 1165 1229 1111 q 1072 1247 1138 1219 q 919 1275 1006 1275 q 751 1244 831 1275 q 607 1156 672 1213 q 490 1025 542 1099 q 403 867 439 951 q 349 695 368 783 q 331 521 331 607 q 354 338 331 418 q 423 203 378 258 q 535 120 468 149 q 689 92 601 92 m 522 -322 q 474 -304 493 -322 q 454 -250 454 -286 q 478 -179 454 -211 q 551 -147 501 -147 q 601 -166 582 -147 q 621 -221 621 -185 q 597 -291 621 -260 q 522 -322 572 -322 z "},"Ờ":{"ha":1413,"x_min":201,"x_max":1474,"o":"m 671 -26 q 477 11 564 -26 q 329 118 390 49 q 235 285 268 188 q 201 504 201 383 q 223 708 201 604 q 288 912 244 813 q 393 1098 331 1011 q 538 1251 456 1185 q 720 1356 619 1318 q 938 1393 821 1393 q 1037 1383 990 1393 q 1124 1353 1083 1374 q 1248 1372 1200 1357 q 1322 1419 1296 1388 q 1355 1501 1347 1450 q 1358 1625 1363 1551 q 1374 1655 1358 1644 q 1410 1667 1389 1665 q 1448 1660 1431 1668 q 1467 1631 1465 1651 q 1468 1509 1474 1565 q 1438 1408 1463 1453 q 1366 1333 1414 1364 q 1238 1288 1318 1301 q 1360 1111 1317 1219 q 1404 865 1404 1003 q 1381 652 1404 758 q 1315 446 1358 546 q 1208 260 1271 346 q 1063 110 1144 174 q 883 10 982 46 q 671 -26 785 -26 m 689 92 q 859 123 781 92 q 1003 210 938 154 q 1119 340 1068 267 q 1204 498 1169 413 q 1257 672 1239 583 q 1275 849 1275 761 q 1252 1031 1275 951 q 1183 1165 1229 1111 q 1072 1247 1138 1219 q 919 1275 1006 1275 q 751 1244 831 1275 q 607 1156 672 1213 q 490 1025 542 1099 q 403 867 439 951 q 349 695 368 783 q 331 521 331 607 q 354 338 331 418 q 423 203 378 258 q 535 120 468 149 q 689 92 601 92 m 1076 1453 q 1064 1457 1071 1453 q 1050 1467 1057 1461 l 850 1639 q 833 1657 836 1650 q 829 1674 829 1664 q 843 1704 829 1688 q 874 1733 857 1721 q 906 1746 892 1746 q 920 1742 914 1746 q 933 1731 926 1738 l 1117 1528 q 1128 1513 1126 1518 q 1129 1504 1129 1508 q 1110 1472 1129 1490 q 1076 1453 1092 1453 z "},"Ở":{"ha":1413,"x_min":201,"x_max":1474,"o":"m 671 -26 q 477 11 564 -26 q 329 118 390 49 q 235 285 268 188 q 201 504 201 383 q 223 708 201 604 q 288 912 244 813 q 393 1098 331 1011 q 538 1251 456 1185 q 720 1356 619 1318 q 938 1393 821 1393 q 1037 1383 990 1393 q 1124 1353 1083 1374 q 1248 1372 1200 1357 q 1322 1419 1296 1388 q 1355 1501 1347 1450 q 1358 1625 1363 1551 q 1374 1655 1358 1644 q 1410 1667 1389 1665 q 1448 1660 1431 1668 q 1467 1631 1465 1651 q 1468 1509 1474 1565 q 1438 1408 1463 1453 q 1366 1333 1414 1364 q 1238 1288 1318 1301 q 1360 1111 1317 1219 q 1404 865 1404 1003 q 1381 652 1404 758 q 1315 446 1358 546 q 1208 260 1271 346 q 1063 110 1144 174 q 883 10 982 46 q 671 -26 785 -26 m 689 92 q 859 123 781 92 q 1003 210 938 154 q 1119 340 1068 267 q 1204 498 1169 413 q 1257 672 1239 583 q 1275 849 1275 761 q 1252 1031 1275 951 q 1183 1165 1229 1111 q 1072 1247 1138 1219 q 919 1275 1006 1275 q 751 1244 831 1275 q 607 1156 672 1213 q 490 1025 542 1099 q 403 867 439 951 q 349 695 368 783 q 331 521 331 607 q 354 338 331 418 q 423 203 378 258 q 535 120 468 149 q 689 92 601 92 m 1061 1783 q 1159 1755 1124 1783 q 1194 1678 1194 1726 q 1175 1608 1194 1639 q 1113 1547 1156 1576 q 1082 1520 1092 1532 q 1071 1493 1072 1508 l 1067 1474 q 1050 1447 1065 1456 q 1017 1439 1035 1439 q 985 1448 999 1439 q 968 1474 971 1457 l 965 1504 q 975 1561 963 1538 q 1015 1604 988 1585 q 1049 1635 1038 1621 q 1061 1658 1061 1649 q 1052 1676 1061 1669 q 1026 1682 1043 1682 q 993 1677 1011 1682 q 953 1665 975 1672 q 896 1689 917 1647 q 918 1750 881 1731 q 986 1774 951 1765 q 1061 1783 1021 1783 z "},"Ỡ":{"ha":1413,"x_min":201,"x_max":1474,"o":"m 671 -26 q 477 11 564 -26 q 329 118 390 49 q 235 285 268 188 q 201 504 201 383 q 223 708 201 604 q 288 912 244 813 q 393 1098 331 1011 q 538 1251 456 1185 q 720 1356 619 1318 q 938 1393 821 1393 q 1037 1383 990 1393 q 1124 1353 1083 1374 q 1248 1372 1200 1357 q 1322 1419 1296 1388 q 1355 1501 1347 1450 q 1358 1625 1363 1551 q 1374 1655 1358 1644 q 1410 1667 1389 1665 q 1448 1660 1431 1668 q 1467 1631 1465 1651 q 1468 1509 1474 1565 q 1438 1408 1463 1453 q 1366 1333 1414 1364 q 1238 1288 1318 1301 q 1360 1111 1317 1219 q 1404 865 1404 1003 q 1381 652 1404 758 q 1315 446 1358 546 q 1208 260 1271 346 q 1063 110 1144 174 q 883 10 982 46 q 671 -26 785 -26 m 689 92 q 859 123 781 92 q 1003 210 938 154 q 1119 340 1068 267 q 1204 498 1169 413 q 1257 672 1239 583 q 1275 849 1275 761 q 1252 1031 1275 951 q 1183 1165 1229 1111 q 1072 1247 1138 1219 q 919 1275 1006 1275 q 751 1244 831 1275 q 607 1156 672 1213 q 490 1025 542 1099 q 403 867 439 951 q 349 695 368 783 q 331 521 331 607 q 354 338 331 418 q 423 203 378 258 q 535 120 468 149 q 689 92 601 92 m 774 1494 q 732 1532 731 1494 q 769 1666 736 1624 q 861 1708 801 1708 q 940 1694 903 1708 q 1012 1659 978 1679 q 1074 1624 1046 1639 q 1124 1610 1103 1610 q 1147 1625 1135 1610 q 1164 1674 1158 1640 q 1219 1710 1167 1710 q 1251 1701 1242 1710 q 1260 1672 1261 1692 q 1223 1539 1254 1582 q 1128 1496 1192 1496 q 1047 1510 1085 1496 q 978 1544 1010 1525 q 918 1578 946 1564 q 867 1593 890 1593 q 840 1578 850 1593 q 825 1531 829 1563 q 810 1503 824 1513 q 774 1494 796 1494 z "},"Ŕ":{"ha":1060,"x_min":99,"x_max":1183,"o":"m 158 -19 q 113 -10 128 -19 q 104 22 99 0 l 481 1332 q 503 1360 486 1351 q 550 1369 519 1369 l 754 1369 q 998 1342 903 1369 q 1138 1253 1093 1315 q 1183 1083 1183 1190 q 1163 957 1183 1015 q 1103 848 1142 899 q 1007 758 1064 797 q 876 689 950 718 q 714 642 803 660 q 522 619 625 625 q 633 431 574 524 q 765 248 693 338 q 924 71 836 158 q 940 41 935 60 q 913 -6 944 22 q 873 -21 893 -24 q 835 -1 853 -18 q 671 183 751 82 q 520 392 590 283 q 393 607 450 501 l 226 19 q 205 -10 219 0 q 158 -19 190 -19 m 425 718 q 586 725 511 718 q 726 748 661 732 q 843 786 790 764 q 936 838 896 808 q 1003 903 976 867 q 1044 983 1031 940 q 1058 1075 1058 1026 q 1029 1186 1058 1146 q 930 1242 1000 1226 q 739 1258 860 1258 l 582 1258 l 425 718 m 792 1453 q 758 1472 776 1453 q 739 1504 739 1490 q 740 1515 739 1510 q 751 1529 742 1521 l 967 1731 q 981 1742 975 1738 q 994 1746 986 1746 q 1026 1733 1008 1746 q 1056 1704 1043 1721 q 1069 1672 1069 1688 q 1067 1656 1069 1663 q 1049 1638 1064 1649 l 818 1467 q 803 1457 810 1461 q 792 1453 797 1453 z "},"Ř":{"ha":1060,"x_min":99,"x_max":1183,"o":"m 158 -19 q 113 -10 128 -19 q 104 22 99 0 l 481 1332 q 503 1360 486 1351 q 550 1369 519 1369 l 754 1369 q 998 1342 903 1369 q 1138 1253 1093 1315 q 1183 1083 1183 1190 q 1163 957 1183 1015 q 1103 848 1142 899 q 1007 758 1064 797 q 876 689 950 718 q 714 642 803 660 q 522 619 625 625 q 633 431 574 524 q 765 248 693 338 q 924 71 836 158 q 940 41 935 60 q 913 -6 944 22 q 873 -21 893 -24 q 835 -1 853 -18 q 671 183 751 82 q 520 392 590 283 q 393 607 450 501 l 226 19 q 205 -10 219 0 q 158 -19 190 -19 m 425 718 q 586 725 511 718 q 726 748 661 732 q 843 786 790 764 q 936 838 896 808 q 1003 903 976 867 q 1044 983 1031 940 q 1058 1075 1058 1026 q 1029 1186 1058 1146 q 930 1242 1000 1226 q 739 1258 860 1258 l 582 1258 l 425 718 m 1121 1742 q 1150 1725 1136 1742 q 1164 1693 1164 1708 q 1160 1674 1164 1681 q 1149 1661 1156 1668 l 926 1485 q 890 1460 907 1468 q 849 1453 872 1453 q 816 1463 831 1453 q 790 1489 801 1472 l 654 1671 q 647 1689 647 1682 q 646 1701 646 1696 q 666 1730 646 1718 q 699 1742 686 1742 q 719 1735 713 1742 q 735 1721 726 1729 l 872 1594 l 1081 1722 q 1099 1735 1089 1728 q 1121 1742 1108 1742 z "},"Ŗ":{"ha":1060,"x_min":99,"x_max":1183,"o":"m 158 -19 q 113 -10 128 -19 q 104 22 99 0 l 481 1332 q 503 1360 486 1351 q 550 1369 519 1369 l 754 1369 q 998 1342 903 1369 q 1138 1253 1093 1315 q 1183 1083 1183 1190 q 1163 957 1183 1015 q 1103 848 1142 899 q 1007 758 1064 797 q 876 689 950 718 q 714 642 803 660 q 522 619 625 625 q 633 431 574 524 q 765 248 693 338 q 924 71 836 158 q 940 41 935 60 q 913 -6 944 22 q 873 -21 893 -24 q 835 -1 853 -18 q 671 183 751 82 q 520 392 590 283 q 393 607 450 501 l 226 19 q 205 -10 219 0 q 158 -19 190 -19 m 425 718 q 586 725 511 718 q 726 748 661 732 q 843 786 790 764 q 936 838 896 808 q 1003 903 976 867 q 1044 983 1031 940 q 1058 1075 1058 1026 q 1029 1186 1058 1146 q 930 1242 1000 1226 q 739 1258 860 1258 l 582 1258 l 425 718 m 338 -399 q 318 -373 321 -387 q 328 -342 315 -358 q 367 -274 351 -304 q 392 -212 383 -244 q 403 -140 400 -181 q 422 -107 406 -117 q 464 -97 438 -97 q 511 -112 496 -97 q 524 -154 526 -128 q 504 -227 521 -187 q 461 -304 488 -267 q 404 -376 435 -342 q 371 -401 388 -394 q 338 -399 354 -407 z "},"Ś":{"ha":1050,"x_min":60,"x_max":1114,"o":"m 478 -26 q 347 -9 408 -26 q 235 38 286 8 q 144 106 185 68 q 72 186 103 144 q 67 217 60 203 q 88 246 74 232 q 123 265 108 261 q 151 254 138 269 q 236 176 188 213 q 346 115 285 139 q 478 92 407 92 q 617 110 553 92 q 728 165 681 129 q 801 253 775 200 q 826 374 826 306 q 812 457 826 419 q 769 527 797 494 q 701 588 742 560 q 606 644 660 617 q 513 699 557 671 q 433 760 469 728 q 369 833 396 793 q 326 922 342 872 q 311 1032 311 971 q 342 1178 311 1111 q 430 1292 372 1244 q 567 1367 488 1340 q 744 1393 647 1393 q 887 1371 824 1393 q 1003 1312 950 1349 q 1099 1231 1056 1275 q 1110 1201 1114 1217 q 1089 1168 1107 1185 q 1057 1150 1074 1153 q 1025 1158 1040 1147 q 950 1215 989 1189 q 863 1258 911 1242 q 744 1275 814 1275 q 622 1260 678 1275 q 526 1214 567 1244 q 463 1138 486 1183 q 440 1032 440 1092 q 453 944 440 982 q 494 874 467 906 q 565 813 521 842 q 669 751 608 783 q 787 681 735 718 q 877 598 839 643 q 935 498 915 553 q 956 375 956 443 q 920 213 956 286 q 820 85 885 139 q 668 3 756 32 q 478 -26 581 -26 m 721 1453 q 687 1472 706 1453 q 668 1504 668 1490 q 669 1515 668 1510 q 681 1529 671 1521 l 896 1731 q 910 1742 904 1738 q 924 1746 915 1746 q 955 1733 938 1746 q 985 1704 972 1721 q 999 1672 999 1688 q 996 1656 999 1663 q 978 1638 993 1649 l 747 1467 q 733 1457 739 1461 q 721 1453 726 1453 z "},"Š":{"ha":1050,"x_min":60,"x_max":1114,"o":"m 478 -26 q 347 -9 408 -26 q 235 38 286 8 q 144 106 185 68 q 72 186 103 144 q 67 217 60 203 q 88 246 74 232 q 123 265 108 261 q 151 254 138 269 q 236 176 188 213 q 346 115 285 139 q 478 92 407 92 q 617 110 553 92 q 728 165 681 129 q 801 253 775 200 q 826 374 826 306 q 812 457 826 419 q 769 527 797 494 q 701 588 742 560 q 606 644 660 617 q 513 699 557 671 q 433 760 469 728 q 369 833 396 793 q 326 922 342 872 q 311 1032 311 971 q 342 1178 311 1111 q 430 1292 372 1244 q 567 1367 488 1340 q 744 1393 647 1393 q 887 1371 824 1393 q 1003 1312 950 1349 q 1099 1231 1056 1275 q 1110 1201 1114 1217 q 1089 1168 1107 1185 q 1057 1150 1074 1153 q 1025 1158 1040 1147 q 950 1215 989 1189 q 863 1258 911 1242 q 744 1275 814 1275 q 622 1260 678 1275 q 526 1214 567 1244 q 463 1138 486 1183 q 440 1032 440 1092 q 453 944 440 982 q 494 874 467 906 q 565 813 521 842 q 669 751 608 783 q 787 681 735 718 q 877 598 839 643 q 935 498 915 553 q 956 375 956 443 q 920 213 956 286 q 820 85 885 139 q 668 3 756 32 q 478 -26 581 -26 m 1050 1742 q 1079 1725 1065 1742 q 1093 1693 1093 1708 q 1089 1674 1093 1681 q 1078 1661 1085 1668 l 856 1485 q 819 1460 836 1468 q 778 1453 801 1453 q 745 1463 760 1453 q 719 1489 731 1472 l 583 1671 q 576 1689 576 1682 q 575 1701 575 1696 q 595 1730 575 1718 q 628 1742 615 1742 q 649 1735 642 1742 q 664 1721 656 1729 l 801 1594 l 1010 1722 q 1028 1735 1018 1728 q 1050 1742 1038 1742 z "},"Ş":{"ha":1050,"x_min":60,"x_max":1114,"o":"m 478 -26 q 347 -9 408 -26 q 235 38 286 8 q 144 106 185 68 q 72 186 103 144 q 67 217 60 203 q 88 246 74 232 q 123 265 108 261 q 151 254 138 269 q 236 176 188 213 q 346 115 285 139 q 478 92 407 92 q 617 110 553 92 q 728 165 681 129 q 801 253 775 200 q 826 374 826 306 q 812 457 826 419 q 769 527 797 494 q 701 588 742 560 q 606 644 660 617 q 513 699 557 671 q 433 760 469 728 q 369 833 396 793 q 326 922 342 872 q 311 1032 311 971 q 342 1178 311 1111 q 430 1292 372 1244 q 567 1367 488 1340 q 744 1393 647 1393 q 887 1371 824 1393 q 1003 1312 950 1349 q 1099 1231 1056 1275 q 1110 1201 1114 1217 q 1089 1168 1107 1185 q 1057 1150 1074 1153 q 1025 1158 1040 1147 q 950 1215 989 1189 q 863 1258 911 1242 q 744 1275 814 1275 q 622 1260 678 1275 q 526 1214 567 1244 q 463 1138 486 1183 q 440 1032 440 1092 q 453 944 440 982 q 494 874 467 906 q 565 813 521 842 q 669 751 608 783 q 787 681 735 718 q 877 598 839 643 q 935 498 915 553 q 956 375 956 443 q 920 213 956 286 q 820 85 885 139 q 668 3 756 32 q 478 -26 581 -26 m 381 -374 q 290 -363 332 -374 q 224 -335 249 -353 q 213 -306 213 -324 q 221 -276 214 -289 q 243 -252 231 -258 q 269 -251 256 -246 q 314 -269 288 -260 q 382 -278 340 -278 q 436 -267 417 -278 q 456 -229 456 -257 q 429 -192 456 -200 q 363 -187 403 -183 q 341 -185 347 -189 q 328 -172 335 -181 q 324 -153 322 -162 q 333 -135 326 -144 l 431 18 l 522 18 l 419 -146 l 378 -124 q 483 -112 440 -104 q 550 -147 526 -119 q 574 -217 574 -175 q 547 -303 574 -268 q 477 -356 521 -337 q 381 -374 433 -374 z "},"Ŝ":{"ha":1050,"x_min":60,"x_max":1114,"o":"m 478 -26 q 347 -9 408 -26 q 235 38 286 8 q 144 106 185 68 q 72 186 103 144 q 67 217 60 203 q 88 246 74 232 q 123 265 108 261 q 151 254 138 269 q 236 176 188 213 q 346 115 285 139 q 478 92 407 92 q 617 110 553 92 q 728 165 681 129 q 801 253 775 200 q 826 374 826 306 q 812 457 826 419 q 769 527 797 494 q 701 588 742 560 q 606 644 660 617 q 513 699 557 671 q 433 760 469 728 q 369 833 396 793 q 326 922 342 872 q 311 1032 311 971 q 342 1178 311 1111 q 430 1292 372 1244 q 567 1367 488 1340 q 744 1393 647 1393 q 887 1371 824 1393 q 1003 1312 950 1349 q 1099 1231 1056 1275 q 1110 1201 1114 1217 q 1089 1168 1107 1185 q 1057 1150 1074 1153 q 1025 1158 1040 1147 q 950 1215 989 1189 q 863 1258 911 1242 q 744 1275 814 1275 q 622 1260 678 1275 q 526 1214 567 1244 q 463 1138 486 1183 q 440 1032 440 1092 q 453 944 440 982 q 494 874 467 906 q 565 813 521 842 q 669 751 608 783 q 787 681 735 718 q 877 598 839 643 q 935 498 915 553 q 956 375 956 443 q 920 213 956 286 q 820 85 885 139 q 668 3 756 32 q 478 -26 581 -26 m 583 1453 q 556 1469 568 1453 q 543 1501 543 1486 q 547 1521 543 1514 q 557 1533 551 1528 l 779 1711 q 817 1735 799 1728 q 857 1742 835 1742 q 890 1733 876 1742 q 917 1707 904 1724 l 1051 1525 q 1060 1508 1058 1515 q 1061 1494 1061 1500 q 1043 1465 1061 1478 q 1013 1453 1025 1453 q 989 1459 999 1453 q 969 1475 979 1465 l 835 1601 l 625 1468 q 605 1458 615 1463 q 583 1453 594 1453 z "},"Ș":{"ha":1050,"x_min":60,"x_max":1114,"o":"m 478 -26 q 347 -9 408 -26 q 235 38 286 8 q 144 106 185 68 q 72 186 103 144 q 67 217 60 203 q 88 246 74 232 q 123 265 108 261 q 151 254 138 269 q 236 176 188 213 q 346 115 285 139 q 478 92 407 92 q 617 110 553 92 q 728 165 681 129 q 801 253 775 200 q 826 374 826 306 q 812 457 826 419 q 769 527 797 494 q 701 588 742 560 q 606 644 660 617 q 513 699 557 671 q 433 760 469 728 q 369 833 396 793 q 326 922 342 872 q 311 1032 311 971 q 342 1178 311 1111 q 430 1292 372 1244 q 567 1367 488 1340 q 744 1393 647 1393 q 887 1371 824 1393 q 1003 1312 950 1349 q 1099 1231 1056 1275 q 1110 1201 1114 1217 q 1089 1168 1107 1185 q 1057 1150 1074 1153 q 1025 1158 1040 1147 q 950 1215 989 1189 q 863 1258 911 1242 q 744 1275 814 1275 q 622 1260 678 1275 q 526 1214 567 1244 q 463 1138 486 1183 q 440 1032 440 1092 q 453 944 440 982 q 494 874 467 906 q 565 813 521 842 q 669 751 608 783 q 787 681 735 718 q 877 598 839 643 q 935 498 915 553 q 956 375 956 443 q 920 213 956 286 q 820 85 885 139 q 668 3 756 32 q 478 -26 581 -26 m 307 -399 q 288 -373 290 -387 q 297 -342 285 -358 q 337 -274 321 -304 q 361 -212 353 -244 q 372 -140 369 -181 q 391 -107 375 -117 q 433 -97 407 -97 q 481 -112 465 -97 q 493 -154 496 -128 q 474 -227 490 -187 q 431 -304 457 -267 q 374 -376 404 -342 q 340 -401 357 -394 q 307 -399 324 -407 z "},"Ŧ":{"ha":1054,"x_min":296,"x_max":1317,"o":"m 422 -21 q 372 18 363 -21 l 732 1258 l 328 1258 q 301 1271 307 1258 q 304 1314 296 1283 q 326 1358 314 1346 q 360 1369 339 1369 l 1286 1369 q 1312 1358 1307 1369 q 1307 1314 1317 1346 q 1287 1271 1299 1283 q 1254 1258 1275 1258 l 853 1258 l 493 18 q 470 -11 488 -1 q 422 -21 453 -21 m 349 633 q 321 649 324 633 q 321 682 318 664 q 334 718 325 701 q 369 735 343 735 l 914 735 q 942 718 939 735 q 942 682 946 701 q 929 649 939 664 q 894 633 919 633 l 349 633 z "},"Ť":{"ha":1054,"x_min":296,"x_max":1317,"o":"m 422 -21 q 372 18 363 -21 l 732 1258 l 328 1258 q 301 1271 307 1258 q 304 1314 296 1283 q 326 1358 314 1346 q 360 1369 339 1369 l 1286 1369 q 1312 1358 1307 1369 q 1307 1314 1317 1346 q 1287 1271 1299 1283 q 1254 1258 1275 1258 l 853 1258 l 493 18 q 470 -11 488 -1 q 422 -21 453 -21 m 1114 1742 q 1143 1725 1129 1742 q 1157 1693 1157 1708 q 1153 1674 1157 1681 q 1142 1661 1149 1668 l 919 1485 q 883 1460 900 1468 q 842 1453 865 1453 q 809 1463 824 1453 q 783 1489 794 1472 l 647 1671 q 640 1689 640 1682 q 639 1701 639 1696 q 659 1730 639 1718 q 692 1742 679 1742 q 713 1735 706 1742 q 728 1721 719 1729 l 865 1594 l 1074 1722 q 1092 1735 1082 1728 q 1114 1742 1101 1742 z "},"Ţ":{"ha":1054,"x_min":181,"x_max":1317,"o":"m 422 -21 q 372 18 363 -21 l 732 1258 l 328 1258 q 301 1271 307 1258 q 304 1314 296 1283 q 326 1358 314 1346 q 360 1369 339 1369 l 1286 1369 q 1312 1358 1307 1369 q 1307 1314 1317 1346 q 1287 1271 1299 1283 q 1254 1258 1275 1258 l 853 1258 l 493 18 q 470 -11 488 -1 q 422 -21 453 -21 m 349 -374 q 258 -363 300 -374 q 192 -335 217 -353 q 181 -306 181 -324 q 189 -276 182 -289 q 211 -252 199 -258 q 238 -251 224 -246 q 282 -269 256 -260 q 350 -278 308 -278 q 404 -267 385 -278 q 424 -229 424 -257 q 397 -192 424 -200 q 331 -187 371 -183 q 309 -185 315 -189 q 296 -172 303 -181 q 292 -153 290 -162 q 301 -135 294 -144 l 399 18 l 490 18 l 388 -146 l 346 -124 q 451 -112 408 -104 q 518 -147 494 -119 q 542 -217 542 -175 q 515 -303 542 -268 q 445 -356 489 -337 q 349 -374 401 -374 z "},"Ț":{"ha":1054,"x_min":253,"x_max":1317,"o":"m 422 -21 q 372 18 363 -21 l 732 1258 l 328 1258 q 301 1271 307 1258 q 304 1314 296 1283 q 326 1358 314 1346 q 360 1369 339 1369 l 1286 1369 q 1312 1358 1307 1369 q 1307 1314 1317 1346 q 1287 1271 1299 1283 q 1254 1258 1275 1258 l 853 1258 l 493 18 q 470 -11 488 -1 q 422 -21 453 -21 m 275 -399 q 256 -373 258 -387 q 265 -342 253 -358 q 305 -274 289 -304 q 329 -212 321 -244 q 340 -140 338 -181 q 359 -107 343 -117 q 401 -97 375 -97 q 449 -112 433 -97 q 461 -154 464 -128 q 442 -227 458 -187 q 399 -304 425 -267 q 342 -376 372 -342 q 308 -401 325 -394 q 275 -399 292 -407 z "},"Ú":{"ha":1318,"x_min":183,"x_max":1428,"o":"m 581 -26 q 383 6 467 -26 q 251 99 300 38 q 193 251 203 160 q 217 457 183 342 l 469 1356 q 492 1384 476 1375 q 540 1393 508 1393 q 588 1383 572 1393 q 597 1351 603 1374 l 336 443 q 322 244 301 322 q 411 129 342 167 q 590 92 481 92 q 799 132 710 92 q 949 251 889 172 q 1042 443 1010 329 l 1293 1356 q 1315 1384 1299 1375 q 1363 1393 1331 1393 q 1417 1351 1428 1393 l 1161 429 q 1040 179 1121 281 q 843 26 958 78 q 581 -26 728 -26 m 892 1453 q 858 1472 876 1453 q 839 1504 839 1490 q 840 1515 839 1510 q 851 1529 842 1521 l 1067 1731 q 1081 1742 1075 1738 q 1094 1746 1086 1746 q 1126 1733 1108 1746 q 1156 1704 1143 1721 q 1169 1672 1169 1688 q 1167 1656 1169 1663 q 1149 1638 1164 1649 l 918 1467 q 903 1457 910 1461 q 892 1453 897 1453 z "},"Ŭ":{"ha":1318,"x_min":183,"x_max":1428,"o":"m 581 -26 q 383 6 467 -26 q 251 99 300 38 q 193 251 203 160 q 217 457 183 342 l 469 1356 q 492 1384 476 1375 q 540 1393 508 1393 q 588 1383 572 1393 q 597 1351 603 1374 l 336 443 q 322 244 301 322 q 411 129 342 167 q 590 92 481 92 q 799 132 710 92 q 949 251 889 172 q 1042 443 1010 329 l 1293 1356 q 1315 1384 1299 1375 q 1363 1393 1331 1393 q 1417 1351 1428 1393 l 1161 429 q 1040 179 1121 281 q 843 26 958 78 q 581 -26 728 -26 m 964 1451 q 807 1514 861 1451 q 764 1703 753 1576 q 778 1733 765 1724 q 813 1742 792 1742 q 846 1731 833 1742 q 860 1703 858 1721 q 894 1603 860 1635 q 982 1572 929 1572 q 1092 1608 1047 1572 q 1161 1700 1138 1644 q 1184 1733 1172 1725 q 1215 1742 1196 1742 q 1253 1729 1240 1742 q 1260 1696 1267 1717 q 1192 1549 1231 1603 q 1097 1474 1153 1496 q 964 1451 1042 1451 z "},"Ǔ":{"ha":1318,"x_min":183,"x_max":1428,"o":"m 581 -26 q 383 6 467 -26 q 251 99 300 38 q 193 251 203 160 q 217 457 183 342 l 469 1356 q 492 1384 476 1375 q 540 1393 508 1393 q 588 1383 572 1393 q 597 1351 603 1374 l 336 443 q 322 244 301 322 q 411 129 342 167 q 590 92 481 92 q 799 132 710 92 q 949 251 889 172 q 1042 443 1010 329 l 1293 1356 q 1315 1384 1299 1375 q 1363 1393 1331 1393 q 1417 1351 1428 1393 l 1161 429 q 1040 179 1121 281 q 843 26 958 78 q 581 -26 728 -26 m 1221 1742 q 1250 1725 1236 1742 q 1264 1693 1264 1708 q 1260 1674 1264 1681 q 1249 1661 1256 1668 l 1026 1485 q 990 1460 1007 1468 q 949 1453 972 1453 q 916 1463 931 1453 q 890 1489 901 1472 l 754 1671 q 747 1689 747 1682 q 746 1701 746 1696 q 766 1730 746 1718 q 799 1742 786 1742 q 819 1735 813 1742 q 835 1721 826 1729 l 972 1594 l 1181 1722 q 1199 1735 1189 1728 q 1221 1742 1208 1742 z "},"Û":{"ha":1318,"x_min":183,"x_max":1428,"o":"m 581 -26 q 383 6 467 -26 q 251 99 300 38 q 193 251 203 160 q 217 457 183 342 l 469 1356 q 492 1384 476 1375 q 540 1393 508 1393 q 588 1383 572 1393 q 597 1351 603 1374 l 336 443 q 322 244 301 322 q 411 129 342 167 q 590 92 481 92 q 799 132 710 92 q 949 251 889 172 q 1042 443 1010 329 l 1293 1356 q 1315 1384 1299 1375 q 1363 1393 1331 1393 q 1417 1351 1428 1393 l 1161 429 q 1040 179 1121 281 q 843 26 958 78 q 581 -26 728 -26 m 754 1453 q 726 1469 739 1453 q 714 1501 714 1486 q 718 1521 714 1514 q 728 1533 722 1528 l 950 1711 q 988 1735 969 1728 q 1028 1742 1006 1742 q 1061 1733 1047 1742 q 1088 1707 1075 1724 l 1222 1525 q 1231 1508 1229 1515 q 1232 1494 1232 1500 q 1214 1465 1232 1478 q 1183 1453 1196 1453 q 1160 1459 1169 1453 q 1140 1475 1150 1465 l 1006 1601 l 796 1468 q 776 1458 786 1463 q 754 1453 765 1453 z "},"Ü":{"ha":1318,"x_min":183,"x_max":1428,"o":"m 581 -26 q 383 6 467 -26 q 251 99 300 38 q 193 251 203 160 q 217 457 183 342 l 469 1356 q 492 1384 476 1375 q 540 1393 508 1393 q 588 1383 572 1393 q 597 1351 603 1374 l 336 443 q 322 244 301 322 q 411 129 342 167 q 590 92 481 92 q 799 132 710 92 q 949 251 889 172 q 1042 443 1010 329 l 1293 1356 q 1315 1384 1299 1375 q 1363 1393 1331 1393 q 1417 1351 1428 1393 l 1161 429 q 1040 179 1121 281 q 843 26 958 78 q 581 -26 728 -26 m 801 1500 q 751 1518 771 1500 q 732 1574 732 1536 q 756 1643 732 1611 q 831 1675 781 1675 q 879 1657 860 1675 q 899 1603 899 1639 q 876 1531 899 1563 q 801 1500 853 1500 m 1143 1500 q 1094 1518 1114 1500 q 1074 1574 1074 1536 q 1098 1643 1074 1611 q 1172 1675 1122 1675 q 1222 1657 1201 1675 q 1242 1603 1242 1639 q 1217 1531 1242 1563 q 1143 1500 1193 1500 z "},"Ù":{"ha":1318,"x_min":183,"x_max":1428,"o":"m 581 -26 q 383 6 467 -26 q 251 99 300 38 q 193 251 203 160 q 217 457 183 342 l 469 1356 q 492 1384 476 1375 q 540 1393 508 1393 q 588 1383 572 1393 q 597 1351 603 1374 l 336 443 q 322 244 301 322 q 411 129 342 167 q 590 92 481 92 q 799 132 710 92 q 949 251 889 172 q 1042 443 1010 329 l 1293 1356 q 1315 1384 1299 1375 q 1363 1393 1331 1393 q 1417 1351 1428 1393 l 1161 429 q 1040 179 1121 281 q 843 26 958 78 q 581 -26 728 -26 m 1032 1453 q 1019 1457 1026 1453 q 1006 1467 1013 1461 l 806 1639 q 788 1657 792 1650 q 785 1674 785 1664 q 799 1704 785 1688 q 830 1733 813 1721 q 861 1746 847 1746 q 876 1742 869 1746 q 889 1731 882 1738 l 1072 1528 q 1083 1513 1082 1518 q 1085 1504 1085 1508 q 1066 1472 1085 1490 q 1032 1453 1047 1453 z "},"Ű":{"ha":1318,"x_min":183,"x_max":1428,"o":"m 581 -26 q 383 6 467 -26 q 251 99 300 38 q 193 251 203 160 q 217 457 183 342 l 469 1356 q 492 1384 476 1375 q 540 1393 508 1393 q 588 1383 572 1393 q 597 1351 603 1374 l 336 443 q 322 244 301 322 q 411 129 342 167 q 590 92 481 92 q 799 132 710 92 q 949 251 889 172 q 1042 443 1010 329 l 1293 1356 q 1315 1384 1299 1375 q 1363 1393 1331 1393 q 1417 1351 1428 1393 l 1161 429 q 1040 179 1121 281 q 843 26 958 78 q 581 -26 728 -26 m 813 1453 q 778 1472 797 1453 q 760 1504 760 1490 q 761 1515 760 1510 q 772 1529 763 1521 l 965 1731 q 978 1742 972 1738 q 993 1746 985 1746 q 1024 1733 1007 1746 q 1055 1704 1042 1721 q 1068 1672 1068 1688 q 1065 1656 1068 1663 q 1046 1638 1061 1649 l 839 1467 q 824 1457 831 1461 q 813 1453 818 1453 m 1082 1453 q 1048 1472 1067 1453 q 1029 1504 1029 1490 q 1031 1515 1029 1510 q 1042 1529 1032 1521 l 1235 1731 q 1249 1742 1243 1738 q 1264 1746 1256 1746 q 1295 1733 1278 1746 q 1326 1704 1313 1721 q 1339 1672 1339 1688 q 1335 1656 1339 1663 q 1318 1638 1332 1649 l 1108 1467 q 1094 1457 1100 1461 q 1082 1453 1088 1453 z "},"Ū":{"ha":1318,"x_min":183,"x_max":1428,"o":"m 581 -26 q 383 6 467 -26 q 251 99 300 38 q 193 251 203 160 q 217 457 183 342 l 469 1356 q 492 1384 476 1375 q 540 1393 508 1393 q 588 1383 572 1393 q 597 1351 603 1374 l 336 443 q 322 244 301 322 q 411 129 342 167 q 590 92 481 92 q 799 132 710 92 q 949 251 889 172 q 1042 443 1010 329 l 1293 1356 q 1315 1384 1299 1375 q 1363 1393 1331 1393 q 1417 1351 1428 1393 l 1161 429 q 1040 179 1121 281 q 843 26 958 78 q 581 -26 728 -26 m 792 1539 q 759 1555 765 1539 q 758 1596 753 1571 q 777 1642 765 1626 q 814 1657 789 1657 l 1186 1657 q 1220 1640 1214 1657 q 1219 1596 1226 1622 q 1202 1553 1214 1567 q 1165 1539 1190 1539 l 792 1539 z "},"Ų":{"ha":1318,"x_min":183,"x_max":1428,"o":"m 581 -26 q 383 6 467 -26 q 251 99 300 38 q 193 251 203 160 q 217 457 183 342 l 469 1356 q 492 1384 476 1375 q 540 1393 508 1393 q 588 1383 572 1393 q 597 1351 603 1374 l 336 443 q 322 244 301 322 q 411 129 342 167 q 590 92 481 92 q 799 132 710 92 q 949 251 889 172 q 1042 443 1010 329 l 1293 1356 q 1315 1384 1299 1375 q 1363 1393 1331 1393 q 1417 1351 1428 1393 l 1161 429 q 1040 179 1121 281 q 843 26 958 78 q 581 -26 728 -26 m 572 -337 q 508 -315 532 -337 q 485 -254 485 -293 q 503 -185 485 -219 q 555 -113 521 -150 q 640 -37 589 -76 q 753 47 690 1 l 836 44 l 836 38 q 747 -37 788 -1 q 676 -106 706 -74 q 629 -162 646 -137 q 613 -207 613 -187 q 619 -226 613 -219 q 638 -232 626 -232 q 686 -215 661 -232 q 746 -165 711 -197 q 769 -156 754 -158 q 799 -168 783 -153 q 814 -193 811 -179 q 808 -219 817 -207 q 741 -281 782 -254 q 656 -323 700 -308 q 572 -337 613 -337 z "},"Ů":{"ha":1318,"x_min":183,"x_max":1428,"o":"m 581 -26 q 383 6 467 -26 q 251 99 300 38 q 193 251 203 160 q 217 457 183 342 l 469 1356 q 492 1384 476 1375 q 540 1393 508 1393 q 588 1383 572 1393 q 597 1351 603 1374 l 336 443 q 322 244 301 322 q 411 129 342 167 q 590 92 481 92 q 799 132 710 92 q 949 251 889 172 q 1042 443 1010 329 l 1293 1356 q 1315 1384 1299 1375 q 1363 1393 1331 1393 q 1417 1351 1428 1393 l 1161 429 q 1040 179 1121 281 q 843 26 958 78 q 581 -26 728 -26 m 971 1442 q 876 1460 915 1442 q 817 1513 838 1479 q 797 1593 797 1547 q 826 1688 797 1646 q 905 1756 856 1731 q 1014 1781 954 1781 q 1110 1762 1071 1781 q 1171 1709 1150 1743 q 1192 1628 1192 1675 q 1163 1532 1192 1574 q 1083 1466 1133 1490 q 971 1442 1033 1442 m 976 1525 q 1058 1554 1025 1525 q 1090 1625 1090 1583 q 1070 1677 1090 1658 q 1010 1696 1050 1696 q 931 1667 964 1696 q 899 1597 899 1638 q 919 1544 899 1564 q 976 1525 940 1525 z "},"Ũ":{"ha":1318,"x_min":183,"x_max":1428,"o":"m 581 -26 q 383 6 467 -26 q 251 99 300 38 q 193 251 203 160 q 217 457 183 342 l 469 1356 q 492 1384 476 1375 q 540 1393 508 1393 q 588 1383 572 1393 q 597 1351 603 1374 l 336 443 q 322 244 301 322 q 411 129 342 167 q 590 92 481 92 q 799 132 710 92 q 949 251 889 172 q 1042 443 1010 329 l 1293 1356 q 1315 1384 1299 1375 q 1363 1393 1331 1393 q 1417 1351 1428 1393 l 1161 429 q 1040 179 1121 281 q 843 26 958 78 q 581 -26 728 -26 m 769 1494 q 728 1532 726 1494 q 765 1666 732 1624 q 857 1708 797 1708 q 936 1694 899 1708 q 1008 1659 974 1679 q 1070 1624 1042 1639 q 1119 1610 1099 1610 q 1142 1625 1131 1610 q 1160 1674 1154 1640 q 1215 1710 1163 1710 q 1247 1701 1238 1710 q 1256 1672 1257 1692 q 1219 1539 1250 1582 q 1124 1496 1188 1496 q 1043 1510 1081 1496 q 974 1544 1006 1525 q 914 1578 942 1564 q 863 1593 886 1593 q 835 1578 846 1593 q 821 1531 825 1563 q 806 1503 819 1513 q 769 1494 792 1494 z "},"Ǘ":{"ha":1318,"x_min":183,"x_max":1428,"o":"m 581 -26 q 383 6 467 -26 q 251 99 300 38 q 193 251 203 160 q 217 457 183 342 l 469 1356 q 492 1384 476 1375 q 540 1393 508 1393 q 588 1383 572 1393 q 597 1351 603 1374 l 336 443 q 322 244 301 322 q 411 129 342 167 q 590 92 481 92 q 799 132 710 92 q 949 251 889 172 q 1042 443 1010 329 l 1293 1356 q 1315 1384 1299 1375 q 1363 1393 1331 1393 q 1417 1351 1428 1393 l 1161 429 q 1040 179 1121 281 q 843 26 958 78 q 581 -26 728 -26 m 801 1500 q 751 1518 771 1500 q 732 1574 732 1536 q 756 1643 732 1611 q 831 1675 781 1675 q 879 1657 860 1675 q 899 1603 899 1639 q 876 1531 899 1563 q 801 1500 853 1500 m 1143 1500 q 1094 1518 1114 1500 q 1074 1574 1074 1536 q 1098 1643 1074 1611 q 1172 1675 1122 1675 q 1222 1657 1201 1675 q 1242 1603 1242 1639 q 1217 1531 1242 1563 q 1143 1500 1193 1500 m 956 1714 q 922 1733 940 1714 q 903 1765 903 1751 q 904 1776 903 1771 q 915 1790 906 1782 l 1131 1992 q 1144 2003 1139 1999 q 1158 2007 1150 2007 q 1190 1994 1172 2007 q 1220 1965 1207 1982 q 1233 1933 1233 1949 q 1231 1917 1233 1924 q 1213 1899 1228 1910 l 982 1728 q 967 1718 974 1722 q 956 1714 961 1714 z "},"Ǚ":{"ha":1318,"x_min":183,"x_max":1428,"o":"m 581 -26 q 383 6 467 -26 q 251 99 300 38 q 193 251 203 160 q 217 457 183 342 l 469 1356 q 492 1384 476 1375 q 540 1393 508 1393 q 588 1383 572 1393 q 597 1351 603 1374 l 336 443 q 322 244 301 322 q 411 129 342 167 q 590 92 481 92 q 799 132 710 92 q 949 251 889 172 q 1042 443 1010 329 l 1293 1356 q 1315 1384 1299 1375 q 1363 1393 1331 1393 q 1417 1351 1428 1393 l 1161 429 q 1040 179 1121 281 q 843 26 958 78 q 581 -26 728 -26 m 801 1500 q 751 1518 771 1500 q 732 1574 732 1536 q 756 1643 732 1611 q 831 1675 781 1675 q 879 1657 860 1675 q 899 1603 899 1639 q 876 1531 899 1563 q 801 1500 853 1500 m 1143 1500 q 1094 1518 1114 1500 q 1074 1574 1074 1536 q 1098 1643 1074 1611 q 1172 1675 1122 1675 q 1222 1657 1201 1675 q 1242 1603 1242 1639 q 1217 1531 1242 1563 q 1143 1500 1193 1500 m 1285 2003 q 1314 1986 1300 2003 q 1328 1954 1328 1969 q 1324 1935 1328 1942 q 1313 1922 1319 1929 l 1090 1746 q 1053 1722 1071 1729 q 1013 1714 1036 1714 q 980 1724 994 1714 q 954 1750 965 1733 l 818 1932 q 810 1950 811 1943 q 810 1963 810 1957 q 830 1991 810 1979 q 863 2003 850 2003 q 883 1997 876 2003 q 899 1982 890 1990 l 1036 1856 l 1244 1983 q 1263 1996 1253 1989 q 1285 2003 1272 2003 z "},"Ǜ":{"ha":1318,"x_min":183,"x_max":1428,"o":"m 581 -26 q 383 6 467 -26 q 251 99 300 38 q 193 251 203 160 q 217 457 183 342 l 469 1356 q 492 1384 476 1375 q 540 1393 508 1393 q 588 1383 572 1393 q 597 1351 603 1374 l 336 443 q 322 244 301 322 q 411 129 342 167 q 590 92 481 92 q 799 132 710 92 q 949 251 889 172 q 1042 443 1010 329 l 1293 1356 q 1315 1384 1299 1375 q 1363 1393 1331 1393 q 1417 1351 1428 1393 l 1161 429 q 1040 179 1121 281 q 843 26 958 78 q 581 -26 728 -26 m 801 1500 q 751 1518 771 1500 q 732 1574 732 1536 q 756 1643 732 1611 q 831 1675 781 1675 q 879 1657 860 1675 q 899 1603 899 1639 q 876 1531 899 1563 q 801 1500 853 1500 m 1143 1500 q 1094 1518 1114 1500 q 1074 1574 1074 1536 q 1098 1643 1074 1611 q 1172 1675 1122 1675 q 1222 1657 1201 1675 q 1242 1603 1242 1639 q 1217 1531 1242 1563 q 1143 1500 1193 1500 m 1096 1714 q 1083 1718 1090 1714 q 1069 1728 1076 1722 l 869 1900 q 852 1918 856 1911 q 849 1935 849 1925 q 863 1965 849 1949 q 894 1994 876 1982 q 925 2007 911 2007 q 940 2003 933 2007 q 953 1992 946 1999 l 1136 1789 q 1147 1774 1146 1779 q 1149 1765 1149 1769 q 1130 1733 1149 1751 q 1096 1714 1111 1714 z "},"Ǖ":{"ha":1318,"x_min":183,"x_max":1428,"o":"m 581 -26 q 383 6 467 -26 q 251 99 300 38 q 193 251 203 160 q 217 457 183 342 l 469 1356 q 492 1384 476 1375 q 540 1393 508 1393 q 588 1383 572 1393 q 597 1351 603 1374 l 336 443 q 322 244 301 322 q 411 129 342 167 q 590 92 481 92 q 799 132 710 92 q 949 251 889 172 q 1042 443 1010 329 l 1293 1356 q 1315 1384 1299 1375 q 1363 1393 1331 1393 q 1417 1351 1428 1393 l 1161 429 q 1040 179 1121 281 q 843 26 958 78 q 581 -26 728 -26 m 801 1500 q 751 1518 771 1500 q 732 1574 732 1536 q 756 1643 732 1611 q 831 1675 781 1675 q 879 1657 860 1675 q 899 1603 899 1639 q 876 1531 899 1563 q 801 1500 853 1500 m 1143 1500 q 1094 1518 1114 1500 q 1074 1574 1074 1536 q 1098 1643 1074 1611 q 1172 1675 1122 1675 q 1222 1657 1201 1675 q 1242 1603 1242 1639 q 1217 1531 1242 1563 q 1143 1500 1193 1500 m 856 1800 q 823 1816 829 1800 q 822 1857 817 1832 q 841 1903 829 1888 q 878 1918 853 1918 l 1250 1918 q 1284 1901 1278 1918 q 1283 1857 1290 1883 q 1266 1814 1278 1828 q 1229 1800 1254 1800 l 856 1800 z "},"Ụ":{"ha":1318,"x_min":183,"x_max":1428,"o":"m 581 -26 q 383 6 467 -26 q 251 99 300 38 q 193 251 203 160 q 217 457 183 342 l 469 1356 q 492 1384 476 1375 q 540 1393 508 1393 q 588 1383 572 1393 q 597 1351 603 1374 l 336 443 q 322 244 301 322 q 411 129 342 167 q 590 92 481 92 q 799 132 710 92 q 949 251 889 172 q 1042 443 1010 329 l 1293 1356 q 1315 1384 1299 1375 q 1363 1393 1331 1393 q 1417 1351 1428 1393 l 1161 429 q 1040 179 1121 281 q 843 26 958 78 q 581 -26 728 -26 m 475 -322 q 426 -304 446 -322 q 407 -250 407 -286 q 431 -179 407 -211 q 504 -147 454 -147 q 554 -166 535 -147 q 574 -221 574 -185 q 549 -291 574 -260 q 475 -322 525 -322 z "},"Ủ":{"ha":1318,"x_min":183,"x_max":1428,"o":"m 581 -26 q 383 6 467 -26 q 251 99 300 38 q 193 251 203 160 q 217 457 183 342 l 469 1356 q 492 1384 476 1375 q 540 1393 508 1393 q 588 1383 572 1393 q 597 1351 603 1374 l 336 443 q 322 244 301 322 q 411 129 342 167 q 590 92 481 92 q 799 132 710 92 q 949 251 889 172 q 1042 443 1010 329 l 1293 1356 q 1315 1384 1299 1375 q 1363 1393 1331 1393 q 1417 1351 1428 1393 l 1161 429 q 1040 179 1121 281 q 843 26 958 78 q 581 -26 728 -26 m 1017 1783 q 1115 1755 1079 1783 q 1150 1678 1150 1726 q 1131 1608 1150 1639 q 1068 1547 1111 1576 q 1038 1520 1047 1532 q 1026 1493 1028 1508 l 1022 1474 q 1006 1447 1021 1456 q 972 1439 990 1439 q 940 1448 954 1439 q 924 1474 926 1457 l 921 1504 q 931 1561 918 1538 q 971 1604 943 1585 q 1005 1635 993 1621 q 1017 1658 1017 1649 q 1008 1676 1017 1669 q 982 1682 999 1682 q 949 1677 967 1682 q 908 1665 931 1672 q 851 1689 872 1647 q 874 1750 836 1731 q 942 1774 907 1765 q 1017 1783 976 1783 z "},"Ư":{"ha":1318,"x_min":183,"x_max":1685,"o":"m 1678 1628 q 1674 1499 1685 1557 q 1630 1398 1664 1440 q 1529 1333 1596 1356 q 1356 1310 1463 1310 l 1381 1389 q 1506 1415 1464 1393 q 1561 1488 1547 1438 q 1569 1621 1575 1538 q 1585 1651 1569 1642 q 1621 1663 1600 1661 q 1659 1656 1642 1664 q 1678 1628 1676 1647 m 581 -26 q 383 6 467 -26 q 251 99 300 38 q 193 251 203 160 q 217 457 183 342 l 469 1356 q 492 1384 476 1375 q 540 1393 508 1393 q 588 1383 572 1393 q 597 1351 603 1374 l 336 443 q 322 244 301 322 q 411 129 342 167 q 590 92 481 92 q 799 132 710 92 q 949 251 889 172 q 1042 443 1010 329 l 1293 1356 q 1315 1384 1299 1375 q 1363 1393 1331 1393 q 1417 1351 1428 1393 l 1161 429 q 1040 179 1121 281 q 843 26 958 78 q 581 -26 728 -26 z "},"Ứ":{"ha":1318,"x_min":183,"x_max":1685,"o":"m 1678 1628 q 1674 1499 1685 1557 q 1630 1398 1664 1440 q 1529 1333 1596 1356 q 1356 1310 1463 1310 l 1381 1389 q 1506 1415 1464 1393 q 1561 1488 1547 1438 q 1569 1621 1575 1538 q 1585 1651 1569 1642 q 1621 1663 1600 1661 q 1659 1656 1642 1664 q 1678 1628 1676 1647 m 581 -26 q 383 6 467 -26 q 251 99 300 38 q 193 251 203 160 q 217 457 183 342 l 469 1356 q 492 1384 476 1375 q 540 1393 508 1393 q 588 1383 572 1393 q 597 1351 603 1374 l 336 443 q 322 244 301 322 q 411 129 342 167 q 590 92 481 92 q 799 132 710 92 q 949 251 889 172 q 1042 443 1010 329 l 1293 1356 q 1315 1384 1299 1375 q 1363 1393 1331 1393 q 1417 1351 1428 1393 l 1161 429 q 1040 179 1121 281 q 843 26 958 78 q 581 -26 728 -26 m 892 1453 q 858 1472 876 1453 q 839 1504 839 1490 q 840 1515 839 1510 q 851 1529 842 1521 l 1067 1731 q 1081 1742 1075 1738 q 1094 1746 1086 1746 q 1126 1733 1108 1746 q 1156 1704 1143 1721 q 1169 1672 1169 1688 q 1167 1656 1169 1663 q 1149 1638 1164 1649 l 918 1467 q 903 1457 910 1461 q 892 1453 897 1453 z "},"Ự":{"ha":1318,"x_min":183,"x_max":1685,"o":"m 1678 1628 q 1674 1499 1685 1557 q 1630 1398 1664 1440 q 1529 1333 1596 1356 q 1356 1310 1463 1310 l 1381 1389 q 1506 1415 1464 1393 q 1561 1488 1547 1438 q 1569 1621 1575 1538 q 1585 1651 1569 1642 q 1621 1663 1600 1661 q 1659 1656 1642 1664 q 1678 1628 1676 1647 m 581 -26 q 383 6 467 -26 q 251 99 300 38 q 193 251 203 160 q 217 457 183 342 l 469 1356 q 492 1384 476 1375 q 540 1393 508 1393 q 588 1383 572 1393 q 597 1351 603 1374 l 336 443 q 322 244 301 322 q 411 129 342 167 q 590 92 481 92 q 799 132 710 92 q 949 251 889 172 q 1042 443 1010 329 l 1293 1356 q 1315 1384 1299 1375 q 1363 1393 1331 1393 q 1417 1351 1428 1393 l 1161 429 q 1040 179 1121 281 q 843 26 958 78 q 581 -26 728 -26 m 475 -322 q 426 -304 446 -322 q 407 -250 407 -286 q 431 -179 407 -211 q 504 -147 454 -147 q 554 -166 535 -147 q 574 -221 574 -185 q 549 -291 574 -260 q 475 -322 525 -322 z "},"Ừ":{"ha":1318,"x_min":183,"x_max":1685,"o":"m 1678 1628 q 1674 1499 1685 1557 q 1630 1398 1664 1440 q 1529 1333 1596 1356 q 1356 1310 1463 1310 l 1381 1389 q 1506 1415 1464 1393 q 1561 1488 1547 1438 q 1569 1621 1575 1538 q 1585 1651 1569 1642 q 1621 1663 1600 1661 q 1659 1656 1642 1664 q 1678 1628 1676 1647 m 581 -26 q 383 6 467 -26 q 251 99 300 38 q 193 251 203 160 q 217 457 183 342 l 469 1356 q 492 1384 476 1375 q 540 1393 508 1393 q 588 1383 572 1393 q 597 1351 603 1374 l 336 443 q 322 244 301 322 q 411 129 342 167 q 590 92 481 92 q 799 132 710 92 q 949 251 889 172 q 1042 443 1010 329 l 1293 1356 q 1315 1384 1299 1375 q 1363 1393 1331 1393 q 1417 1351 1428 1393 l 1161 429 q 1040 179 1121 281 q 843 26 958 78 q 581 -26 728 -26 m 1032 1453 q 1019 1457 1026 1453 q 1006 1467 1013 1461 l 806 1639 q 788 1657 792 1650 q 785 1674 785 1664 q 799 1704 785 1688 q 830 1733 813 1721 q 861 1746 847 1746 q 876 1742 869 1746 q 889 1731 882 1738 l 1072 1528 q 1083 1513 1082 1518 q 1085 1504 1085 1508 q 1066 1472 1085 1490 q 1032 1453 1047 1453 z "},"Ử":{"ha":1318,"x_min":183,"x_max":1685,"o":"m 1678 1628 q 1674 1499 1685 1557 q 1630 1398 1664 1440 q 1529 1333 1596 1356 q 1356 1310 1463 1310 l 1381 1389 q 1506 1415 1464 1393 q 1561 1488 1547 1438 q 1569 1621 1575 1538 q 1585 1651 1569 1642 q 1621 1663 1600 1661 q 1659 1656 1642 1664 q 1678 1628 1676 1647 m 581 -26 q 383 6 467 -26 q 251 99 300 38 q 193 251 203 160 q 217 457 183 342 l 469 1356 q 492 1384 476 1375 q 540 1393 508 1393 q 588 1383 572 1393 q 597 1351 603 1374 l 336 443 q 322 244 301 322 q 411 129 342 167 q 590 92 481 92 q 799 132 710 92 q 949 251 889 172 q 1042 443 1010 329 l 1293 1356 q 1315 1384 1299 1375 q 1363 1393 1331 1393 q 1417 1351 1428 1393 l 1161 429 q 1040 179 1121 281 q 843 26 958 78 q 581 -26 728 -26 m 1017 1783 q 1115 1755 1079 1783 q 1150 1678 1150 1726 q 1131 1608 1150 1639 q 1068 1547 1111 1576 q 1038 1520 1047 1532 q 1026 1493 1028 1508 l 1022 1474 q 1006 1447 1021 1456 q 972 1439 990 1439 q 940 1448 954 1439 q 924 1474 926 1457 l 921 1504 q 931 1561 918 1538 q 971 1604 943 1585 q 1005 1635 993 1621 q 1017 1658 1017 1649 q 1008 1676 1017 1669 q 982 1682 999 1682 q 949 1677 967 1682 q 908 1665 931 1672 q 851 1689 872 1647 q 874 1750 836 1731 q 942 1774 907 1765 q 1017 1783 976 1783 z "},"Ữ":{"ha":1318,"x_min":183,"x_max":1685,"o":"m 1678 1628 q 1674 1499 1685 1557 q 1630 1398 1664 1440 q 1529 1333 1596 1356 q 1356 1310 1463 1310 l 1381 1389 q 1506 1415 1464 1393 q 1561 1488 1547 1438 q 1569 1621 1575 1538 q 1585 1651 1569 1642 q 1621 1663 1600 1661 q 1659 1656 1642 1664 q 1678 1628 1676 1647 m 581 -26 q 383 6 467 -26 q 251 99 300 38 q 193 251 203 160 q 217 457 183 342 l 469 1356 q 492 1384 476 1375 q 540 1393 508 1393 q 588 1383 572 1393 q 597 1351 603 1374 l 336 443 q 322 244 301 322 q 411 129 342 167 q 590 92 481 92 q 799 132 710 92 q 949 251 889 172 q 1042 443 1010 329 l 1293 1356 q 1315 1384 1299 1375 q 1363 1393 1331 1393 q 1417 1351 1428 1393 l 1161 429 q 1040 179 1121 281 q 843 26 958 78 q 581 -26 728 -26 m 769 1494 q 728 1532 726 1494 q 765 1666 732 1624 q 857 1708 797 1708 q 936 1694 899 1708 q 1008 1659 974 1679 q 1070 1624 1042 1639 q 1119 1610 1099 1610 q 1142 1625 1131 1610 q 1160 1674 1154 1640 q 1215 1710 1163 1710 q 1247 1701 1238 1710 q 1256 1672 1257 1692 q 1219 1539 1250 1582 q 1124 1496 1188 1496 q 1043 1510 1081 1496 q 974 1544 1006 1525 q 914 1578 942 1564 q 863 1593 886 1593 q 835 1578 846 1593 q 821 1531 825 1563 q 806 1503 819 1513 q 769 1494 792 1494 z "},"Ẃ":{"ha":1821,"x_min":311,"x_max":2092,"o":"m 435 -19 q 391 -6 407 -19 q 372 51 375 8 l 314 1331 q 327 1375 311 1358 q 378 1393 343 1392 q 420 1383 410 1393 q 432 1346 431 1374 l 481 188 l 1114 1338 q 1151 1384 1135 1375 q 1204 1393 1168 1393 q 1247 1382 1236 1393 q 1260 1343 1257 1371 l 1311 185 l 1949 1340 q 1986 1384 1969 1375 q 2036 1393 2003 1393 q 2082 1371 2072 1392 q 2075 1322 2092 1350 l 1358 36 q 1319 -7 1340 6 q 1265 -19 1299 -19 q 1222 -6 1238 -19 q 1204 51 1206 8 l 1149 1160 l 526 36 q 489 -7 510 6 q 435 -19 468 -19 m 1154 1453 q 1120 1472 1139 1453 q 1101 1504 1101 1490 q 1103 1515 1101 1510 q 1114 1529 1104 1521 l 1329 1731 q 1343 1742 1338 1738 q 1357 1746 1349 1746 q 1388 1733 1371 1746 q 1419 1704 1406 1721 q 1432 1672 1432 1688 q 1429 1656 1432 1663 q 1411 1638 1426 1649 l 1181 1467 q 1166 1457 1172 1461 q 1154 1453 1160 1453 z "},"Ŵ":{"ha":1821,"x_min":311,"x_max":2092,"o":"m 435 -19 q 391 -6 407 -19 q 372 51 375 8 l 314 1331 q 327 1375 311 1358 q 378 1393 343 1392 q 420 1383 410 1393 q 432 1346 431 1374 l 481 188 l 1114 1338 q 1151 1384 1135 1375 q 1204 1393 1168 1393 q 1247 1382 1236 1393 q 1260 1343 1257 1371 l 1311 185 l 1949 1340 q 1986 1384 1969 1375 q 2036 1393 2003 1393 q 2082 1371 2072 1392 q 2075 1322 2092 1350 l 1358 36 q 1319 -7 1340 6 q 1265 -19 1299 -19 q 1222 -6 1238 -19 q 1204 51 1206 8 l 1149 1160 l 526 36 q 489 -7 510 6 q 435 -19 468 -19 m 1017 1453 q 989 1469 1001 1453 q 976 1501 976 1486 q 981 1521 976 1514 q 990 1533 985 1528 l 1213 1711 q 1250 1735 1232 1728 q 1290 1742 1268 1742 q 1324 1733 1310 1742 q 1350 1707 1338 1724 l 1485 1525 q 1493 1508 1492 1515 q 1494 1494 1494 1500 q 1476 1465 1494 1478 q 1446 1453 1458 1453 q 1422 1459 1432 1453 q 1403 1475 1413 1465 l 1268 1601 l 1058 1468 q 1038 1458 1049 1463 q 1017 1453 1028 1453 z "},"Ẅ":{"ha":1821,"x_min":311,"x_max":2092,"o":"m 435 -19 q 391 -6 407 -19 q 372 51 375 8 l 314 1331 q 327 1375 311 1358 q 378 1393 343 1392 q 420 1383 410 1393 q 432 1346 431 1374 l 481 188 l 1114 1338 q 1151 1384 1135 1375 q 1204 1393 1168 1393 q 1247 1382 1236 1393 q 1260 1343 1257 1371 l 1311 185 l 1949 1340 q 1986 1384 1969 1375 q 2036 1393 2003 1393 q 2082 1371 2072 1392 q 2075 1322 2092 1350 l 1358 36 q 1319 -7 1340 6 q 1265 -19 1299 -19 q 1222 -6 1238 -19 q 1204 51 1206 8 l 1149 1160 l 526 36 q 489 -7 510 6 q 435 -19 468 -19 m 1064 1500 q 1014 1518 1033 1500 q 994 1574 994 1536 q 1019 1643 994 1611 q 1093 1675 1043 1675 q 1142 1657 1122 1675 q 1161 1603 1161 1639 q 1138 1531 1161 1563 q 1064 1500 1115 1500 m 1406 1500 q 1356 1518 1376 1500 q 1336 1574 1336 1536 q 1360 1643 1336 1611 q 1435 1675 1385 1675 q 1484 1657 1464 1675 q 1504 1603 1504 1639 q 1480 1531 1504 1563 q 1406 1500 1456 1500 z "},"Ẁ":{"ha":1821,"x_min":311,"x_max":2092,"o":"m 435 -19 q 391 -6 407 -19 q 372 51 375 8 l 314 1331 q 327 1375 311 1358 q 378 1393 343 1392 q 420 1383 410 1393 q 432 1346 431 1374 l 481 188 l 1114 1338 q 1151 1384 1135 1375 q 1204 1393 1168 1393 q 1247 1382 1236 1393 q 1260 1343 1257 1371 l 1311 185 l 1949 1340 q 1986 1384 1969 1375 q 2036 1393 2003 1393 q 2082 1371 2072 1392 q 2075 1322 2092 1350 l 1358 36 q 1319 -7 1340 6 q 1265 -19 1299 -19 q 1222 -6 1238 -19 q 1204 51 1206 8 l 1149 1160 l 526 36 q 489 -7 510 6 q 435 -19 468 -19 m 1294 1453 q 1282 1457 1289 1453 q 1268 1467 1275 1461 l 1068 1639 q 1051 1657 1054 1650 q 1047 1674 1047 1664 q 1061 1704 1047 1688 q 1092 1733 1075 1721 q 1124 1746 1110 1746 q 1138 1742 1132 1746 q 1151 1731 1144 1738 l 1335 1528 q 1346 1513 1344 1518 q 1347 1504 1347 1508 q 1328 1472 1347 1490 q 1294 1453 1310 1453 z "},"Ý":{"ha":949,"x_min":288,"x_max":1246,"o":"m 356 -19 q 307 19 296 -19 l 475 600 l 294 1329 q 301 1373 288 1356 q 350 1392 315 1390 q 394 1382 382 1393 q 413 1346 406 1371 l 564 729 l 1097 1350 q 1135 1383 1117 1374 q 1185 1392 1153 1393 q 1233 1369 1221 1390 q 1222 1321 1246 1347 l 599 597 l 431 19 q 356 -19 419 -19 m 699 1453 q 665 1472 683 1453 q 646 1504 646 1490 q 647 1515 646 1510 q 658 1529 649 1521 l 874 1731 q 888 1742 882 1738 q 901 1746 893 1746 q 933 1733 915 1746 q 963 1704 950 1721 q 976 1672 976 1688 q 974 1656 976 1663 q 956 1638 971 1649 l 725 1467 q 710 1457 717 1461 q 699 1453 704 1453 z "},"Ŷ":{"ha":949,"x_min":288,"x_max":1246,"o":"m 356 -19 q 307 19 296 -19 l 475 600 l 294 1329 q 301 1373 288 1356 q 350 1392 315 1390 q 394 1382 382 1393 q 413 1346 406 1371 l 564 729 l 1097 1350 q 1135 1383 1117 1374 q 1185 1392 1153 1393 q 1233 1369 1221 1390 q 1222 1321 1246 1347 l 599 597 l 431 19 q 356 -19 419 -19 m 561 1453 q 533 1469 546 1453 q 521 1501 521 1486 q 525 1521 521 1514 q 535 1533 529 1528 l 757 1711 q 794 1735 776 1728 q 835 1742 813 1742 q 868 1733 854 1742 q 894 1707 882 1724 l 1029 1525 q 1038 1508 1036 1515 q 1039 1494 1039 1500 q 1021 1465 1039 1478 q 990 1453 1003 1453 q 967 1459 976 1453 q 947 1475 957 1465 l 813 1601 l 603 1468 q 583 1458 593 1463 q 561 1453 572 1453 z "},"Ÿ":{"ha":949,"x_min":288,"x_max":1246,"o":"m 356 -19 q 307 19 296 -19 l 475 600 l 294 1329 q 301 1373 288 1356 q 350 1392 315 1390 q 394 1382 382 1393 q 413 1346 406 1371 l 564 729 l 1097 1350 q 1135 1383 1117 1374 q 1185 1392 1153 1393 q 1233 1369 1221 1390 q 1222 1321 1246 1347 l 599 597 l 431 19 q 356 -19 419 -19 m 608 1500 q 558 1518 578 1500 q 539 1574 539 1536 q 563 1643 539 1611 q 638 1675 588 1675 q 686 1657 667 1675 q 706 1603 706 1639 q 683 1531 706 1563 q 608 1500 660 1500 m 950 1500 q 901 1518 921 1500 q 881 1574 881 1536 q 905 1643 881 1611 q 979 1675 929 1675 q 1028 1657 1008 1675 q 1049 1603 1049 1639 q 1024 1531 1049 1563 q 950 1500 1000 1500 z "},"Ỳ":{"ha":949,"x_min":288,"x_max":1246,"o":"m 356 -19 q 307 19 296 -19 l 475 600 l 294 1329 q 301 1373 288 1356 q 350 1392 315 1390 q 394 1382 382 1393 q 413 1346 406 1371 l 564 729 l 1097 1350 q 1135 1383 1117 1374 q 1185 1392 1153 1393 q 1233 1369 1221 1390 q 1222 1321 1246 1347 l 599 597 l 431 19 q 356 -19 419 -19 m 839 1453 q 826 1457 833 1453 q 813 1467 819 1461 l 613 1639 q 595 1657 599 1650 q 592 1674 592 1664 q 606 1704 592 1688 q 637 1733 619 1721 q 668 1746 654 1746 q 683 1742 676 1746 q 696 1731 689 1738 l 879 1528 q 890 1513 889 1518 q 892 1504 892 1508 q 873 1472 892 1490 q 839 1453 854 1453 z "},"Ỵ":{"ha":949,"x_min":236,"x_max":1246,"o":"m 356 -19 q 307 19 296 -19 l 475 600 l 294 1329 q 301 1373 288 1356 q 350 1392 315 1390 q 394 1382 382 1393 q 413 1346 406 1371 l 564 729 l 1097 1350 q 1135 1383 1117 1374 q 1185 1392 1153 1393 q 1233 1369 1221 1390 q 1222 1321 1246 1347 l 599 597 l 431 19 q 356 -19 419 -19 m 304 -322 q 256 -304 275 -322 q 236 -250 236 -286 q 260 -179 236 -211 q 333 -147 283 -147 q 383 -166 364 -147 q 403 -221 403 -185 q 378 -291 403 -260 q 304 -322 354 -322 z "},"Ỷ":{"ha":949,"x_min":288,"x_max":1246,"o":"m 356 -19 q 307 19 296 -19 l 475 600 l 294 1329 q 301 1373 288 1356 q 350 1392 315 1390 q 394 1382 382 1393 q 413 1346 406 1371 l 564 729 l 1097 1350 q 1135 1383 1117 1374 q 1185 1392 1153 1393 q 1233 1369 1221 1390 q 1222 1321 1246 1347 l 599 597 l 431 19 q 356 -19 419 -19 m 824 1783 q 922 1755 886 1783 q 957 1678 957 1726 q 938 1608 957 1639 q 875 1547 918 1576 q 844 1520 854 1532 q 833 1493 835 1508 l 829 1474 q 813 1447 828 1456 q 779 1439 797 1439 q 747 1448 761 1439 q 731 1474 733 1457 l 728 1504 q 738 1561 725 1538 q 778 1604 750 1585 q 812 1635 800 1621 q 824 1658 824 1649 q 815 1676 824 1669 q 789 1682 806 1682 q 756 1677 774 1682 q 715 1665 738 1672 q 658 1689 679 1647 q 681 1750 643 1731 q 749 1774 714 1765 q 824 1783 783 1783 z "},"Ỹ":{"ha":949,"x_min":288,"x_max":1246,"o":"m 356 -19 q 307 19 296 -19 l 475 600 l 294 1329 q 301 1373 288 1356 q 350 1392 315 1390 q 394 1382 382 1393 q 413 1346 406 1371 l 564 729 l 1097 1350 q 1135 1383 1117 1374 q 1185 1392 1153 1393 q 1233 1369 1221 1390 q 1222 1321 1246 1347 l 599 597 l 431 19 q 356 -19 419 -19 m 576 1494 q 535 1532 533 1494 q 572 1666 539 1624 q 664 1708 604 1708 q 743 1694 706 1708 q 815 1659 781 1679 q 877 1624 849 1639 q 926 1610 906 1610 q 949 1625 938 1610 q 967 1674 961 1640 q 1022 1710 969 1710 q 1054 1701 1044 1710 q 1063 1672 1064 1692 q 1026 1539 1057 1582 q 931 1496 994 1496 q 850 1510 888 1496 q 781 1544 813 1525 q 721 1578 749 1564 q 669 1593 693 1593 q 642 1578 653 1593 q 628 1531 632 1563 q 613 1503 626 1513 q 576 1494 599 1494 z "},"Ź":{"ha":936,"x_min":-69,"x_max":1182,"o":"m -35 0 q -60 13 -51 0 q -68 46 -69 26 q -54 81 -67 65 l 974 1258 l 363 1258 q 340 1272 346 1258 q 340 1314 335 1285 q 361 1356 347 1342 q 390 1369 375 1369 l 1142 1369 q 1174 1342 1167 1369 q 1160 1290 1182 1314 l 133 111 l 811 111 q 833 98 826 111 q 832 56 839 85 q 812 15 825 29 q 783 0 799 0 l -35 0 m 678 1453 q 644 1472 663 1453 q 625 1504 625 1490 q 626 1515 625 1510 q 638 1529 628 1521 l 853 1731 q 867 1742 861 1738 q 881 1746 872 1746 q 912 1733 894 1746 q 942 1704 929 1721 q 956 1672 956 1688 q 953 1656 956 1663 q 935 1638 950 1649 l 704 1467 q 690 1457 696 1461 q 678 1453 683 1453 z "},"Ž":{"ha":936,"x_min":-69,"x_max":1182,"o":"m -35 0 q -60 13 -51 0 q -68 46 -69 26 q -54 81 -67 65 l 974 1258 l 363 1258 q 340 1272 346 1258 q 340 1314 335 1285 q 361 1356 347 1342 q 390 1369 375 1369 l 1142 1369 q 1174 1342 1167 1369 q 1160 1290 1182 1314 l 133 111 l 811 111 q 833 98 826 111 q 832 56 839 85 q 812 15 825 29 q 783 0 799 0 l -35 0 m 1007 1742 q 1036 1725 1022 1742 q 1050 1693 1050 1708 q 1046 1674 1050 1681 q 1035 1661 1042 1668 l 813 1485 q 776 1460 793 1468 q 735 1453 758 1453 q 702 1463 717 1453 q 676 1489 688 1472 l 540 1671 q 533 1689 533 1682 q 532 1701 532 1696 q 552 1730 532 1718 q 585 1742 572 1742 q 606 1735 599 1742 q 621 1721 613 1729 l 758 1594 l 967 1722 q 985 1735 975 1728 q 1007 1742 994 1742 z "},"Ż":{"ha":936,"x_min":-69,"x_max":1182,"o":"m -35 0 q -60 13 -51 0 q -68 46 -69 26 q -54 81 -67 65 l 974 1258 l 363 1258 q 340 1272 346 1258 q 340 1314 335 1285 q 361 1356 347 1342 q 390 1369 375 1369 l 1142 1369 q 1174 1342 1167 1369 q 1160 1290 1182 1314 l 133 111 l 811 111 q 833 98 826 111 q 832 56 839 85 q 812 15 825 29 q 783 0 799 0 l -35 0 m 758 1500 q 708 1518 728 1500 q 689 1574 689 1536 q 714 1643 689 1611 q 788 1675 739 1675 q 836 1657 817 1675 q 856 1601 856 1639 q 833 1531 856 1563 q 758 1500 810 1500 z "},"á":{"ha":865,"x_min":53,"x_max":815,"o":"m 218 -24 q 131 3 168 -24 q 73 78 93 29 q 53 194 53 128 q 72 332 53 260 q 128 473 90 404 q 219 598 165 542 q 343 688 274 654 q 499 721 413 721 q 583 710 539 721 q 668 681 626 700 l 669 686 q 690 710 676 704 q 728 715 704 715 q 782 703 769 715 q 786 663 794 690 l 631 143 q 624 106 624 118 q 629 89 624 93 q 642 85 635 85 q 669 94 656 85 q 700 119 683 103 q 735 160 717 136 q 757 176 746 174 q 783 168 768 179 q 810 141 806 154 q 808 113 815 128 q 769 58 796 90 q 703 3 742 26 q 615 -21 665 -21 q 542 1 567 -21 q 511 55 517 22 q 512 126 506 88 q 528 197 518 164 q 531 208 531 203 q 532 221 532 214 q 424 85 478 139 q 317 3 369 31 q 218 -24 265 -24 m 179 215 q 188 147 179 176 q 213 103 196 118 q 254 88 231 88 q 364 140 303 88 q 491 291 425 192 q 625 533 557 390 l 639 581 q 555 606 594 600 q 483 611 515 611 q 378 585 426 611 q 294 517 331 560 q 231 421 257 474 q 192 315 206 368 q 179 215 179 261 m 511 854 q 480 868 497 854 q 463 897 463 882 q 465 914 463 906 q 475 931 468 922 l 644 1144 q 665 1166 656 1161 q 686 1171 675 1171 q 717 1161 700 1171 q 747 1136 735 1151 q 760 1106 760 1121 q 756 1088 760 1094 q 742 1074 751 1081 l 549 875 q 511 854 529 854 z "},"ă":{"ha":865,"x_min":53,"x_max":875,"o":"m 218 -24 q 131 3 168 -24 q 73 78 93 29 q 53 194 53 128 q 72 332 53 260 q 128 473 90 404 q 219 598 165 542 q 343 688 274 654 q 499 721 413 721 q 583 710 539 721 q 668 681 626 700 l 669 686 q 690 710 676 704 q 728 715 704 715 q 782 703 769 715 q 786 663 794 690 l 631 143 q 624 106 624 118 q 629 89 624 93 q 642 85 635 85 q 669 94 656 85 q 700 119 683 103 q 735 160 717 136 q 757 176 746 174 q 783 168 768 179 q 810 141 806 154 q 808 113 815 128 q 769 58 796 90 q 703 3 742 26 q 615 -21 665 -21 q 542 1 567 -21 q 511 55 517 22 q 512 126 506 88 q 528 197 518 164 q 531 208 531 203 q 532 221 532 214 q 424 85 478 139 q 317 3 369 31 q 218 -24 265 -24 m 179 215 q 188 147 179 176 q 213 103 196 118 q 254 88 231 88 q 364 140 303 88 q 491 291 425 192 q 625 533 557 390 l 639 581 q 555 606 594 600 q 483 611 515 611 q 378 585 426 611 q 294 517 331 560 q 231 421 257 474 q 192 315 206 368 q 179 215 179 261 m 568 858 q 410 931 461 858 q 381 1138 360 1004 q 396 1167 383 1157 q 432 1176 408 1176 q 468 1165 456 1176 q 481 1138 481 1154 q 506 1022 476 1063 q 588 981 535 981 q 695 1026 649 981 q 767 1132 742 1072 q 788 1165 776 1157 q 821 1174 800 1174 q 862 1161 849 1174 q 868 1129 875 1149 q 797 972 839 1031 q 700 885 756 913 q 568 858 644 858 z "},"ǎ":{"ha":865,"x_min":53,"x_max":863,"o":"m 218 -24 q 131 3 168 -24 q 73 78 93 29 q 53 194 53 128 q 72 332 53 260 q 128 473 90 404 q 219 598 165 542 q 343 688 274 654 q 499 721 413 721 q 583 710 539 721 q 668 681 626 700 l 669 686 q 690 710 676 704 q 728 715 704 715 q 782 703 769 715 q 786 663 794 690 l 631 143 q 624 106 624 118 q 629 89 624 93 q 642 85 635 85 q 669 94 656 85 q 700 119 683 103 q 735 160 717 136 q 757 176 746 174 q 783 168 768 179 q 810 141 806 154 q 808 113 815 128 q 769 58 796 90 q 703 3 742 26 q 615 -21 665 -21 q 542 1 567 -21 q 511 55 517 22 q 512 126 506 88 q 528 197 518 164 q 531 208 531 203 q 532 221 532 214 q 424 85 478 139 q 317 3 369 31 q 218 -24 265 -24 m 179 215 q 188 147 179 176 q 213 103 196 118 q 254 88 231 88 q 364 140 303 88 q 491 291 425 192 q 625 533 557 390 l 639 581 q 555 606 594 600 q 483 611 515 611 q 378 585 426 611 q 294 517 331 560 q 231 421 257 474 q 192 315 206 368 q 179 215 179 261 m 819 1178 q 849 1163 835 1178 q 863 1131 863 1147 q 858 1110 863 1118 q 847 1097 854 1103 l 632 889 q 596 865 614 871 q 554 858 578 858 q 519 867 535 858 q 496 893 504 876 l 375 1106 q 367 1124 369 1117 q 365 1136 365 1131 q 386 1165 365 1153 q 419 1178 407 1178 q 441 1171 433 1178 q 456 1154 449 1164 l 581 999 l 779 1157 q 798 1171 789 1164 q 819 1178 807 1178 z "},"â":{"ha":865,"x_min":53,"x_max":819,"o":"m 218 -24 q 131 3 168 -24 q 73 78 93 29 q 53 194 53 128 q 72 332 53 260 q 128 473 90 404 q 219 598 165 542 q 343 688 274 654 q 499 721 413 721 q 583 710 539 721 q 668 681 626 700 l 669 686 q 690 710 676 704 q 728 715 704 715 q 782 703 769 715 q 786 663 794 690 l 631 143 q 624 106 624 118 q 629 89 624 93 q 642 85 635 85 q 669 94 656 85 q 700 119 683 103 q 735 160 717 136 q 757 176 746 174 q 783 168 768 179 q 810 141 806 154 q 808 113 815 128 q 769 58 796 90 q 703 3 742 26 q 615 -21 665 -21 q 542 1 567 -21 q 511 55 517 22 q 512 126 506 88 q 528 197 518 164 q 531 208 531 203 q 532 221 532 214 q 424 85 478 139 q 317 3 369 31 q 218 -24 265 -24 m 179 215 q 188 147 179 176 q 213 103 196 118 q 254 88 231 88 q 364 140 303 88 q 491 291 425 192 q 625 533 557 390 l 639 581 q 555 606 594 600 q 483 611 515 611 q 378 585 426 611 q 294 517 331 560 q 231 421 257 474 q 192 315 206 368 q 179 215 179 261 m 368 847 q 336 863 350 847 q 322 894 322 878 q 328 914 322 906 q 339 928 333 922 l 553 1136 q 590 1160 571 1153 q 632 1167 608 1167 q 666 1158 650 1167 q 690 1132 682 1149 l 811 918 q 818 901 817 908 q 819 889 819 894 q 799 860 819 872 q 765 847 779 847 q 745 854 753 847 q 729 869 738 861 l 606 1026 l 406 868 q 388 855 397 863 q 368 847 378 847 z "},"ä":{"ha":865,"x_min":53,"x_max":846,"o":"m 218 -24 q 131 3 168 -24 q 73 78 93 29 q 53 194 53 128 q 72 332 53 260 q 128 473 90 404 q 219 598 165 542 q 343 688 274 654 q 499 721 413 721 q 583 710 539 721 q 668 681 626 700 l 669 686 q 690 710 676 704 q 728 715 704 715 q 782 703 769 715 q 786 663 794 690 l 631 143 q 624 106 624 118 q 629 89 624 93 q 642 85 635 85 q 669 94 656 85 q 700 119 683 103 q 735 160 717 136 q 757 176 746 174 q 783 168 768 179 q 810 141 806 154 q 808 113 815 128 q 769 58 796 90 q 703 3 742 26 q 615 -21 665 -21 q 542 1 567 -21 q 511 55 517 22 q 512 126 506 88 q 528 197 518 164 q 531 208 531 203 q 532 221 532 214 q 424 85 478 139 q 317 3 369 31 q 218 -24 265 -24 m 179 215 q 188 147 179 176 q 213 103 196 118 q 254 88 231 88 q 364 140 303 88 q 491 291 425 192 q 625 533 557 390 l 639 581 q 555 606 594 600 q 483 611 515 611 q 378 585 426 611 q 294 517 331 560 q 231 421 257 474 q 192 315 206 368 q 179 215 179 261 m 418 929 q 369 948 389 929 q 350 1001 350 967 q 374 1072 350 1040 q 447 1104 397 1104 q 497 1086 478 1104 q 517 1032 517 1068 q 492 961 517 993 q 418 929 468 929 m 747 929 q 699 948 718 929 q 679 1001 679 967 q 703 1072 679 1040 q 776 1104 726 1104 q 826 1086 807 1104 q 846 1032 846 1068 q 822 961 846 993 q 747 929 799 929 z "},"ǽ":{"ha":1242,"x_min":51,"x_max":1208,"o":"m 51 194 q 72 332 51 260 q 133 473 93 404 q 231 598 172 542 q 367 688 290 654 q 538 721 444 721 q 640 711 592 721 q 741 682 689 701 q 856 629 793 663 q 748 456 790 553 q 706 247 706 358 q 720 161 706 199 q 765 104 735 124 q 840 85 794 85 q 925 103 888 85 q 997 153 963 122 q 1061 221 1031 185 q 1100 235 1079 240 q 1136 215 1121 231 q 1153 183 1151 200 q 1139 146 1156 167 q 1035 43 1088 81 q 929 -10 982 6 q 826 -26 876 -26 q 687 8 742 -26 q 606 103 632 43 q 581 238 581 164 q 603 392 581 317 q 660 533 626 468 q 726 646 694 597 l 744 556 q 651 595 703 579 q 531 611 599 611 q 381 571 447 611 q 270 467 315 531 q 202 333 225 404 q 179 197 179 261 q 188 138 179 163 q 215 100 197 113 q 258 88 232 88 q 352 124 303 88 q 453 222 401 160 q 557 365 504 285 q 660 535 610 446 l 756 517 q 597 255 669 360 q 461 89 524 150 q 344 2 399 28 q 236 -24 289 -24 q 97 38 143 -24 q 51 194 51 99 m 1208 554 q 1174 450 1208 496 q 1080 368 1139 404 q 947 306 1021 332 q 794 261 872 279 q 640 232 715 243 l 651 331 q 756 350 699 338 q 872 378 814 363 q 977 419 929 394 q 1053 474 1025 443 q 1082 544 1082 504 q 1058 595 1082 579 q 993 611 1033 611 q 876 597 932 611 q 767 547 819 582 l 749 660 q 864 704 803 688 q 1008 721 925 721 q 1158 675 1108 721 q 1208 554 1208 629 m 732 854 q 701 868 718 854 q 683 897 683 882 q 686 914 683 906 q 696 931 689 922 l 865 1144 q 886 1166 876 1161 q 907 1171 896 1171 q 938 1161 921 1171 q 968 1136 956 1151 q 981 1106 981 1121 q 976 1088 981 1094 q 963 1074 972 1081 l 769 875 q 732 854 750 854 z "},"à":{"ha":865,"x_min":53,"x_max":815,"o":"m 218 -24 q 131 3 168 -24 q 73 78 93 29 q 53 194 53 128 q 72 332 53 260 q 128 473 90 404 q 219 598 165 542 q 343 688 274 654 q 499 721 413 721 q 583 710 539 721 q 668 681 626 700 l 669 686 q 690 710 676 704 q 728 715 704 715 q 782 703 769 715 q 786 663 794 690 l 631 143 q 624 106 624 118 q 629 89 624 93 q 642 85 635 85 q 669 94 656 85 q 700 119 683 103 q 735 160 717 136 q 757 176 746 174 q 783 168 768 179 q 810 141 806 154 q 808 113 815 128 q 769 58 796 90 q 703 3 742 26 q 615 -21 665 -21 q 542 1 567 -21 q 511 55 517 22 q 512 126 506 88 q 528 197 518 164 q 531 208 531 203 q 532 221 532 214 q 424 85 478 139 q 317 3 369 31 q 218 -24 265 -24 m 179 215 q 188 147 179 176 q 213 103 196 118 q 254 88 231 88 q 364 140 303 88 q 491 291 425 192 q 625 533 557 390 l 639 581 q 555 606 594 600 q 483 611 515 611 q 378 585 426 611 q 294 517 331 560 q 231 421 257 474 q 192 315 206 368 q 179 215 179 261 m 594 864 q 575 870 585 864 q 554 893 565 876 l 435 1096 q 427 1111 431 1104 q 424 1126 424 1118 q 436 1155 424 1142 q 467 1176 449 1168 q 504 1185 486 1185 q 551 1143 535 1185 l 638 929 q 642 917 640 924 q 643 906 643 911 q 627 875 643 886 q 594 864 611 864 z "},"ā":{"ha":865,"x_min":53,"x_max":825,"o":"m 218 -24 q 131 3 168 -24 q 73 78 93 29 q 53 194 53 128 q 72 332 53 260 q 128 473 90 404 q 219 598 165 542 q 343 688 274 654 q 499 721 413 721 q 583 710 539 721 q 668 681 626 700 l 669 686 q 690 710 676 704 q 728 715 704 715 q 782 703 769 715 q 786 663 794 690 l 631 143 q 624 106 624 118 q 629 89 624 93 q 642 85 635 85 q 669 94 656 85 q 700 119 683 103 q 735 160 717 136 q 757 176 746 174 q 783 168 768 179 q 810 141 806 154 q 808 113 815 128 q 769 58 796 90 q 703 3 742 26 q 615 -21 665 -21 q 542 1 567 -21 q 511 55 517 22 q 512 126 506 88 q 528 197 518 164 q 531 208 531 203 q 532 221 532 214 q 424 85 478 139 q 317 3 369 31 q 218 -24 265 -24 m 179 215 q 188 147 179 176 q 213 103 196 118 q 254 88 231 88 q 364 140 303 88 q 491 291 425 192 q 625 533 557 390 l 639 581 q 555 606 594 600 q 483 611 515 611 q 378 585 426 611 q 294 517 331 560 q 231 421 257 474 q 192 315 206 368 q 179 215 179 261 m 406 953 q 372 969 378 953 q 372 1011 367 986 q 390 1056 378 1040 q 426 1071 401 1071 l 786 1071 q 819 1054 814 1071 q 819 1011 825 1038 q 801 967 813 982 q 764 953 789 953 l 406 953 z "},"ą":{"ha":865,"x_min":53,"x_max":815,"o":"m 218 -24 q 131 3 168 -24 q 73 78 93 29 q 53 194 53 128 q 72 332 53 260 q 128 473 90 404 q 219 598 165 542 q 343 688 274 654 q 499 721 413 721 q 583 710 539 721 q 668 681 626 700 l 669 686 q 690 710 676 704 q 728 715 704 715 q 782 703 769 715 q 786 663 794 690 l 631 143 q 624 106 624 118 q 629 89 624 93 q 642 85 635 85 q 669 94 656 85 q 700 119 683 103 q 735 160 717 136 q 757 176 746 174 q 783 168 768 179 q 810 141 806 154 q 808 113 815 128 q 769 58 796 90 q 703 3 742 26 q 615 -21 665 -21 q 542 1 567 -21 q 511 55 517 22 q 512 126 506 88 q 528 197 518 164 q 531 208 531 203 q 532 221 532 214 q 424 85 478 139 q 317 3 369 31 q 218 -24 265 -24 m 179 215 q 188 147 179 176 q 213 103 196 118 q 254 88 231 88 q 364 140 303 88 q 491 291 425 192 q 625 533 557 390 l 639 581 q 555 606 594 600 q 483 611 515 611 q 378 585 426 611 q 294 517 331 560 q 231 421 257 474 q 192 315 206 368 q 179 215 179 261 m 479 -339 q 415 -317 439 -339 q 392 -256 392 -294 q 410 -186 392 -221 q 462 -115 428 -151 q 547 -39 496 -78 q 660 46 597 0 l 743 43 l 743 36 q 653 -39 694 -3 q 583 -107 613 -75 q 536 -164 553 -139 q 519 -208 519 -189 q 526 -227 519 -221 q 544 -233 533 -233 q 593 -216 568 -233 q 653 -167 618 -199 q 676 -157 661 -160 q 706 -169 690 -154 q 721 -194 718 -181 q 715 -221 724 -208 q 648 -283 689 -256 q 563 -324 607 -310 q 479 -339 519 -339 z "},"å":{"ha":865,"x_min":53,"x_max":815,"o":"m 218 -24 q 131 3 168 -24 q 73 78 93 29 q 53 194 53 128 q 72 332 53 260 q 128 473 90 404 q 219 598 165 542 q 343 688 274 654 q 499 721 413 721 q 583 710 539 721 q 668 681 626 700 l 669 686 q 690 710 676 704 q 728 715 704 715 q 782 703 769 715 q 786 663 794 690 l 631 143 q 624 106 624 118 q 629 89 624 93 q 642 85 635 85 q 669 94 656 85 q 700 119 683 103 q 735 160 717 136 q 757 176 746 174 q 783 168 768 179 q 810 141 806 154 q 808 113 815 128 q 769 58 796 90 q 703 3 742 26 q 615 -21 665 -21 q 542 1 567 -21 q 511 55 517 22 q 512 126 506 88 q 528 197 518 164 q 531 208 531 203 q 532 221 532 214 q 424 85 478 139 q 317 3 369 31 q 218 -24 265 -24 m 179 215 q 188 147 179 176 q 213 103 196 118 q 254 88 231 88 q 364 140 303 88 q 491 291 425 192 q 625 533 557 390 l 639 581 q 555 606 594 600 q 483 611 515 611 q 378 585 426 611 q 294 517 331 560 q 231 421 257 474 q 192 315 206 368 q 179 215 179 261 m 571 835 q 451 876 493 835 q 408 996 408 918 q 436 1097 408 1053 q 512 1168 464 1142 q 618 1194 560 1194 q 743 1154 699 1194 q 788 1036 788 1114 q 759 933 788 979 q 682 861 731 888 q 571 835 633 835 m 576 918 q 632 934 607 918 q 672 976 657 950 q 686 1033 686 1003 q 668 1092 686 1074 q 613 1111 650 1111 q 561 1095 585 1111 q 523 1053 538 1079 q 508 997 508 1028 q 526 938 508 958 q 576 918 544 918 z "},"ã":{"ha":865,"x_min":53,"x_max":860,"o":"m 218 -24 q 131 3 168 -24 q 73 78 93 29 q 53 194 53 128 q 72 332 53 260 q 128 473 90 404 q 219 598 165 542 q 343 688 274 654 q 499 721 413 721 q 583 710 539 721 q 668 681 626 700 l 669 686 q 690 710 676 704 q 728 715 704 715 q 782 703 769 715 q 786 663 794 690 l 631 143 q 624 106 624 118 q 629 89 624 93 q 642 85 635 85 q 669 94 656 85 q 700 119 683 103 q 735 160 717 136 q 757 176 746 174 q 783 168 768 179 q 810 141 806 154 q 808 113 815 128 q 769 58 796 90 q 703 3 742 26 q 615 -21 665 -21 q 542 1 567 -21 q 511 55 517 22 q 512 126 506 88 q 528 197 518 164 q 531 208 531 203 q 532 221 532 214 q 424 85 478 139 q 317 3 369 31 q 218 -24 265 -24 m 179 215 q 188 147 179 176 q 213 103 196 118 q 254 88 231 88 q 364 140 303 88 q 491 291 425 192 q 625 533 557 390 l 639 581 q 555 606 594 600 q 483 611 515 611 q 378 585 426 611 q 294 517 331 560 q 231 421 257 474 q 192 315 206 368 q 179 215 179 261 m 368 889 q 326 928 325 889 q 365 1067 332 1021 q 457 1113 399 1113 q 537 1097 499 1113 q 609 1063 575 1082 q 671 1028 643 1043 q 721 1013 699 1013 q 744 1028 733 1013 q 761 1079 756 1043 q 819 1115 768 1115 q 851 1106 842 1115 q 858 1078 860 1097 q 822 938 853 986 q 725 890 790 890 q 644 906 682 890 q 575 940 607 921 q 515 975 543 960 q 464 990 488 990 q 437 974 447 990 q 422 925 426 958 q 406 898 419 907 q 368 889 392 889 z "},"ắ":{"ha":865,"x_min":53,"x_max":875,"o":"m 218 -24 q 131 3 168 -24 q 73 78 93 29 q 53 194 53 128 q 72 332 53 260 q 128 473 90 404 q 219 598 165 542 q 343 688 274 654 q 499 721 413 721 q 583 710 539 721 q 668 681 626 700 l 669 686 q 690 710 676 704 q 728 715 704 715 q 782 703 769 715 q 786 663 794 690 l 631 143 q 624 106 624 118 q 629 89 624 93 q 642 85 635 85 q 669 94 656 85 q 700 119 683 103 q 735 160 717 136 q 757 176 746 174 q 783 168 768 179 q 810 141 806 154 q 808 113 815 128 q 769 58 796 90 q 703 3 742 26 q 615 -21 665 -21 q 542 1 567 -21 q 511 55 517 22 q 512 126 506 88 q 528 197 518 164 q 531 208 531 203 q 532 221 532 214 q 424 85 478 139 q 317 3 369 31 q 218 -24 265 -24 m 179 215 q 188 147 179 176 q 213 103 196 118 q 254 88 231 88 q 364 140 303 88 q 491 291 425 192 q 625 533 557 390 l 639 581 q 555 606 594 600 q 483 611 515 611 q 378 585 426 611 q 294 517 331 560 q 231 421 257 474 q 192 315 206 368 q 179 215 179 261 m 568 858 q 410 931 461 858 q 381 1138 360 1004 q 396 1167 383 1157 q 432 1176 408 1176 q 468 1165 456 1176 q 481 1138 481 1154 q 506 1022 476 1063 q 588 981 535 981 q 695 1026 649 981 q 767 1132 742 1072 q 788 1165 776 1157 q 821 1174 800 1174 q 862 1161 849 1174 q 868 1129 875 1149 q 797 972 839 1031 q 700 885 756 913 q 568 858 644 858 m 603 1161 q 572 1175 589 1161 q 554 1203 554 1189 q 558 1220 554 1213 q 567 1236 561 1228 l 736 1451 q 757 1472 747 1467 q 778 1478 767 1478 q 809 1468 792 1478 q 839 1443 826 1458 q 851 1411 851 1428 q 847 1394 851 1401 q 835 1379 843 1388 l 642 1182 q 603 1161 621 1161 z "},"ặ":{"ha":865,"x_min":53,"x_max":875,"o":"m 218 -24 q 131 3 168 -24 q 73 78 93 29 q 53 194 53 128 q 72 332 53 260 q 128 473 90 404 q 219 598 165 542 q 343 688 274 654 q 499 721 413 721 q 583 710 539 721 q 668 681 626 700 l 669 686 q 690 710 676 704 q 728 715 704 715 q 782 703 769 715 q 786 663 794 690 l 631 143 q 624 106 624 118 q 629 89 624 93 q 642 85 635 85 q 669 94 656 85 q 700 119 683 103 q 735 160 717 136 q 757 176 746 174 q 783 168 768 179 q 810 141 806 154 q 808 113 815 128 q 769 58 796 90 q 703 3 742 26 q 615 -21 665 -21 q 542 1 567 -21 q 511 55 517 22 q 512 126 506 88 q 528 197 518 164 q 531 208 531 203 q 532 221 532 214 q 424 85 478 139 q 317 3 369 31 q 218 -24 265 -24 m 179 215 q 188 147 179 176 q 213 103 196 118 q 254 88 231 88 q 364 140 303 88 q 491 291 425 192 q 625 533 557 390 l 639 581 q 555 606 594 600 q 483 611 515 611 q 378 585 426 611 q 294 517 331 560 q 231 421 257 474 q 192 315 206 368 q 179 215 179 261 m 244 -322 q 196 -304 215 -322 q 176 -250 176 -286 q 200 -179 176 -211 q 274 -147 224 -147 q 324 -166 304 -147 q 343 -221 343 -185 q 319 -291 343 -260 q 244 -322 294 -322 m 568 858 q 410 931 461 858 q 381 1138 360 1004 q 396 1167 383 1157 q 432 1176 408 1176 q 468 1165 456 1176 q 481 1138 481 1154 q 506 1022 476 1063 q 588 981 535 981 q 695 1026 649 981 q 767 1132 742 1072 q 788 1165 776 1157 q 821 1174 800 1174 q 862 1161 849 1174 q 868 1129 875 1149 q 797 972 839 1031 q 700 885 756 913 q 568 858 644 858 z "}}}
